<?xml version="1.0" encoding="utf-8"?>
<!-- Generator: Adobe Illustrator 24.1.0, SVG Export Plug-In . SVG Version: 6.00 Build 0)  -->
<svg version="1.1" xmlns="http://www.w3.org/2000/svg" xmlns:xlink="http://www.w3.org/1999/xlink" x="0px" y="0px"
	 viewBox="0 0 20 20" style="enable-background:new 0 0 20 20;" xml:space="preserve">
<style type="text/css">
	.st0{display:none;}
	.st1{display:inline;fill:url(#SVGID_1_);stroke:#3C2415;stroke-width:0.25;stroke-miterlimit:10;}
	.st2{display:inline;fill:none;stroke:#3C2415;stroke-width:0.25;stroke-miterlimit:10;}
	.st3{display:inline;fill:#754C29;stroke:#3C2415;stroke-width:0.25;stroke-miterlimit:10;}
	.st4{display:inline;fill:url(#SVGID_2_);stroke:#E8DF3E;stroke-width:0.1;stroke-miterlimit:10;}
	.st5{display:inline;fill:url(#SVGID_3_);stroke:#E8DF3E;stroke-width:0.1;stroke-miterlimit:10;}
	.st6{display:inline;fill:url(#SVGID_4_);stroke:#E8DF3E;stroke-width:0.1;stroke-miterlimit:10;}
	.st7{display:inline;fill:url(#SVGID_5_);stroke:#E8DF3E;stroke-width:0.1;stroke-miterlimit:10;}
	.st8{display:inline;fill:url(#SVGID_6_);stroke:#E8DF3E;stroke-width:0.1;stroke-miterlimit:10;}
	.st9{display:inline;fill:url(#SVGID_7_);stroke:#E8DF3E;stroke-width:0.1;stroke-miterlimit:10;}
	.st10{display:inline;fill:url(#SVGID_8_);stroke:#E8DF3E;stroke-width:0.1;stroke-miterlimit:10;}
	.st11{display:inline;fill:url(#SVGID_9_);stroke:#E8DF3E;stroke-width:0.1;stroke-miterlimit:10;}
	.st12{display:inline;fill:url(#SVGID_10_);stroke:#E8DF3E;stroke-width:0.1;stroke-miterlimit:10;}
	.st13{display:inline;fill:url(#SVGID_11_);stroke:#E8DF3E;stroke-width:0.1;stroke-miterlimit:10;}
	.st14{display:inline;}
	.st15{fill:#8B5E3C;}
	.st16{fill:url(#SVGID_12_);}
	.st17{fill:url(#SVGID_13_);}
	.st18{fill:url(#SVGID_14_);}
	.st19{fill:url(#SVGID_15_);}
	.st20{fill:url(#SVGID_16_);}
	.st21{fill:url(#SVGID_17_);}
	.st22{fill:url(#SVGID_18_);}
	.st23{fill:url(#SVGID_19_);}
	.st24{fill:url(#SVGID_20_);}
	.st25{fill:#603913;}
	.st26{fill:url(#SVGID_21_);}
	.st27{fill:url(#SVGID_22_);}
	.st28{fill:url(#SVGID_23_);}
	.st29{fill:url(#SVGID_24_);}
	.st30{fill:url(#SVGID_25_);}
	.st31{fill:url(#SVGID_26_);}
	.st32{fill:url(#SVGID_27_);}
	.st33{fill:url(#SVGID_28_);}
	.st34{fill:url(#SVGID_29_);}
	.st35{fill:url(#SVGID_30_);}
	.st36{fill:url(#SVGID_31_);}
	.st37{fill:#A97C50;}
	.st38{fill:#C49A6C;}
	.st39{fill:none;stroke:#A97C50;stroke-width:0.1;stroke-miterlimit:10;}
	.st40{fill:none;stroke:#8B5E3C;stroke-width:0.1;stroke-miterlimit:10;}
	.st41{fill:none;stroke:#754C29;stroke-width:0.1;stroke-miterlimit:10;}
</style>
<g id="Bag_-_Not_used" class="st0">
	<linearGradient id="SVGID_1_" gradientUnits="userSpaceOnUse" x1="3.8919" y1="14.987" x2="15.5268" y2="14.987">
		<stop  offset="0" style="stop-color:#BB8D69"/>
		<stop  offset="0.2575" style="stop-color:#AC784F"/>
		<stop  offset="0.5149" style="stop-color:#A26A3E"/>
		<stop  offset="0.7653" style="stop-color:#9B6235"/>
		<stop  offset="1" style="stop-color:#995F32"/>
	</linearGradient>
	<path class="st1" d="M6.9,11.6c0,0-2.3,1.2-2.7,2.6s-0.4,3.5,0.4,4.1s2.7,1.1,3.7,0.8c0.9-0.3,2.2-0.4,2.8-0.3
		c0.6,0.2,2.4,0.6,3.5,0s1.4-4.5,0.3-5.7s-2.4-2-2.4-2l-2.4-0.4L6.9,11.6z"/>
	<path class="st2" d="M11.5,11.8c0,0,1.3,0.3,1.3,1.7c0.1,1.4-0.4,2.2-0.4,2.2"/>
	<path class="st2" d="M11.3,12.2c0,0-1.2,0.3-1.2,1.7s0.9,2.4,0.9,2.4"/>
	<path class="st3" d="M4.8,10c-0.3,0.6-0.3,1.9,0.2,2.1c0.5,0.2,1.8,0.3,2.5,0c0.8-0.3,1.7,0.9,2.8,0.6c1.1-0.2,2.9-1.5,3.7-1.3
		c0.8,0.2,1.7-0.6,1.5-1c-0.2-0.4-3.6-1.2-4.4-2c-0.8-0.8-2-1.2-2.8-1C7.4,7.7,7,9.3,6.4,9.2S4.8,10,4.8,10z"/>
	<linearGradient id="SVGID_2_" gradientUnits="userSpaceOnUse" x1="5.9647" y1="11.8585" x2="7.1592" y2="10.664">
		<stop  offset="0.1065" style="stop-color:#D5A32A"/>
		<stop  offset="0.2998" style="stop-color:#CD952B"/>
		<stop  offset="0.4628" style="stop-color:#E7D06A"/>
		<stop  offset="0.6923" style="stop-color:#D2A445"/>
		<stop  offset="0.9664" style="stop-color:#C17A2A"/>
	</linearGradient>
	<ellipse class="st4" cx="6.6" cy="11.3" rx="1.1" ry="0.5"/>
	<linearGradient id="SVGID_3_" gradientUnits="userSpaceOnUse" x1="7.4225" y1="11.9059" x2="8.6171" y2="10.7114">
		<stop  offset="0.1065" style="stop-color:#D5A32A"/>
		<stop  offset="0.2998" style="stop-color:#CD952B"/>
		<stop  offset="0.4628" style="stop-color:#E7D06A"/>
		<stop  offset="0.6923" style="stop-color:#D2A445"/>
		<stop  offset="0.9664" style="stop-color:#C17A2A"/>
	</linearGradient>
	<ellipse class="st5" cx="8" cy="11.3" rx="1.1" ry="0.5"/>
	<linearGradient id="SVGID_4_" gradientUnits="userSpaceOnUse" x1="7.4943" y1="11.4451" x2="8.6888" y2="10.2505">
		<stop  offset="0.1065" style="stop-color:#D5A32A"/>
		<stop  offset="0.2998" style="stop-color:#CD952B"/>
		<stop  offset="0.4628" style="stop-color:#E7D06A"/>
		<stop  offset="0.6923" style="stop-color:#D2A445"/>
		<stop  offset="0.9664" style="stop-color:#C17A2A"/>
	</linearGradient>
	<ellipse class="st6" cx="8.1" cy="10.8" rx="1.1" ry="0.5"/>
	<linearGradient id="SVGID_5_" gradientUnits="userSpaceOnUse" x1="10.3084" y1="11.5782" x2="11.5029" y2="10.3837">
		<stop  offset="0.1065" style="stop-color:#D5A32A"/>
		<stop  offset="0.2998" style="stop-color:#CD952B"/>
		<stop  offset="0.4628" style="stop-color:#E7D06A"/>
		<stop  offset="0.6923" style="stop-color:#D2A445"/>
		<stop  offset="0.9664" style="stop-color:#C17A2A"/>
	</linearGradient>
	<ellipse class="st7" cx="10.9" cy="11" rx="1.1" ry="0.5"/>
	<linearGradient id="SVGID_6_" gradientUnits="userSpaceOnUse" x1="9.4771" y1="11.1551" x2="10.6716" y2="9.9605">
		<stop  offset="0.1065" style="stop-color:#D5A32A"/>
		<stop  offset="0.2998" style="stop-color:#CD952B"/>
		<stop  offset="0.4628" style="stop-color:#E7D06A"/>
		<stop  offset="0.6923" style="stop-color:#D2A445"/>
		<stop  offset="0.9664" style="stop-color:#C17A2A"/>
	</linearGradient>
	<ellipse class="st8" cx="10.1" cy="10.6" rx="1.1" ry="0.5"/>
	<linearGradient id="SVGID_7_" gradientUnits="userSpaceOnUse" x1="9.7701" y1="12.5997" x2="10.9647" y2="11.4052">
		<stop  offset="0.1065" style="stop-color:#D5A32A"/>
		<stop  offset="0.2998" style="stop-color:#CD952B"/>
		<stop  offset="0.4628" style="stop-color:#E7D06A"/>
		<stop  offset="0.6923" style="stop-color:#D2A445"/>
		<stop  offset="0.9664" style="stop-color:#C17A2A"/>
	</linearGradient>
	<ellipse class="st9" cx="10.4" cy="12" rx="1.1" ry="0.5"/>
	<linearGradient id="SVGID_8_" gradientUnits="userSpaceOnUse" x1="12.0021" y1="11.6159" x2="13.1966" y2="10.4214">
		<stop  offset="0.1065" style="stop-color:#D5A32A"/>
		<stop  offset="0.2998" style="stop-color:#CD952B"/>
		<stop  offset="0.4628" style="stop-color:#E7D06A"/>
		<stop  offset="0.6923" style="stop-color:#D2A445"/>
		<stop  offset="0.9664" style="stop-color:#C17A2A"/>
	</linearGradient>
	<ellipse class="st10" cx="12.6" cy="11" rx="1.1" ry="0.5"/>
	<linearGradient id="SVGID_9_" gradientUnits="userSpaceOnUse" x1="10.6931" y1="12.2113" x2="11.8877" y2="11.0167">
		<stop  offset="0.1065" style="stop-color:#D5A32A"/>
		<stop  offset="0.2998" style="stop-color:#CD952B"/>
		<stop  offset="0.4628" style="stop-color:#E7D06A"/>
		<stop  offset="0.6923" style="stop-color:#D2A445"/>
		<stop  offset="0.9664" style="stop-color:#C17A2A"/>
	</linearGradient>
	<ellipse class="st11" cx="11.3" cy="11.6" rx="1.1" ry="0.5"/>
	<linearGradient id="SVGID_10_" gradientUnits="userSpaceOnUse" x1="8.7862" y1="12.4797" x2="9.9808" y2="11.2852">
		<stop  offset="0.1065" style="stop-color:#D5A32A"/>
		<stop  offset="0.2998" style="stop-color:#CD952B"/>
		<stop  offset="0.4628" style="stop-color:#E7D06A"/>
		<stop  offset="0.6923" style="stop-color:#D2A445"/>
		<stop  offset="0.9664" style="stop-color:#C17A2A"/>
	</linearGradient>
	<ellipse class="st12" cx="9.4" cy="11.9" rx="1.1" ry="0.5"/>
	<linearGradient id="SVGID_11_" gradientUnits="userSpaceOnUse" x1="8.9364" y1="11.9136" x2="10.1309" y2="10.7191">
		<stop  offset="0.1065" style="stop-color:#D5A32A"/>
		<stop  offset="0.2998" style="stop-color:#CD952B"/>
		<stop  offset="0.4628" style="stop-color:#E7D06A"/>
		<stop  offset="0.6923" style="stop-color:#D2A445"/>
		<stop  offset="0.9664" style="stop-color:#C17A2A"/>
	</linearGradient>
	<ellipse class="st13" cx="9.5" cy="11.3" rx="1.1" ry="0.5"/>
</g>
<g id="Coins_Small" class="st0">
	<g class="st14">
		<g>
			<path class="st15" d="M11.2,15.8c0,0.6-1.1,1.1-2.5,1.1s-2.5-0.5-2.5-1.1c0-0.3,0-0.4,0-0.4l4.9,0C11.1,15.5,11.2,15.6,11.2,15.8
				z"/>
			<linearGradient id="SVGID_12_" gradientUnits="userSpaceOnUse" x1="7.3328" y1="16.8816" x2="10.0221" y2="14.1923">
				<stop  offset="0.1065" style="stop-color:#D5A32A"/>
				<stop  offset="0.2998" style="stop-color:#CD952B"/>
				<stop  offset="0.4628" style="stop-color:#E7D06A"/>
				<stop  offset="0.6923" style="stop-color:#D2A445"/>
				<stop  offset="0.9664" style="stop-color:#C17A2A"/>
			</linearGradient>
			<ellipse class="st16" cx="8.7" cy="15.5" rx="2.5" ry="1.1"/>
		</g>
		<g>
			<path class="st15" d="M11.2,15.3c0,0.6-1.1,1.1-2.5,1.1s-2.5-0.5-2.5-1.1c0-0.3,0-0.4,0-0.4l4.9,0C11.1,15,11.2,15.1,11.2,15.3z"
				/>
			<linearGradient id="SVGID_13_" gradientUnits="userSpaceOnUse" x1="7.3328" y1="16.3535" x2="10.0221" y2="13.6642">
				<stop  offset="0.1065" style="stop-color:#D5A32A"/>
				<stop  offset="0.2998" style="stop-color:#CD952B"/>
				<stop  offset="0.4628" style="stop-color:#E7D06A"/>
				<stop  offset="0.6923" style="stop-color:#D2A445"/>
				<stop  offset="0.9664" style="stop-color:#C17A2A"/>
			</linearGradient>
			<ellipse class="st17" cx="8.7" cy="15" rx="2.5" ry="1.1"/>
		</g>
		<g>
			<path class="st15" d="M11.2,14.8c0,0.6-1.1,1.1-2.5,1.1s-2.5-0.5-2.5-1.1c0-0.3,0-0.4,0-0.4l4.9,0C11.1,14.4,11.2,14.5,11.2,14.8
				z"/>
			<linearGradient id="SVGID_14_" gradientUnits="userSpaceOnUse" x1="7.3328" y1="15.8255" x2="10.0221" y2="13.1362">
				<stop  offset="0.1065" style="stop-color:#D5A32A"/>
				<stop  offset="0.2998" style="stop-color:#CD952B"/>
				<stop  offset="0.4628" style="stop-color:#E7D06A"/>
				<stop  offset="0.6923" style="stop-color:#D2A445"/>
				<stop  offset="0.9664" style="stop-color:#C17A2A"/>
			</linearGradient>
			<ellipse class="st18" cx="8.7" cy="14.5" rx="2.5" ry="1.1"/>
		</g>
		<path class="st15" d="M9.7,10.5L9.7,10.5C9.7,10.5,9.7,10.5,9.7,10.5C9.7,10.5,9.7,10.5,9.7,10.5z"/>
		<linearGradient id="SVGID_15_" gradientUnits="userSpaceOnUse" x1="7.0993" y1="13.1053" x2="9.7887" y2="10.4159">
			<stop  offset="0.1065" style="stop-color:#D5A32A"/>
			<stop  offset="0.2998" style="stop-color:#CD952B"/>
			<stop  offset="0.4628" style="stop-color:#E7D06A"/>
			<stop  offset="0.6923" style="stop-color:#D2A445"/>
			<stop  offset="0.9664" style="stop-color:#C17A2A"/>
		</linearGradient>
		<polygon class="st19" points="9.7,10.5 9.7,10.5 9.7,10.5 		"/>
		<g>
			<linearGradient id="SVGID_16_" gradientUnits="userSpaceOnUse" x1="2.6247" y1="15.1265" x2="7.5767" y2="15.1265">
				<stop  offset="0.1065" style="stop-color:#D5A32A"/>
				<stop  offset="0.2998" style="stop-color:#CD952B"/>
				<stop  offset="0.4628" style="stop-color:#E7D06A"/>
				<stop  offset="0.6923" style="stop-color:#D2A445"/>
				<stop  offset="0.9664" style="stop-color:#C17A2A"/>
			</linearGradient>
			<path class="st20" d="M7.6,17.4c0,0.6-1.1,1.1-2.5,1.1S2.6,18,2.6,17.4c0-0.3,0-5.7,0-5.7l4.9,0C7.6,11.8,7.6,17.2,7.6,17.4z"/>
			<linearGradient id="SVGID_17_" gradientUnits="userSpaceOnUse" x1="3.756" y1="13.1578" x2="6.4454" y2="10.4685">
				<stop  offset="0.1065" style="stop-color:#D5A32A"/>
				<stop  offset="0.2998" style="stop-color:#CD952B"/>
				<stop  offset="0.4628" style="stop-color:#E7D06A"/>
				<stop  offset="0.6923" style="stop-color:#D2A445"/>
				<stop  offset="0.9664" style="stop-color:#C17A2A"/>
			</linearGradient>
			<ellipse class="st21" cx="5.1" cy="11.8" rx="2.5" ry="1.1"/>
			<path class="st15" d="M7.6,11.8c0,0.6-1.1,1.1-2.5,1.1c-1.4,0-2.5-0.5-2.5-1.1c0,0,0,0,0,0h0c0,0,0,0.1,0,0.4
				c0,0.6,1.1,1.1,2.5,1.1s2.5-0.5,2.5-1.1C7.6,12,7.6,11.9,7.6,11.8z"/>
			<path class="st15" d="M7.6,13.2c0,0.6-1.1,1.1-2.5,1.1c-1.4,0-2.5-0.5-2.5-1.1c0,0,0,0,0,0h0c0,0,0,0.1,0,0.4
				c0,0.6,1.1,1.1,2.5,1.1s2.5-0.5,2.5-1.1C7.6,13.3,7.6,13.3,7.6,13.2z"/>
			<path class="st15" d="M7.6,15.3c0,0.6-1.1,1.1-2.5,1.1c-1.4,0-2.5-0.5-2.5-1.1c0,0,0,0,0,0h0c0,0,0,0.1,0,0.4
				c0,0.6,1.1,1.1,2.5,1.1s2.5-0.5,2.5-1.1C7.6,15.4,7.6,15.3,7.6,15.3z"/>
			<path class="st15" d="M7.6,14.6c0,0.6-1.1,1.1-2.5,1.1c-1.4,0-2.5-0.5-2.5-1.1c0,0,0,0,0,0h0c0,0,0,0.1,0,0.4
				c0,0.6,1.1,1.1,2.5,1.1s2.5-0.5,2.5-1.1C7.6,14.7,7.6,14.6,7.6,14.6z"/>
			<path class="st15" d="M7.6,16c0,0.6-1.1,1.1-2.5,1.1c-1.4,0-2.5-0.5-2.5-1.1c0,0,0,0,0,0h0c0,0,0,0.1,0,0.4
				c0,0.6,1.1,1.1,2.5,1.1s2.5-0.5,2.5-1.1C7.6,16.1,7.6,16,7.6,16z"/>
			<path class="st15" d="M7.6,16.7c0,0.6-1.1,1.1-2.5,1.1c-1.4,0-2.5-0.5-2.5-1.1c0,0,0,0,0,0h0c0,0,0,0.1,0,0.4
				c0,0.6,1.1,1.1,2.5,1.1s2.5-0.5,2.5-1.1C7.6,16.8,7.6,16.7,7.6,16.7z"/>
			<path class="st15" d="M7.6,12.5c0,0.6-1.1,1.1-2.5,1.1c-1.4,0-2.5-0.5-2.5-1.1c0,0,0,0,0,0h0c0,0,0,0.1,0,0.4
				c0,0.6,1.1,1.1,2.5,1.1s2.5-0.5,2.5-1.1C7.6,12.6,7.6,12.6,7.6,12.5z"/>
			<path class="st15" d="M7.6,13.9c0,0.6-1.1,1.1-2.5,1.1c-1.4,0-2.5-0.5-2.5-1.1c0,0,0,0,0,0h0c0,0,0,0.1,0,0.4
				c0,0.6,1.1,1.1,2.5,1.1s2.5-0.5,2.5-1.1C7.6,14,7.6,14,7.6,13.9z"/>
		</g>
		<g>
			<path class="st15" d="M17.4,16.9c0,0.6-1.1,1.1-2.5,1.1s-2.5-0.5-2.5-1.1c0-0.3,0-0.4,0-0.4l4.9,0C17.4,16.6,17.4,16.7,17.4,16.9
				z"/>
			<linearGradient id="SVGID_18_" gradientUnits="userSpaceOnUse" x1="13.6227" y1="17.9598" x2="16.312" y2="15.2705">
				<stop  offset="0.1065" style="stop-color:#D5A32A"/>
				<stop  offset="0.2998" style="stop-color:#CD952B"/>
				<stop  offset="0.4628" style="stop-color:#E7D06A"/>
				<stop  offset="0.6923" style="stop-color:#D2A445"/>
				<stop  offset="0.9664" style="stop-color:#C17A2A"/>
			</linearGradient>
			<ellipse class="st22" cx="15" cy="16.6" rx="2.5" ry="1.1"/>
		</g>
		<g>
			<linearGradient id="SVGID_19_" gradientUnits="userSpaceOnUse" x1="9.6037" y1="17.7572" x2="14.5557" y2="17.7572">
				<stop  offset="0.1065" style="stop-color:#D5A32A"/>
				<stop  offset="0.2998" style="stop-color:#CD952B"/>
				<stop  offset="0.4628" style="stop-color:#E7D06A"/>
				<stop  offset="0.6923" style="stop-color:#D2A445"/>
				<stop  offset="0.9664" style="stop-color:#C17A2A"/>
			</linearGradient>
			<path class="st23" d="M14.6,18.8c0,0.6-1.1,1.1-2.5,1.1s-2.5-0.5-2.5-1.1c0-0.3,0-3.1,0-3.1l4.9,0C14.6,15.7,14.6,18.5,14.6,18.8
				z"/>
			<linearGradient id="SVGID_20_" gradientUnits="userSpaceOnUse" x1="10.7351" y1="17.01" x2="13.4244" y2="14.3206">
				<stop  offset="0.1065" style="stop-color:#D5A32A"/>
				<stop  offset="0.2998" style="stop-color:#CD952B"/>
				<stop  offset="0.4628" style="stop-color:#E7D06A"/>
				<stop  offset="0.6923" style="stop-color:#D2A445"/>
				<stop  offset="0.9664" style="stop-color:#C17A2A"/>
			</linearGradient>
			<ellipse class="st24" cx="12.1" cy="15.7" rx="2.5" ry="1.1"/>
			<path class="st15" d="M14.6,16c0,0.6-1.1,1.1-2.5,1.1c-1.4,0-2.5-0.5-2.5-1.1c0,0,0,0,0,0h0c0,0,0,0.1,0,0.4
				c0,0.6,1.1,1.1,2.5,1.1s2.5-0.5,2.5-1.1C14.6,16.1,14.6,16.1,14.6,16z"/>
			<path class="st15" d="M14.6,17.4c0,0.6-1.1,1.1-2.5,1.1c-1.4,0-2.5-0.5-2.5-1.1c0,0,0,0,0,0h0c0,0,0,0.1,0,0.4
				c0,0.6,1.1,1.1,2.5,1.1s2.5-0.5,2.5-1.1C14.6,17.5,14.6,17.4,14.6,17.4z"/>
			<path class="st15" d="M14.6,18c0,0.6-1.1,1.1-2.5,1.1c-1.4,0-2.5-0.5-2.5-1.1c0,0,0,0,0,0h0c0,0,0,0.1,0,0.4
				c0,0.6,1.1,1.1,2.5,1.1s2.5-0.5,2.5-1.1C14.6,18.2,14.6,18.1,14.6,18z"/>
			<path class="st15" d="M14.5,16.7c0,0.6-1.1,1.1-2.5,1.1c-1.4,0-2.5-0.5-2.5-1.1c0,0,0,0,0,0h0c0,0,0,0.1,0,0.4
				c0,0.6,1.1,1.1,2.5,1.1s2.5-0.5,2.5-1.1C14.5,16.8,14.5,16.8,14.5,16.7z"/>
		</g>
	</g>
</g>
<g id="Guide">
	<g>
	</g>
</g>
<g id="Coins_Large">
	<polygon class="st25" points="12.2,4.3 18.7,7.6 18.3,12.2 1.7,14.3 1.1,9.9 	"/>
	<g>
		<g>
			<path class="st15" d="M9.5,12.3c0,0.4-0.7,0.6-1.5,0.6s-1.5-0.3-1.5-0.6c0-0.2,0-0.2,0-0.2l3,0C9.5,12.1,9.5,12.1,9.5,12.3z"/>
			<linearGradient id="SVGID_21_" gradientUnits="userSpaceOnUse" x1="7.2165" y1="12.9201" x2="8.8535" y2="11.2831">
				<stop  offset="0.1065" style="stop-color:#D5A32A"/>
				<stop  offset="0.2998" style="stop-color:#CD952B"/>
				<stop  offset="0.4628" style="stop-color:#E7D06A"/>
				<stop  offset="0.6923" style="stop-color:#D2A445"/>
				<stop  offset="0.9664" style="stop-color:#C17A2A"/>
			</linearGradient>
			<ellipse class="st26" cx="8" cy="12.1" rx="1.5" ry="0.6"/>
		</g>
		<g>
			<path class="st15" d="M11.3,11.8c0,0.4-0.7,0.6-1.5,0.6c-0.8,0-1.5-0.3-1.5-0.6c0-0.2,0-0.2,0-0.2l3,0
				C11.3,11.6,11.3,11.7,11.3,11.8z"/>
			<linearGradient id="SVGID_22_" gradientUnits="userSpaceOnUse" x1="8.9324" y1="12.4641" x2="10.5694" y2="10.8271">
				<stop  offset="0.1065" style="stop-color:#D5A32A"/>
				<stop  offset="0.2998" style="stop-color:#CD952B"/>
				<stop  offset="0.4628" style="stop-color:#E7D06A"/>
				<stop  offset="0.6923" style="stop-color:#D2A445"/>
				<stop  offset="0.9664" style="stop-color:#C17A2A"/>
			</linearGradient>
			<ellipse class="st27" cx="9.8" cy="11.6" rx="1.5" ry="0.6"/>
		</g>
		<g>
			<path class="st15" d="M17.3,7.8c0,0.4-0.7,0.6-1.5,0.6c-0.8,0-1.5-0.3-1.5-0.6c0-0.2,0-0.2,0-0.2l3,0C17.3,7.6,17.3,7.7,17.3,7.8
				z"/>
			<linearGradient id="SVGID_23_" gradientUnits="userSpaceOnUse" x1="14.9324" y1="8.4641" x2="16.5694" y2="6.8271">
				<stop  offset="0.1065" style="stop-color:#D5A32A"/>
				<stop  offset="0.2998" style="stop-color:#CD952B"/>
				<stop  offset="0.4628" style="stop-color:#E7D06A"/>
				<stop  offset="0.6923" style="stop-color:#D2A445"/>
				<stop  offset="0.9664" style="stop-color:#C17A2A"/>
			</linearGradient>
			<ellipse class="st28" cx="15.8" cy="7.6" rx="1.5" ry="0.6"/>
		</g>
		<g>
			<path class="st15" d="M14.3,9.8c0,0.4-0.7,0.6-1.5,0.6c-0.8,0-1.5-0.3-1.5-0.6c0-0.2,0-0.2,0-0.2l3,0C14.3,9.6,14.3,9.7,14.3,9.8
				z"/>
			<linearGradient id="SVGID_24_" gradientUnits="userSpaceOnUse" x1="11.9324" y1="10.4641" x2="13.5694" y2="8.8271">
				<stop  offset="0.1065" style="stop-color:#D5A32A"/>
				<stop  offset="0.2998" style="stop-color:#CD952B"/>
				<stop  offset="0.4628" style="stop-color:#E7D06A"/>
				<stop  offset="0.6923" style="stop-color:#D2A445"/>
				<stop  offset="0.9664" style="stop-color:#C17A2A"/>
			</linearGradient>
			<ellipse class="st29" cx="12.8" cy="9.6" rx="1.5" ry="0.6"/>
		</g>
		<g>
			<path class="st15" d="M11.3,9.8c0,0.4-0.7,0.6-1.5,0.6c-0.8,0-1.5-0.3-1.5-0.6c0-0.2,0-0.2,0-0.2l3,0C11.3,9.6,11.3,9.7,11.3,9.8
				z"/>
			<linearGradient id="SVGID_25_" gradientUnits="userSpaceOnUse" x1="8.9324" y1="10.4641" x2="10.5694" y2="8.8271">
				<stop  offset="0.1065" style="stop-color:#D5A32A"/>
				<stop  offset="0.2998" style="stop-color:#CD952B"/>
				<stop  offset="0.4628" style="stop-color:#E7D06A"/>
				<stop  offset="0.6923" style="stop-color:#D2A445"/>
				<stop  offset="0.9664" style="stop-color:#C17A2A"/>
			</linearGradient>
			<ellipse class="st30" cx="9.8" cy="9.6" rx="1.5" ry="0.6"/>
		</g>
		<g>
			<path class="st15" d="M16.3,8.8c0,0.4-0.7,0.6-1.5,0.6c-0.8,0-1.5-0.3-1.5-0.6c0-0.2,0-0.2,0-0.2l3,0C16.3,8.6,16.3,8.7,16.3,8.8
				z"/>
			<linearGradient id="SVGID_26_" gradientUnits="userSpaceOnUse" x1="13.9324" y1="9.4641" x2="15.5694" y2="7.8271">
				<stop  offset="0.1065" style="stop-color:#D5A32A"/>
				<stop  offset="0.2998" style="stop-color:#CD952B"/>
				<stop  offset="0.4628" style="stop-color:#E7D06A"/>
				<stop  offset="0.6923" style="stop-color:#D2A445"/>
				<stop  offset="0.9664" style="stop-color:#C17A2A"/>
			</linearGradient>
			<ellipse class="st31" cx="14.8" cy="8.6" rx="1.5" ry="0.6"/>
		</g>
		<g>
			<path class="st15" d="M7.3,10.8c0,0.4-0.7,0.6-1.5,0.6s-1.5-0.3-1.5-0.6c0-0.2,0-0.2,0-0.2l3,0C7.3,10.6,7.3,10.7,7.3,10.8z"/>
			<linearGradient id="SVGID_27_" gradientUnits="userSpaceOnUse" x1="4.9324" y1="11.4641" x2="6.5694" y2="9.8271">
				<stop  offset="0.1065" style="stop-color:#D5A32A"/>
				<stop  offset="0.2998" style="stop-color:#CD952B"/>
				<stop  offset="0.4628" style="stop-color:#E7D06A"/>
				<stop  offset="0.6923" style="stop-color:#D2A445"/>
				<stop  offset="0.9664" style="stop-color:#C17A2A"/>
			</linearGradient>
			<ellipse class="st32" cx="5.8" cy="10.6" rx="1.5" ry="0.6"/>
		</g>
		<g>
			<path class="st15" d="M13.3,10.8c0,0.4-0.7,0.6-1.5,0.6c-0.8,0-1.5-0.3-1.5-0.6c0-0.2,0-0.2,0-0.2l3,0
				C13.3,10.6,13.3,10.7,13.3,10.8z"/>
			<linearGradient id="SVGID_28_" gradientUnits="userSpaceOnUse" x1="10.9324" y1="11.4641" x2="12.5694" y2="9.8271">
				<stop  offset="0.1065" style="stop-color:#D5A32A"/>
				<stop  offset="0.2998" style="stop-color:#CD952B"/>
				<stop  offset="0.4628" style="stop-color:#E7D06A"/>
				<stop  offset="0.6923" style="stop-color:#D2A445"/>
				<stop  offset="0.9664" style="stop-color:#C17A2A"/>
			</linearGradient>
			<ellipse class="st33" cx="11.8" cy="10.6" rx="1.5" ry="0.6"/>
		</g>
		<g>
			<path class="st15" d="M14.3,7.8c0,0.4-0.7,0.6-1.5,0.6c-0.8,0-1.5-0.3-1.5-0.6c0-0.2,0-0.2,0-0.2l3,0C14.3,7.6,14.3,7.7,14.3,7.8
				z"/>
			<linearGradient id="SVGID_29_" gradientUnits="userSpaceOnUse" x1="11.9324" y1="8.4641" x2="13.5694" y2="6.8271">
				<stop  offset="0.1065" style="stop-color:#D5A32A"/>
				<stop  offset="0.2998" style="stop-color:#CD952B"/>
				<stop  offset="0.4628" style="stop-color:#E7D06A"/>
				<stop  offset="0.6923" style="stop-color:#D2A445"/>
				<stop  offset="0.9664" style="stop-color:#C17A2A"/>
			</linearGradient>
			<ellipse class="st34" cx="12.8" cy="7.6" rx="1.5" ry="0.6"/>
		</g>
		<g>
			<path class="st15" d="M9.3,10.8c0,0.4-0.7,0.6-1.5,0.6s-1.5-0.3-1.5-0.6c0-0.2,0-0.2,0-0.2l3,0C9.3,10.6,9.3,10.7,9.3,10.8z"/>
			<linearGradient id="SVGID_30_" gradientUnits="userSpaceOnUse" x1="6.9324" y1="11.4641" x2="8.5694" y2="9.8271">
				<stop  offset="0.1065" style="stop-color:#D5A32A"/>
				<stop  offset="0.2998" style="stop-color:#CD952B"/>
				<stop  offset="0.4628" style="stop-color:#E7D06A"/>
				<stop  offset="0.6923" style="stop-color:#D2A445"/>
				<stop  offset="0.9664" style="stop-color:#C17A2A"/>
			</linearGradient>
			<ellipse class="st35" cx="7.8" cy="10.6" rx="1.5" ry="0.6"/>
		</g>
		<g>
			<path class="st15" d="M18.3,8.8c0,0.4-0.7,0.6-1.5,0.6c-0.8,0-1.5-0.3-1.5-0.6c0-0.2,0-0.2,0-0.2l3,0C18.3,8.6,18.3,8.7,18.3,8.8
				z"/>
			<linearGradient id="SVGID_31_" gradientUnits="userSpaceOnUse" x1="15.9324" y1="9.4641" x2="17.5694" y2="7.8271">
				<stop  offset="0.1065" style="stop-color:#D5A32A"/>
				<stop  offset="0.2998" style="stop-color:#CD952B"/>
				<stop  offset="0.4628" style="stop-color:#E7D06A"/>
				<stop  offset="0.6923" style="stop-color:#D2A445"/>
				<stop  offset="0.9664" style="stop-color:#C17A2A"/>
			</linearGradient>
			<ellipse class="st36" cx="16.8" cy="8.6" rx="1.5" ry="0.6"/>
		</g>
	</g>
	<polygon class="st15" points="7.6,19.6 18.7,14.1 18.7,8.5 7.6,14.1 	"/>
	<polygon class="st37" points="7.6,19.6 1.1,16.4 1.1,10.8 7.6,14.1 	"/>
	<polygon class="st38" points="1.1,10.8 7.6,14.1 18.7,8.5 18.7,7.6 7.6,13.1 1.1,9.9 	"/>
	<line class="st39" x1="7.6" y1="13.1" x2="7.6" y2="14.1"/>
	<g>
		<path class="st38" d="M13.1,2.6c0,0,1.1-0.6,1.9-0.6c1.9,0,3.7,1.9,3.7,1.9L7.6,9.4L4.3,9.2L2.6,7.8L13.1,2.6z"/>
		<path class="st15" d="M1.1,9.9V9c0,0,1.3-1.6,3-1.5s3.5,1.9,3.5,1.9v0.9L1.1,9.9z"/>
		<polygon class="st37" points="18.7,4.8 18.7,3.9 7.6,9.4 7.6,10.4 		"/>
	</g>
	<line class="st39" x1="5.7" y1="7.6" x2="15.9" y2="2.5"/>
	<line class="st39" x1="7.4" y1="8.7" x2="17.6" y2="3.6"/>
	<line class="st39" x1="6.6" y1="8.1" x2="16.8" y2="3"/>
	<line class="st39" x1="4.5" y1="7.3" x2="14.7" y2="2.2"/>
	<line class="st40" x1="1.3" y1="11.9" x2="6.9" y2="14.7"/>
	<line class="st40" x1="1.3" y1="13.1" x2="6.9" y2="16"/>
	<line class="st40" x1="1.3" y1="15.6" x2="6.9" y2="18.5"/>
	<line class="st40" x1="1.3" y1="14.4" x2="6.9" y2="17.2"/>
	<line class="st41" x1="18.3" y1="9.6" x2="8.1" y2="14.7"/>
	<line class="st41" x1="18.3" y1="10.9" x2="8.1" y2="16"/>
	<line class="st41" x1="18.3" y1="13.4" x2="8.1" y2="18.5"/>
	<line class="st41" x1="18.3" y1="12.1" x2="8.1" y2="17.2"/>
</g>
</svg>
