<svg xmlns="http://www.w3.org/2000/svg" viewBox="0 0 40 20"><g id="Water-TR"><polygon points="40 10 20 20 0 10 20 0 40 10" style="fill:#488fcd"/><g id="Layer_22" data-name="Layer 22"><polygon points="0 10 16.46 1.77 32.93 10 16.46 18.23 0 10" style="fill:#4fb848"/></g><g id="Layer_19_copy" data-name="Layer 19 copy"><polyline points="3.06 10.42 4.45 9.03 5.83 10.42 7.22 9.03 8.61 10.42 10 9.03 11.39 10.42 12.78 9.03 14.17 10.42" style="fill:none;stroke:#78c36a;stroke-miterlimit:10;stroke-width:0.100000001490116px"/><polyline points="13.66 7.54 15.05 6.15 16.44 7.54 17.83 6.15 19.22 7.54 20.61 6.15 21.99 7.54 23.38 6.15 24.77 7.54" style="fill:none;stroke:#78c36a;stroke-miterlimit:10;stroke-width:0.100000001490116px"/><polyline points="11.99 13.96 13.38 12.57 14.77 13.96 16.15 12.57 17.54 13.96 18.93 12.57 20.32 13.96 21.71 12.57 23.1 13.96" style="fill:none;stroke:#78c36a;stroke-miterlimit:10;stroke-width:0.100000001490116px"/></g><polygon points="16.46 18.23 20 20 32.93 13.55 32.93 10 16.46 18.23" style="fill:#555"/></g><g id="Border"><polygon points="0 10 20 20 40 10 20 0 0 10" style="fill:none;stroke:#999;stroke-miterlimit:10;stroke-width:0.100000001490116px"/></g></svg>