<svg xmlns="http://www.w3.org/2000/svg" viewBox="0 0 40 20"><g id="Water"><polygon points="40 10 20 20 0 10 20 0 40 10" style="fill:#488fcd"/><path d="M5.29,11.54c0,1,2,1,2,0s2-1,2,0,2,1,2,0,2-1,2,0,2,1,2,0,2-1,2,0" style="fill:none;stroke:#72c8f1;stroke-miterlimit:10;stroke-width:0.100000001490116px"/><path d="M12.38,4.84c0,1,2,1,2,0s2-1,2,0,2,1,2,0,2-1,2,0,2,1,2,0,2-1,2,0" style="fill:none;stroke:#72c8f1;stroke-miterlimit:10;stroke-width:0.100000001490116px"/><path d="M16.08,15c0,1,2,1,2,0s2-1,2,0,2,1,2,0,2-1,2,0,2,1,2,0,2-1,2,0" style="fill:none;stroke:#72c8f1;stroke-miterlimit:10;stroke-width:0.100000001490116px"/><path d="M22,9.4c0,1,2,1,2,0s2-1,2,0,2,1,2,0,2-1,2,0,2,1,2,0,2-1,2,0" style="fill:none;stroke:#72c8f1;stroke-miterlimit:10;stroke-width:0.100000001490116px"/></g><g id="Border"><polygon points="0 10 20 20 40 10 20 0 0 10" style="fill:none;stroke:#999;stroke-miterlimit:10;stroke-width:0.100000001490116px"/></g></svg>