<svg xmlns="http://www.w3.org/2000/svg" viewBox="0 0 50 50"><g id="Water"><rect width="50" height="50" style="fill:#488fcc"/></g><g id="BridgeNS_copy" data-name="BridgeNS copy"><rect x="11.56" y="1.88" width="26.88" height="46.23" transform="translate(50) rotate(90)" style="fill:#7d6d4d;stroke:#555;stroke-miterlimit:10"/><line x1="44.49" y1="14.55" x2="44.49" y2="36.1" style="fill:none;stroke:#8d8169;stroke-miterlimit:10"/><line x1="41.18" y1="14.55" x2="41.18" y2="36.1" style="fill:none;stroke:#8d8169;stroke-miterlimit:10"/><line x1="37.87" y1="14.55" x2="37.87" y2="36.1" style="fill:none;stroke:#8d8169;stroke-miterlimit:10"/><line x1="34.56" y1="14.55" x2="34.56" y2="36.1" style="fill:none;stroke:#8d8169;stroke-miterlimit:10"/><line x1="31.25" y1="14.55" x2="31.25" y2="36.1" style="fill:none;stroke:#8d8169;stroke-miterlimit:10"/><line x1="27.95" y1="14.55" x2="27.95" y2="36.1" style="fill:none;stroke:#8d8169;stroke-miterlimit:10"/><line x1="24.64" y1="14.55" x2="24.64" y2="36.1" style="fill:none;stroke:#8d8169;stroke-miterlimit:10"/><line x1="21.33" y1="14.55" x2="21.33" y2="36.1" style="fill:none;stroke:#8d8169;stroke-miterlimit:10"/><line x1="18.02" y1="14.55" x2="18.02" y2="36.1" style="fill:none;stroke:#8d8169;stroke-miterlimit:10"/><line x1="14.71" y1="14.55" x2="14.71" y2="36.1" style="fill:none;stroke:#8d8169;stroke-miterlimit:10"/><line x1="11.4" y1="14.55" x2="11.4" y2="36.1" style="fill:none;stroke:#8d8169;stroke-miterlimit:10"/><line x1="8.1" y1="14.55" x2="8.1" y2="36.1" style="fill:none;stroke:#8d8169;stroke-miterlimit:10"/><line x1="4.79" y1="15.02" x2="4.79" y2="36.56" style="fill:none;stroke:#8d8169;stroke-miterlimit:10"/></g></svg>