<?xml version="1.0" encoding="utf-8"?>
<!-- Generator: Adobe Illustrator 24.1.0, SVG Export Plug-In . SVG Version: 6.00 Build 0)  -->
<svg version="1.1" id="Layer_21" xmlns="http://www.w3.org/2000/svg" xmlns:xlink="http://www.w3.org/1999/xlink" x="0px" y="0px"
	 viewBox="0 0 20 20" style="enable-background:new 0 0 20 20;" xml:space="preserve">
<style type="text/css">
	.st0{fill:#E19D28;}
	.st1{fill:#ECB458;}
	.st2{fill:none;stroke:#444545;stroke-width:0.1;stroke-miterlimit:10;}
	.st3{fill:#985E26;}
	.st4{fill:#B1732A;}
</style>
<path class="st0" d="M10.8,6.8H9.4C8.5,6.8,7.7,7,6.9,7.4C6,7.9,5.4,8.6,5.1,9.6C5,10,4.9,10.4,4.9,10.8c0,3.4,3,5.1,4.4,5.8
	c-1.1-1.5-2-3.2-2.5-5c-0.1-0.8-0.2-1.5-0.1-2.3C8,9.1,9.2,9,10.5,9c1.2,0.1,3,0.3,4.6,0.6C14.7,7.7,12.8,6.4,10.8,6.8z"/>
<path class="st1" d="M10.6,9C9.3,9,8,9.1,6.8,9.4c-0.1,0.8,0,1.5,0.1,2.3c0.5,1.8,1.4,3.5,2.5,5c0.4,0.2,0.8,0.3,0.8,0.3
	s5.1-1.4,5.1-6.2c0-0.4,0-0.8-0.1-1.1C13.6,9.4,11.8,9.1,10.6,9z"/>
<path class="st2" d="M10.2,16.9c0,0-5.2-1.6-5.2-6c0-4.1,4.4-4,4.4-4h1.4c2-0.4,3.9,0.8,4.4,2.8c0.1,0.4,0.1,0.8,0.1,1.1
	C15.2,15.4,10.2,16.9,10.2,16.9z"/>
<path class="st3" d="M10.2,6.1c-0.2,0-0.3-0.1-0.3-0.3c0-2.6-1.8-2.7-1.9-2.7C7.9,3.1,7.8,3,7.8,2.8c0-0.2,0.1-0.3,0.3-0.3
	c0,0,2.4,0,2.4,3.2C10.5,6,10.4,6.1,10.2,6.1z"/>
<path class="st3" d="M7.9,5.7L6.7,5.8C4.5,6,4.6,8.7,4.6,8.7l2.2-0.3c0.1-0.5,0.2-1.1,0.4-1.6C7.4,6.4,7.6,6,7.9,5.7z"/>
<path class="st4" d="M15.7,8.7c0.1-1.4-0.8-2.6-2.1-2.9c-1.2-0.1-2.4-0.2-3.5-0.2c-0.7,0-1.5,0-2.2,0.1C7.6,6.1,7.4,6.5,7.2,7
	C7.1,7.5,6.9,8,6.9,8.5C8,8.4,9.5,8.2,10.4,8.2C12.2,8.3,14,8.4,15.7,8.7z"/>
</svg>
