<svg id="Layer_8_copy" data-name="Layer 8 copy" xmlns="http://www.w3.org/2000/svg" xmlns:xlink="http://www.w3.org/1999/xlink" viewBox="0 0 20 20"><defs><radialGradient id="radial-gradient" cx="10.03" cy="8.22" fx="0.7758426924372976" r="10.5" gradientUnits="userSpaceOnUse"><stop offset="0.06" stop-color="#efc2bf"/><stop offset="0.5" stop-color="#ef4137"/><stop offset="0.6" stop-color="#ea4137"/><stop offset="0.73" stop-color="#db4138"/><stop offset="0.86" stop-color="#c34038"/><stop offset="0.93" stop-color="#b34039"/></radialGradient></defs><ellipse cx="10.03" cy="8.22" rx="9.55" ry="11.38" style="stroke:#ef4137;stroke-miterlimit:10;stroke-width:0.10000000149011612px;fill:url(#radial-gradient)"/><path d="M10.86,19.25c6.79,5.32-.17,20.84,3.75,23.11" style="fill:none;stroke:#231f20;stroke-miterlimit:10;stroke-width:0.10000000149011612px"/><polygon points="10.95 19.15 9.6 20.77 11.91 21.16 10.95 19.15" style="fill:#ef4136;stroke:#231f20;stroke-miterlimit:10;stroke-width:0.10000000149011612px"/><path d="M4.38,9.65A7.1,7.1,0,0,0,5.44,9.1a1.85,1.85,0,0,1,1-.24,2,2,0,0,1,1.61,1c.07.14.29,0,.21-.12A2.19,2.19,0,0,0,6.6,8.62a2.09,2.09,0,0,0-1,.15c-.43.18-.8.49-1.24.64-.15.05-.09.29.07.24Z" style="fill:#231f20"/><path d="M12.24,9.89A2.15,2.15,0,0,1,14.11,9,2.62,2.62,0,0,1,16,9.87c.11.11.29-.06.18-.18C15.12,8.55,13,8.35,12,9.77c-.09.13.12.26.21.12Z" style="fill:#231f20"/><path d="M9.39,11.06c-.17.29-.32.58-.47.88a7.75,7.75,0,0,0-.39.89.55.55,0,0,0,.28.67,1.1,1.1,0,0,0,.87,0c.16-.05.09-.29-.06-.24a.85.85,0,0,1-.73,0c-.25-.16-.09-.44,0-.65a12.61,12.61,0,0,1,.72-1.42c.08-.14-.14-.27-.22-.13Z" style="fill:#231f20"/><path d="M6,15.22a3,3,0,0,0,2.79,1.61,5.72,5.72,0,0,0,2-.42,5.84,5.84,0,0,0,1.5-.8,2.87,2.87,0,0,0,1.05-1.47c0-.15-.19-.22-.24-.06a3.51,3.51,0,0,1-2.2,2,4.41,4.41,0,0,1-3.52.19,2.48,2.48,0,0,1-1.2-1.19c-.07-.15-.28,0-.22.12Z" style="fill:#231f20"/></svg>