<?xml version="1.0" encoding="utf-8"?>
<!-- Generator: Adobe Illustrator 24.1.0, SVG Export Plug-In . SVG Version: 6.00 Build 0)  -->
<svg version="1.1" id="Layer_8_copy" xmlns="http://www.w3.org/2000/svg" xmlns:xlink="http://www.w3.org/1999/xlink" x="0px"
	 y="0px" viewBox="0 0 20 20" style="enable-background:new 0 0 20 20;" xml:space="preserve">
<style type="text/css">
	.st0{fill:url(#SVGID_1_);stroke:#5691A2;stroke-width:0.1;stroke-miterlimit:10;}
	.st1{fill:#4C8C9E;stroke:#231F20;stroke-width:0.1;stroke-miterlimit:10;}
	.st2{fill:#231F20;}
</style>
<radialGradient id="SVGID_1_" cx="10.41" cy="587.47" r="9.5262" gradientTransform="matrix(1 0 0 1 0 -578)" gradientUnits="userSpaceOnUse">
	<stop  offset="6.000000e-02" style="stop-color:#BFD6DC"/>
	<stop  offset="0.5" style="stop-color:#92BFCC"/>
	<stop  offset="0.61" style="stop-color:#8DBAC7"/>
	<stop  offset="0.74" style="stop-color:#7FABB8"/>
	<stop  offset="0.87" style="stop-color:#6793A0"/>
	<stop  offset="0.93" style="stop-color:#5B8794"/>
</radialGradient>
<ellipse class="st0" cx="10.4" cy="9.5" rx="8.7" ry="10.3"/>
<polygon class="st1" points="11.2,19.4 10,20.9 12.1,21.2 "/>
<path class="st2" d="M6.9,11.1c-0.1,0.1-0.2,0.3-0.2,0.4c0,0.2,0.1,0.3,0.2,0.4c0.1,0.2,0.4,0.3,0.6,0.4c0.3,0,0.5-0.2,0.6-0.4
	c0.1-0.2,0.1-0.5,0-0.8c-0.1-0.2-0.4-0.4-0.6-0.5c-0.1,0-0.2,0-0.2,0c-0.1,0-0.1,0.1-0.2,0.1c-0.1,0.1-0.1,0.3,0,0.4h0.4v0.1l0,0
	c0.1-0.1,0.1-0.3-0.1-0.4c-0.1-0.1-0.2-0.1-0.3,0L6.9,11.1z"/>
<path class="st2" d="M12.1,10.6c-0.2,0.3-0.2,0.6,0,0.9c0.1,0.1,0.2,0.3,0.3,0.3c0.1,0.1,0.2,0.2,0.4,0.2c0.2,0,0.4,0,0.5-0.1
	c0.1-0.1,0.2-0.2,0.2-0.4c0-0.3-0.1-0.7-0.3-0.9c-0.2-0.3-0.5-0.5-0.9-0.5c-0.1,0-0.2,0.2-0.2,0.3c0,0.2,0.2,0.2,0.4,0.2l0,0
	c0,0,0,0.1,0,0.1h-0.2C12.2,10.7,12.2,10.6,12.1,10.6z"/>
<path class="st2" d="M6,7.9l2.3,1.6c0.1,0.1,0.3,0.1,0.4,0c0.1-0.1,0-0.3-0.1-0.4l0,0C7.8,8.5,7.1,8,6.3,7.5C6.2,7.4,6,7.4,5.9,7.5
	C5.8,7.6,5.8,7.8,6,7.9C5.9,7.9,5.9,7.9,6,7.9C5.9,7.9,6,7.9,6,7.9z"/>
<path class="st2" d="M11.7,9.5c1.1-0.4,2.2-1,3.1-1.8C15,7.4,14.6,7,14.3,7.3c-0.8,0.8-1.8,1.3-2.8,1.6c-0.1,0-0.2,0.2-0.2,0.3
	c0,0,0,0,0,0l0,0C11.4,9.4,11.5,9.5,11.7,9.5z"/>
<path class="st2" d="M9.6,13.2v1.4c0,0.1,0,0.2,0,0.3C9.6,15,9.7,15,9.8,15.1c0.2,0,0.5,0,0.7,0c0.2,0,0.3-0.1,0.3-0.3
	c0-0.2-0.1-0.3-0.3-0.3c0,0,0,0,0,0H10v-1.4c0-0.1-0.1-0.1-0.2-0.1C9.7,12.9,9.5,13.1,9.6,13.2L9.6,13.2z"/>
<g>
	<g>
		<path class="st2" d="M8.1,17c0.4,0.4,0.8,0.6,1.3,0.7c0.5,0.1,1.1,0.1,1.6,0c1-0.2,1.9-0.9,2.1-1.9c0-0.2-0.2-0.2-0.2-0.1
			c-0.1,0.9-1,1.5-1.9,1.7c-0.5,0.1-1,0.1-1.5,0c-0.5-0.1-0.9-0.2-1.2-0.6C8.1,16.7,8,16.8,8.1,17L8.1,17z"/>
	</g>
</g>
</svg>
