<svg id="Layer_8_copy" data-name="Layer 8 copy" xmlns="http://www.w3.org/2000/svg" xmlns:xlink="http://www.w3.org/1999/xlink" viewBox="0 0 20 20"><defs><radialGradient id="radial-gradient" cx="10.4" cy="12.66" r="9.28" gradientTransform="matrix(1, 0, 0, -1, 0, 22)" gradientUnits="userSpaceOnUse"><stop offset="0.06" stop-color="#dbbedc"/><stop offset="0.5" stop-color="#b485bc"/><stop offset="0.66" stop-color="#b080b9"/><stop offset="0.84" stop-color="#a371b1"/><stop offset="0.93" stop-color="#9b68ac"/></radialGradient></defs><g id="Layer_8_copy_2" data-name="Layer 8 copy 2"><ellipse cx="10.4" cy="9.34" rx="8.44" ry="10.05" style="stroke:#8e55a2;stroke-miterlimit:10;stroke-width:0.10000000149011612px;fill:url(#radial-gradient)"/><polygon points="11.21 19 10.02 20.43 12.05 20.77 11.21 19" style="fill:#8d4c9e;stroke:#231f20;stroke-miterlimit:10;stroke-width:0.10000000149011612px"/><path d="M5.71,10.16a.73.73,0,0,0-.13.55.51.51,0,0,0,.13.24h.38a.46.46,0,0,0,.26-.15l.16-.2a.65.65,0,0,0,0-.51.64.64,0,0,0-.29-.37H6a.57.57,0,0,0-.26,0,.52.52,0,0,0-.29.68,1,1,0,0,0,0,.24v.23a.72.72,0,0,0,.24.19.48.48,0,0,0,.29,0,.56.56,0,0,0,.51-.28.34.34,0,0,0,0-.2.42.42,0,0,0,.11-.18.34.34,0,0,0-.2,0H6.18a.15.15,0,0,1,0-.13v.13h0a.29.29,0,0,1,0,.13h0v.11a.11.11,0,0,1,0-.11h0a.38.38,0,0,1,0-.15.28.28,0,0,0,0-.22.22.22,0,0,0,0-.16A.3.3,0,0,0,6,10a.55.55,0,0,0-.17.14Z" style="fill:#231f20"/><path d="M4.54,9.5,5.4,8.41l.42-.55L6,7.62s.15-.25.24-.29H6c.13,0,.28.24.39.33L6.71,8a7.14,7.14,0,0,0,.77.55,5.22,5.22,0,0,0,1.74.64A.28.28,0,0,0,9.56,9a.29.29,0,0,0-.2-.34,4.92,4.92,0,0,1-1.55-.44A9.08,9.08,0,0,1,6.42,7.11a.47.47,0,0,0-.64,0,3.66,3.66,0,0,0-.51.68L4.05,9.41c-.2.28.27.55.49.26Z" style="fill:#231f20"/><path d="M11.83,9.56a.41.41,0,0,0-.31.42.41.41,0,0,0,0,.22.37.37,0,0,0,.31.2h.42a.78.78,0,0,0,.16-.24.71.71,0,0,0,0-.29.54.54,0,0,0-.29-.42.37.37,0,0,0-.38,0,.44.44,0,0,0-.19.29.41.41,0,0,0,0,.22v.13a.15.15,0,0,0,0,.13.49.49,0,0,0,.22.18.57.57,0,0,0,.26,0,.53.53,0,0,0,.35,0l.18-.18a.62.62,0,0,0,0-.33.43.43,0,0,0-.2-.26.23.23,0,0,0-.2,0,.31.31,0,0,0-.17.13.34.34,0,0,0,0,.2.26.26,0,0,0,.13.18h0a.22.22,0,0,1,0-.16h0a.38.38,0,0,0,.18-.13.41.41,0,0,0,0-.22A.27.27,0,0,0,12,9.45h0Z" style="fill:#231f20"/><path d="M11.7,8.74c.13-.24.35-.68.64-.75h1a8.65,8.65,0,0,0,2.21-.17.3.3,0,0,0,.09-.4.3.3,0,0,0-.25-.13A9.14,9.14,0,0,1,13,7.44a2,2,0,0,0-1.08.13,2.24,2.24,0,0,0-.69.89.27.27,0,0,0,.47.28Z" style="fill:#231f20"/><path d="M8.65,14.18a.9.9,0,0,0,1,.64,1,1,0,0,0,.53-.35,1.49,1.49,0,0,0,.29-.67.29.29,0,0,0-.29-.26.27.27,0,0,0-.27.26H9.36A.27.27,0,0,0,9,13.6H9a.27.27,0,0,0-.2.33Z" style="fill:#231f20"/><path d="M7.79,16.19a.6.6,0,0,0,.46.53,4.69,4.69,0,0,0,.86-.2,3.62,3.62,0,0,1,1.18.11,7.88,7.88,0,0,0,1.19,0,2.62,2.62,0,0,0,1.86-.44,3.16,3.16,0,0,0,.9-1.37c.11-.35-.42-.48-.53-.15a2.88,2.88,0,0,1-.57,1.21,2,2,0,0,1-1.51.38A15.8,15.8,0,0,1,9.82,16,2.62,2.62,0,0,0,9,16l-.62.2c0-.35-.6-.35-.56,0Z" style="fill:#231f20"/></g></svg>