<svg id="Layer_8_copy" data-name="Layer 8 copy" xmlns="http://www.w3.org/2000/svg" xmlns:xlink="http://www.w3.org/1999/xlink" viewBox="0 0 20 20"><defs><radialGradient id="radial-gradient" cx="10.19" cy="12.43" r="9.26" gradientTransform="matrix(1, 0, 0, -1, 0, 22)" gradientUnits="userSpaceOnUse"><stop offset="0.06" stop-color="#f8f9e2"/><stop offset="0.5" stop-color="#cfdc28"/><stop offset="0.65" stop-color="#cbd72a"/><stop offset="0.83" stop-color="#c0c830"/><stop offset="0.93" stop-color="#b8bd35"/></radialGradient></defs><ellipse cx="10.19" cy="9.57" rx="8.42" ry="10.03" style="stroke:#a0a154;stroke-miterlimit:10;stroke-width:0.10000000149011612px;fill:url(#radial-gradient)"/><polygon points="11 19.21 9.81 20.64 11.84 20.97 11 19.21" style="fill:#c3cf44;stroke:#231f20;stroke-miterlimit:10;stroke-width:0.10000000149011612px"/><path d="M4.79,9.4a2.67,2.67,0,0,1,1.49-.29A3,3,0,0,1,7,9.29l.4.17.18.14h0a.25.25,0,0,0,.24.28h0a.31.31,0,0,0,.29-.28c0-.36-.44-.58-.73-.73a2.94,2.94,0,0,0-1-.31,3.06,3.06,0,0,0-2,.35c-.3.18,0,.64.29.47Z" style="fill:#231f20"/><path d="M14.75,9.13a1.19,1.19,0,0,0-.86-.44l-1.25-.26a2.69,2.69,0,0,0-1.13,0c-.37,0-.57.42-.9.55a.25.25,0,0,0,0,.37h0a.27.27,0,0,0,.37,0c.27,0,.44-.39.73-.5a2.17,2.17,0,0,1,.88,0l1,.17h.48a.37.37,0,0,1,.29.16c.17.31.66,0,.48-.29Z" style="fill:#231f20"/><path d="M11.05,10.63a.7.7,0,0,0,0,1,1,1,0,0,0,.44.27,1,1,0,0,0,.55,0c.22,0,.31-.25.4-.44a2.35,2.35,0,0,0,0-.53.8.8,0,0,0-.27-.53.83.83,0,0,0-.46-.22,1.94,1.94,0,0,0-.68,0,.66.66,0,0,0-.31.13.35.35,0,0,0,0,.37.24.24,0,0,0,.13.18.34.34,0,0,0,.2,0,.26.26,0,0,0,.2-.33h.57v.13h0v.29h-.33a.28.28,0,0,0-.4-.4Z" style="fill:#231f20"/><path d="M6.9,10.79a.64.64,0,0,0-.45.78v0a1.21,1.21,0,0,0,.82.69.75.75,0,0,0,1-.39h0a1.1,1.1,0,0,0,0-.57A1.11,1.11,0,0,0,8,10.85a.72.72,0,0,0-.59-.22.55.55,0,0,0-.53.27.29.29,0,0,0,.14.38.29.29,0,0,0,.39-.14h.15a.38.38,0,0,1,0,.15H7.23a.21.21,0,0,0,.16-.13.23.23,0,0,0,0-.2.49.49,0,0,0,0-.17.22.22,0,0,0-.22,0Z" style="fill:#231f20"/><path d="M8.49,13.1a1.13,1.13,0,0,0-.18.82c0,.33.4.46.71.55A1.28,1.28,0,0,0,10.56,14a.83.83,0,0,0,0-.93.29.29,0,0,0-.37,0,.26.26,0,0,0,0,.38h0L9.61,14H9v-.18H9a.28.28,0,0,0-.11-.37.26.26,0,0,0-.37,0h0Z" style="fill:#231f20"/><path d="M7.41,17.25c.29.64,1.32.77,1.94.79a5.56,5.56,0,0,0,2.47-.57A12.46,12.46,0,0,0,14,16.1c.47-.35,1-1,.4-1.52s-.66.18-.37.4-.84,1-1.06,1.19a9.84,9.84,0,0,1-1.55.88,4.76,4.76,0,0,1-1.83.42,3.7,3.7,0,0,1-.94,0,.78.78,0,0,1-.73-.42C7.83,16.76,7.41,16.89,7.41,17.25Z" style="fill:#231f20"/></svg>