<svg id="Bowl" xmlns="http://www.w3.org/2000/svg" xmlns:xlink="http://www.w3.org/1999/xlink" viewBox="0 0 20.1 14.66"><defs><linearGradient id="linear-gradient" x1="10" y1="3.12" x2="10" y2="11.55" gradientTransform="matrix(1, 0, 0, -1, 0, 22)" gradientUnits="userSpaceOnUse"><stop offset="0" stop-color="#9c9c9c"/><stop offset="0.58" stop-color="#fff"/></linearGradient><linearGradient id="linear-gradient-2" x1="10.02" y1="10.65" x2="10.02" y2="12.95" gradientTransform="matrix(1, 0, 0, -1, 0.05, 17.14)" gradientUnits="userSpaceOnUse"><stop offset="0" stop-color="#9c9c9c"/><stop offset="0.74" stop-color="#fff"/></linearGradient></defs><ellipse cx="10.06" cy="13.49" rx="4.61" ry="1.12" style="fill:#fff;stroke:#444545;stroke-miterlimit:10;stroke-width:0.10000000149011612px"/><path d="M0,10.45c.13,4.67,4.54,8.43,10,8.43s9.84-3.76,10-8.43Z" transform="translate(0.05 -4.86)" style="stroke:#444545;stroke-miterlimit:10;stroke-width:0.10000000149011612px;fill:url(#linear-gradient)"/><ellipse cx="10.07" cy="5.34" rx="9.03" ry="1.15" style="stroke:#444545;stroke-miterlimit:10;stroke-width:0.10000000149011612px;fill:url(#linear-gradient-2)"/><path d="M10,8.76c-5.52,0-10,.72-10,1.61S4.48,12,10,12s10-.72,10-1.61S15.52,8.76,10,8.76Zm0,2.59c-5,0-9-.52-9-1.15s4-1.15,9-1.15,9,.52,9,1.15S15,11.35,10,11.35Z" transform="translate(0.05 -4.86)" style="fill:#ddd;stroke:#444545;stroke-miterlimit:10;stroke-width:0.10000000149011612px"/><path d="M16.59,9.92a22.91,22.91,0,0,1-2.2.7,27.86,27.86,0,0,1-3-.58,17.25,17.25,0,0,0-2.56.49c-.49.14-1.91-.49-2.26-.54a10.75,10.75,0,0,0-1.86.37,10.44,10.44,0,0,0-2.37-.09.59.59,0,0,0-.43.42,40.48,40.48,0,0,0,8,.62c4.12,0,7.58-.35,8.67-.83a4.15,4.15,0,0,0-.61-.14C17.87,10.34,16.85,9.94,16.59,9.92Z" transform="translate(0.05 -4.86)" style="fill:#eadc1a"/><path d="M3.82,10.61H4.1a2.26,2.26,0,0,0,.52,0l.17-.08c-.22-1-.91-4-1.1-4.76a.92.92,0,0,0-1-.81L2.47,5c-.64.24-.4,1.29-.4,1.29l1.75,4.34Z" transform="translate(0.05 -4.86)" style="fill:#808285"/><path d="M4.1,10.64a2.26,2.26,0,0,0,.52,0A1.93,1.93,0,0,0,5,10.45c-.23-1-.92-4-1.1-4.77a1,1,0,0,0-1.17-.8l-.08,0c-.65.24-.4,1.29-.4,1.29L4,10.63Z" transform="translate(0.05 -4.86)" style="fill:#a7a9ac"/></svg>