<?xml version="1.0" encoding="utf-8"?>
<!-- Generator: Adobe Illustrator 24.1.0, SVG Export Plug-In . SVG Version: 6.00 Build 0)  -->
<svg version="1.1" id="Layer_25" xmlns="http://www.w3.org/2000/svg" xmlns:xlink="http://www.w3.org/1999/xlink" x="0px" y="0px"
	 viewBox="0 0 20 20" style="enable-background:new 0 0 20 20;" xml:space="preserve">
<style type="text/css">
	.st0{fill:url(#SVGID_1_);}
	.st1{fill:url(#SVGID_2_);}
	.st2{fill:url(#SVGID_3_);}
	.st3{opacity:0.6;}
	.st4{fill:#BB9D65;}
	.st5{opacity:0.6;fill:#BB9D65;enable-background:new    ;}
	.st6{opacity:0.2;}
	.st7{fill:#434343;}
</style>
<g id="Layer_1">
	
		<linearGradient id="SVGID_1_" gradientUnits="userSpaceOnUse" x1="12.774" y1="588.2081" x2="12.774" y2="593.0832" gradientTransform="matrix(1 0 0 1 0 -578)">
		<stop  offset="0" style="stop-color:#EF9E50"/>
		<stop  offset="1" style="stop-color:#CF8845"/>
	</linearGradient>
	<path class="st0" d="M8.6,15l1.2,1.7c0,0,5.5-2.7,6.2-3.1c0.7-0.4,0.8-0.6,0.9-0.8s0-3.6,0-4c-2.2,1.2-4.9,1.3-6.7,3
		C9.4,12.8,8.9,13.8,8.6,15z"/>
	
		<linearGradient id="SVGID_2_" gradientUnits="userSpaceOnUse" x1="10.463" y1="582.3629" x2="10.463" y2="589.1904" gradientTransform="matrix(1 0 0 1 0 -578)">
		<stop  offset="0.13" style="stop-color:#EF8650"/>
		<stop  offset="0.77" style="stop-color:#A95528"/>
		<stop  offset="1" style="stop-color:#C86128"/>
	</linearGradient>
	<path class="st1" d="M17.3,7.5c0-1.2-1.4-1.7-3.1-2.2C13,5,11.8,4.9,10.5,5.1c-0.7,0.2-1.4,0.5-2,0.8C8.2,6.2,3.7,7.8,3.7,7.8
		L3.6,7.8l5,7.2c0.2-1.1,0.8-2.2,1.6-3c1.8-1.7,4.4-1.8,6.7-3l0,0C17.2,8.5,17.3,8,17.3,7.5z"/>
	
		<linearGradient id="SVGID_3_" gradientUnits="userSpaceOnUse" x1="3.9059" y1="586.4709" x2="11.3033" y2="595.348" gradientTransform="matrix(1 0 0 1 0 -578)">
		<stop  offset="0" style="stop-color:#FADCA3"/>
		<stop  offset="1" style="stop-color:#E0C692"/>
	</linearGradient>
	<path class="st2" d="M3,8.3C2.9,8.6,2.8,8.9,2.9,9.2c0,0.5,0.4,0.8,0.6,1.2c0.1,0.4,0.2,0.8,0.1,1.3c0,0.7,0,1.4,0,2.1
		c0,0.4,0,1.3,0.3,1.6c0.4,0.3,0.8,0.4,1.3,0.5c0.9,0.2,1.8,0.5,2.7,0.6c0.4,0.1,0.8,0.1,1.2,0.2c0.3,0.1,0.5,0,0.8-0.1
		c0.2-0.2,0.3-0.4,0.3-0.7c0-0.4,0-0.8,0-1.2c0-0.9,0-1.9,0-2.8c0,0,0.2-0.2,0.2-0.2c0.1-0.2,0.2-0.4,0.3-0.6c0.1-0.5,0.1-1,0-1.5
		C10.3,9,9.7,8.6,8.9,8.5C8.4,8.5,8,8.4,7.4,8.4C6.9,8.3,6.3,8.2,5.7,8C5.2,7.8,4.6,7.7,4.1,7.7C3.6,7.7,3.2,7.9,3,8.3z"/>
	<g class="st3">
		<path class="st4" d="M4.8,10.4c0-0.2,0.2-0.5,0.4-0.3c0.2,0.2,0.2,0.4,0.1,0.4C5.2,10.6,4.8,10.8,4.8,10.4z"/>
	</g>
	<path class="st5" d="M5.6,11.1c0.1,0.1,0.2,0,0.2,0s0.2-0.1,0-0.2c-0.1,0-0.2,0-0.2,0.1C5.6,11,5.6,11,5.6,11.1z"/>
	<path class="st5" d="M3.9,9.9c0,0.1,0.2,0,0.2,0s0.1-0.1,0-0.1C4,9.7,4,9.8,3.9,9.9C3.9,9.9,3.9,9.9,3.9,9.9z"/>
	<path class="st5" d="M5.4,9.2c0,0.1,0.1,0.1,0.1,0.1s0.2,0,0.1-0.1C5.6,9.1,5.5,9.1,5.4,9.2C5.5,9.1,5.4,9.1,5.4,9.2z"/>
	<path class="st5" d="M8.1,11.2c0,0.1,0.1,0.1,0.1,0.1s0.2,0,0.1-0.1C8.3,11.1,8.2,11.1,8.1,11.2C8.1,11.1,8.1,11.1,8.1,11.2z"/>
	<path class="st5" d="M9.3,13.1c0,0.1,0.2,0,0.2,0s0.1-0.1,0-0.1C9.4,12.9,9.3,13,9.3,13.1C9.3,13,9.3,13.1,9.3,13.1z"/>
	<path class="st5" d="M6,13.6c0,0.1,0.2,0,0.2,0s0.1-0.1,0-0.1C6.1,13.4,6,13.5,6,13.6C6,13.6,6,13.6,6,13.6z"/>
	<path class="st5" d="M6.6,15c0,0.1,0.1,0.1,0.1,0.1s0.1,0,0.1-0.1C6.8,15,6.8,14.9,6.6,15C6.7,14.9,6.6,15,6.6,15z"/>
	<path class="st5" d="M8.2,14c0.1,0,0-0.2,0-0.2s0-0.1-0.1,0C8.1,13.9,8.1,14,8.2,14C8.1,14,8.2,14,8.2,14z"/>
	<path class="st5" d="M4.5,15.3c0.1,0,0-0.1,0-0.1s0-0.1-0.1,0C4.3,15.3,4.4,15.3,4.5,15.3C4.4,15.3,4.5,15.4,4.5,15.3z"/>
	<path class="st5" d="M8.8,13.9C8.9,13.9,8.9,13.8,8.8,13.9c0.1-0.1,0.1-0.2,0.1-0.1c0,0-0.1,0-0.1,0C8.7,13.8,8.7,13.8,8.8,13.9
		L8.8,13.9z"/>
	<path class="st5" d="M6.2,12.5c0.1,0.1,0.2,0,0.2,0s0.1-0.1,0-0.1C6.2,12.4,6.1,12.5,6.2,12.5z"/>
	<path class="st5" d="M8.6,9.9c0.1,0.1,0.2,0,0.2,0s0.1-0.1,0-0.1C8.7,9.8,8.7,9.8,8.6,9.9C8.6,9.9,8.6,9.9,8.6,9.9z"/>
	<path class="st5" d="M9,12.3c0.1,0.1,0.2,0,0.2,0s0.1-0.1,0-0.1C9.1,12.2,9,12.2,9,12.3C9,12.3,9,12.3,9,12.3z"/>
	<path class="st5" d="M6.2,10c0.1,0.1,0.2,0,0.2,0s0.1-0.1,0-0.1C6.3,9.9,6.2,9.9,6.2,10C6.2,10,6.2,10,6.2,10z"/>
	<path class="st5" d="M8.2,11.5L8.2,11.5L8.2,11.5C8.2,11.4,8.2,11.4,8.2,11.5C8.1,11.4,8.1,11.4,8.2,11.5z"/>
	<path class="st5" d="M3.8,10.7c0.1,0.1,0.1,0,0.1,0s0.1-0.1,0-0.1c0,0-0.1,0-0.1,0C3.8,10.6,3.8,10.7,3.8,10.7z"/>
	<path class="st5" d="M4.6,12c0.1,0.1,0.2,0,0.2,0s0.1-0.1,0-0.1C4.7,11.9,4.6,11.9,4.6,12C4.6,12,4.6,12,4.6,12z"/>
	<path class="st5" d="M9,10.8c0,0.1,0.1,0,0.1,0s0.1-0.1,0-0.1C9,10.6,9,10.7,9,10.8C9,10.8,9,10.8,9,10.8z"/>
	<path class="st5" d="M4.5,13.3c0.2,0.1,0.2-0.2,0.2-0.2s0-0.3-0.2-0.2C4.4,13,4.4,13.2,4.5,13.3C4.5,13.3,4.5,13.3,4.5,13.3z"/>
	<g class="st3">
		<path class="st4" d="M5.6,14c0.1,0.2,0,0.7-0.4,0.6s-0.5-0.4-0.3-0.5S5.4,13.5,5.6,14z"/>
	</g>
	<path class="st5" d="M7.1,12.5c-0.2,0.1,0.1,0.3,0.1,0.3s0.2,0.2,0.2-0.1c0-0.1-0.1-0.2-0.2-0.2C7.2,12.4,7.1,12.5,7.1,12.5z"/>
	<path class="st5" d="M8.9,13.6c-0.3,0-0.1,0.3-0.1,0.3S8.8,14.2,9,14c0.1-0.1,0.1-0.2,0-0.3C9,13.6,8.9,13.6,8.9,13.6z"/>
	<g class="st6">
		<path class="st7" d="M11.7,5.3c0.8,0,1.5,0.1,2.3,0.3c1.8,0.5,2.8,1,2.8,1.9c0,0.4,0,0.8-0.2,1.1c-0.1,0.1-0.1,0.1-0.1,0.2
			c0,1.4,0.1,3.6,0,3.9c0,0,0,0.2-0.7,0.5c-0.7,0.3-5.3,2.6-6.1,3c-0.1,0-0.1,0-0.2,0c0,0,0,0-0.2,0H9.1c-0.4,0-0.8-0.1-1.2-0.2
			c-0.8-0.2-1.6-0.4-2.4-0.6H5.2c-0.4-0.1-0.8-0.2-1.2-0.4c-0.2-0.2-0.2-0.9-0.2-1.2v-0.1c0-0.3,0-0.7,0-1v-1c0-0.1,0-0.2,0-0.3
			c0.1-0.4,0-0.8-0.1-1.2C3.6,10.1,3.5,10,3.4,9.8C3.3,9.6,3.2,9.4,3.2,9.2c0-0.2,0-0.5,0.1-0.7c0.1-0.2,0.2-0.3,0.4-0.4
			c1.7-0.6,3.4-1.2,5-1.9c0.6-0.3,1.2-0.5,1.9-0.7C11,5.4,11.4,5.4,11.7,5.3 M11.8,5.1c-0.4,0-0.8,0-1.2,0.1C9.8,5.3,9.2,5.6,8.5,6
			C8.2,6.3,3.7,7.9,3.7,7.9C3.4,8,3.2,8.2,3.1,8.4C3,8.7,2.9,9,3,9.3c0,0.5,0.4,0.8,0.6,1.2c0.1,0.4,0.2,0.8,0.1,1.3
			c0,0.7,0,1.4,0,2.1c0,0.4,0,1.3,0.3,1.6c0.4,0.2,0.8,0.4,1.2,0.5c0.9,0.2,1.8,0.5,2.7,0.6c0.4,0.1,0.8,0.1,1.2,0.2h0.4
			c0.1,0,0.3,0,0.4-0.1l0,0c0,0,5.6-2.7,6.3-3c0.7-0.4,0.8-0.6,0.9-0.8s0-4,0-4c0.3-0.4,0.4-0.9,0.4-1.4c-0.1-1.2-1.4-1.7-3.1-2.2
			C13.4,5.1,12.6,5,11.8,5.1L11.8,5.1z"/>
	</g>
</g>
</svg>
