<?xml version="1.0" encoding="utf-8"?>
<!-- Generator: Adobe Illustrator 24.1.0, SVG Export Plug-In . SVG Version: 6.00 Build 0)  -->
<svg version="1.1" id="Layer_31" xmlns="http://www.w3.org/2000/svg" xmlns:xlink="http://www.w3.org/1999/xlink" x="0px" y="0px"
	 viewBox="0 0 20 20" style="enable-background:new 0 0 20 20;" xml:space="preserve">
<style type="text/css">
	.st0{fill:none;}
	.st1{fill:#BBBBBB;stroke:#444545;stroke-width:0.1;stroke-miterlimit:10;}
	.st2{fill:none;stroke:#DDDDDD;stroke-width:0.1;stroke-miterlimit:10;}
	.st3{fill:#DDDDDD;}
</style>
<polygon class="st0" points="8.3,12.4 8.3,12.4 8.2,12.4 "/>
<polygon class="st0" points="8.3,10.3 8.3,10.3 8.2,10.3 "/>
<path class="st1" d="M13.3,5.9c0-2-1.6-3.5-3.5-3.5S6.2,3.9,6.2,5.9c0,1.4,0.8,2.7,2.1,3.2v0.4l1,1l-1,1.1l0,0l1,1.1l-1,1l0,0l1,1.1
	l-1,1l0,0l1.4,1.8l1.4-1.7V9.1C12.5,8.6,13.3,7.3,13.3,5.9z M9.8,3.4c0.5,0,0.9,0.4,0.9,0.9c0,0.5-0.4,0.9-0.9,0.9
	c-0.5,0-0.9-0.4-0.9-0.9c0,0,0,0,0,0C8.9,3.8,9.3,3.4,9.8,3.4C9.8,3.4,9.8,3.4,9.8,3.4z"/>
<ellipse class="st2" cx="9.8" cy="5.9" rx="3.1" ry="3.1"/>
<polygon class="st3" points="10.8,15.8 10.3,16.4 10.3,9.6 10.8,9.6 "/>
</svg>
