<svg enable-background="new 0 0 20 20" viewBox="0 0 20 20" xmlns="http://www.w3.org/2000/svg"><path d="m8.3 12.4h-.1z" fill="none"/><path d="m8.3 10.3h-.1z" fill="none"/><path d="m13.3 5.9c0-2-1.6-3.5-3.5-3.5s-3.6 1.5-3.6 3.5c0 1.4.8 2.7 2.1 3.2v.4l1 1-1 1.1 1 1.1-1 1 1 1.1-1 1 1.4 1.8 1.4-1.7v-6.8c1.4-.5 2.2-1.8 2.2-3.2zm-3.5-2.5c.5 0 .9.4.9.9s-.4.9-.9.9-.9-.4-.9-.9c0-.5.4-.9.9-.9z" fill="#dbb72c" stroke="#444545" stroke-miterlimit="10" stroke-width=".1"/><ellipse cx="9.8" cy="5.9" fill="none" rx="3.1" ry="3.1" stroke="#777777" stroke-miterlimit="10" stroke-width=".1"/><path d="m10.8 15.8-.5.6v-6.8h.5z" fill="#777777"/></svg>