<?xml version="1.0" encoding="utf-8"?>
<!-- Generator: Adobe Illustrator 24.1.0, SVG Export Plug-In . SVG Version: 6.00 Build 0)  -->
<svg version="1.1" id="Layer_28" xmlns="http://www.w3.org/2000/svg" xmlns:xlink="http://www.w3.org/1999/xlink" x="0px" y="0px"
	 viewBox="0 0 20 20" style="enable-background:new 0 0 20 20;" xml:space="preserve">
<style type="text/css">
	.st0{fill:#EADC1A;stroke:#C99A2C;stroke-width:0.2;stroke-linecap:round;stroke-miterlimit:10;}
	.st1{fill:#615D28;stroke:#C99A2C;stroke-width:0.2;stroke-miterlimit:10;}
</style>
<path class="st0" d="M5,6.7c-2.1,3.9-0.7,8.8,3.2,11c0,0,0,0,0,0l0.1,0.1l1.9-3.6l0,0c-1.9-1-2.7-3.4-1.7-5.4c1-1.9,3.4-2.7,5.4-1.7
	l0,0l0,0L16,3.6L16,3.5C12.1,1.4,7.2,2.8,5,6.7C5.1,6.7,5,6.7,5,6.7z"/>
<ellipse transform="matrix(0.4771 -0.8789 0.8789 0.4771 -9.1029 16.6293)" class="st1" cx="9.4" cy="16" rx="2.1" ry="0.9"/>
<ellipse transform="matrix(0.4771 -0.8789 0.8789 0.4771 3.245 16.1391)" class="st1" cx="15.2" cy="5.3" rx="2.1" ry="0.9"/>
</svg>
