<svg id="Bridge_EW" data-name="Bridge EW" xmlns="http://www.w3.org/2000/svg" viewBox="0 0 40 20"><polygon points="40 10 20 20 0 10 20 0 40 10" style="fill:#488fcd"/><path d="M5.66,11.26c0,1,2,1,2,0s2-1,2,0,2,1,2,0,2-1,2,0,2,1,2,0,2-1,2,0" style="fill:none;stroke:#72c8f1;stroke-miterlimit:10;stroke-width:0.100000001490116px"/><path d="M21.45,8.57c0,1,2,1,2,0s2-1,2,0,2,1,2,0,2-1,2,0,2,1,2,0,2-1,2,0" style="fill:none;stroke:#72c8f1;stroke-miterlimit:10;stroke-width:0.100000001490116px"/><polygon points="30.62 11.19 24.54 14.23 18.46 11.19 24.54 8.15 30.62 11.19" style="fill:#8a8442"/><polygon points="18.46 11.19 18.46 14.25 24.54 17.26 30.7 14.06 30.62 11.19 24.54 14.23 18.46 11.19" style="fill:#555"/><line x1="28.82" y1="11.34" x2="24.62" y2="13.44" style="fill:none;stroke:#555122;stroke-miterlimit:10;stroke-width:0.10000000149011612px"/><line x1="28.34" y1="11.1" x2="24.14" y2="13.2" style="fill:none;stroke:#555122;stroke-miterlimit:10;stroke-width:0.10000000149011612px"/><line x1="27.86" y1="10.86" x2="23.66" y2="12.96" style="fill:none;stroke:#555122;stroke-miterlimit:10;stroke-width:0.10000000149011612px"/><line x1="27.38" y1="10.62" x2="23.19" y2="12.72" style="fill:none;stroke:#555122;stroke-miterlimit:10;stroke-width:0.10000000149011612px"/><line x1="26.91" y1="10.38" x2="22.71" y2="12.48" style="fill:none;stroke:#555122;stroke-miterlimit:10;stroke-width:0.10000000149011612px"/><line x1="26.43" y1="10.14" x2="22.23" y2="12.24" style="fill:none;stroke:#555122;stroke-miterlimit:10;stroke-width:0.10000000149011612px"/><line x1="25.95" y1="9.9" x2="21.75" y2="12" style="fill:none;stroke:#555122;stroke-miterlimit:10;stroke-width:0.10000000149011612px"/><line x1="24.99" y1="9.42" x2="20.79" y2="11.52" style="fill:none;stroke:#555122;stroke-miterlimit:10;stroke-width:0.10000000149011612px"/><line x1="25.47" y1="9.66" x2="21.27" y2="11.76" style="fill:none;stroke:#555122;stroke-miterlimit:10;stroke-width:0.10000000149011612px"/><line x1="24.51" y1="9.18" x2="20.31" y2="11.28" style="fill:none;stroke:#555122;stroke-miterlimit:10;stroke-width:0.10000000149011612px"/><line x1="24.03" y1="8.95" x2="19.83" y2="11.05" style="fill:none;stroke:#555122;stroke-miterlimit:10;stroke-width:0.10000000149011612px"/><polygon points="20.34 5.4 14.26 8.44 8.18 5.4 14.26 2.36 20.34 5.4" style="fill:#8a8442"/><polygon points="8.18 5.4 8.18 8.46 14.26 11.47 20.42 8.27 20.34 5.4 14.26 8.44 8.18 5.4" style="fill:#555"/><line x1="18.54" y1="5.55" x2="14.34" y2="7.65" style="fill:none;stroke:#555122;stroke-miterlimit:10;stroke-width:0.10000000149011612px"/><line x1="18.06" y1="5.31" x2="13.86" y2="7.41" style="fill:none;stroke:#555122;stroke-miterlimit:10;stroke-width:0.10000000149011612px"/><line x1="17.58" y1="5.07" x2="13.38" y2="7.17" style="fill:none;stroke:#555122;stroke-miterlimit:10;stroke-width:0.10000000149011612px"/><line x1="17.1" y1="4.83" x2="12.9" y2="6.93" style="fill:none;stroke:#555122;stroke-miterlimit:10;stroke-width:0.10000000149011612px"/><line x1="16.62" y1="4.59" x2="12.42" y2="6.69" style="fill:none;stroke:#555122;stroke-miterlimit:10;stroke-width:0.10000000149011612px"/><line x1="16.14" y1="4.35" x2="11.95" y2="6.45" style="fill:none;stroke:#555122;stroke-miterlimit:10;stroke-width:0.10000000149011612px"/><line x1="15.67" y1="4.11" x2="11.47" y2="6.21" style="fill:none;stroke:#555122;stroke-miterlimit:10;stroke-width:0.10000000149011612px"/><line x1="14.71" y1="3.63" x2="10.51" y2="5.73" style="fill:none;stroke:#555122;stroke-miterlimit:10;stroke-width:0.10000000149011612px"/><line x1="15.19" y1="3.87" x2="10.99" y2="5.97" style="fill:none;stroke:#555122;stroke-miterlimit:10;stroke-width:0.10000000149011612px"/><line x1="14.23" y1="3.39" x2="10.03" y2="5.49" style="fill:none;stroke:#555122;stroke-miterlimit:10;stroke-width:0.10000000149011612px"/><line x1="13.75" y1="3.15" x2="9.55" y2="5.25" style="fill:none;stroke:#555122;stroke-miterlimit:10;stroke-width:0.10000000149011612px"/></svg>