<svg id="Bridge_NS" data-name="Bridge NS" xmlns="http://www.w3.org/2000/svg" viewBox="0 0 40 20"><polygon points="0 10 20 20 40 10 20 0 0 10" style="fill:#488fcd"/><path d="M34.34,11.26c0,1-2,1-2,0s-2-1-2,0-2,1-2,0-2-1-2,0-2,1-2,0-2-1-2,0" style="fill:none;stroke:#72c8f1;stroke-miterlimit:10;stroke-width:0.100000001490116px"/><path d="M18.55,8.57c0,1-2,1-2,0s-2-1-2,0-2,1-2,0-2-1-2,0-2,1-2,0-2-1-2,0" style="fill:none;stroke:#72c8f1;stroke-miterlimit:10;stroke-width:0.100000001490116px"/><polygon points="9.38 11.19 15.46 14.23 21.54 11.19 15.46 8.15 9.38 11.19" style="fill:#8a8442"/><polygon points="21.54 11.19 21.54 14.25 15.46 17.26 9.3 14.06 9.38 11.19 15.46 14.23 21.54 11.19" style="fill:#555"/><line x1="11.18" y1="11.34" x2="15.38" y2="13.44" style="fill:none;stroke:#555122;stroke-miterlimit:10;stroke-width:0.10000000149011612px"/><line x1="11.66" y1="11.1" x2="15.86" y2="13.2" style="fill:none;stroke:#555122;stroke-miterlimit:10;stroke-width:0.10000000149011612px"/><line x1="12.14" y1="10.86" x2="16.34" y2="12.96" style="fill:none;stroke:#555122;stroke-miterlimit:10;stroke-width:0.10000000149011612px"/><line x1="12.62" y1="10.62" x2="16.81" y2="12.72" style="fill:none;stroke:#555122;stroke-miterlimit:10;stroke-width:0.10000000149011612px"/><line x1="13.09" y1="10.38" x2="17.29" y2="12.48" style="fill:none;stroke:#555122;stroke-miterlimit:10;stroke-width:0.10000000149011612px"/><line x1="13.57" y1="10.14" x2="17.77" y2="12.24" style="fill:none;stroke:#555122;stroke-miterlimit:10;stroke-width:0.10000000149011612px"/><line x1="14.05" y1="9.9" x2="18.25" y2="12" style="fill:none;stroke:#555122;stroke-miterlimit:10;stroke-width:0.10000000149011612px"/><line x1="15.01" y1="9.42" x2="19.21" y2="11.52" style="fill:none;stroke:#555122;stroke-miterlimit:10;stroke-width:0.10000000149011612px"/><line x1="14.53" y1="9.66" x2="18.73" y2="11.76" style="fill:none;stroke:#555122;stroke-miterlimit:10;stroke-width:0.10000000149011612px"/><line x1="15.49" y1="9.18" x2="19.69" y2="11.28" style="fill:none;stroke:#555122;stroke-miterlimit:10;stroke-width:0.10000000149011612px"/><line x1="15.97" y1="8.95" x2="20.17" y2="11.05" style="fill:none;stroke:#555122;stroke-miterlimit:10;stroke-width:0.10000000149011612px"/><polygon points="19.66 5.4 25.74 8.44 31.82 5.4 25.74 2.36 19.66 5.4" style="fill:#8a8442"/><polygon points="31.82 5.4 31.82 8.46 25.75 11.47 19.58 8.27 19.66 5.4 25.74 8.44 31.82 5.4" style="fill:#555"/><line x1="21.46" y1="5.55" x2="25.66" y2="7.65" style="fill:none;stroke:#555122;stroke-miterlimit:10;stroke-width:0.10000000149011612px"/><line x1="21.94" y1="5.31" x2="26.14" y2="7.41" style="fill:none;stroke:#555122;stroke-miterlimit:10;stroke-width:0.10000000149011612px"/><line x1="22.42" y1="5.07" x2="26.62" y2="7.17" style="fill:none;stroke:#555122;stroke-miterlimit:10;stroke-width:0.10000000149011612px"/><line x1="22.9" y1="4.83" x2="27.1" y2="6.93" style="fill:none;stroke:#555122;stroke-miterlimit:10;stroke-width:0.10000000149011612px"/><line x1="23.38" y1="4.59" x2="27.58" y2="6.69" style="fill:none;stroke:#555122;stroke-miterlimit:10;stroke-width:0.10000000149011612px"/><line x1="23.86" y1="4.35" x2="28.05" y2="6.45" style="fill:none;stroke:#555122;stroke-miterlimit:10;stroke-width:0.10000000149011612px"/><line x1="24.33" y1="4.11" x2="28.53" y2="6.21" style="fill:none;stroke:#555122;stroke-miterlimit:10;stroke-width:0.10000000149011612px"/><line x1="25.29" y1="3.63" x2="29.49" y2="5.73" style="fill:none;stroke:#555122;stroke-miterlimit:10;stroke-width:0.10000000149011612px"/><line x1="24.81" y1="3.87" x2="29.01" y2="5.97" style="fill:none;stroke:#555122;stroke-miterlimit:10;stroke-width:0.10000000149011612px"/><line x1="25.77" y1="3.39" x2="29.97" y2="5.49" style="fill:none;stroke:#555122;stroke-miterlimit:10;stroke-width:0.10000000149011612px"/><line x1="26.25" y1="3.15" x2="30.45" y2="5.25" style="fill:none;stroke:#555122;stroke-miterlimit:10;stroke-width:0.10000000149011612px"/></svg>