<svg xmlns="http://www.w3.org/2000/svg" viewBox="0 0 40.22 20.11"><g id="Floor2"><polygon points="40.11 10.06 20.11 20.06 0.11 10.06 20.11 0.06 40.11 10.06" style="fill:#bbb"/><polygon points="10.11 10.06 5.11 12.56 0.11 10.06 5.11 7.56 10.11 10.06" style="fill:#ddd"/><polygon points="20.11 5.06 15.11 7.56 10.11 5.06 15.11 2.56 20.11 5.06" style="fill:#ddd"/><polygon points="30.11 5.06 25.11 7.56 20.11 5.06 25.11 2.56 30.11 5.06" style="fill:#ddd"/><polygon points="20.11 10.06 15.11 12.56 10.11 10.06 15.11 7.56 20.11 10.06" style="fill:#ddd"/><polygon points="20.11 15.06 15.11 17.56 10.11 15.06 15.11 12.56 20.11 15.06" style="fill:#ddd"/><polygon points="30.11 10.06 25.11 12.56 20.11 10.06 25.11 7.56 30.11 10.06" style="fill:#ddd"/><polygon points="40.11 10.06 35.11 12.56 30.11 10.06 35.11 7.56 40.11 10.06" style="fill:#ddd"/><polygon points="30.11 15.06 25.11 17.56 20.11 15.06 25.11 12.56 30.11 15.06" style="fill:#ddd"/></g><g id="Border"><polygon points="0.11 10.06 20.11 20.06 40.11 10.06 20.11 0.06 0.11 10.06" style="fill:none;stroke:#999;stroke-miterlimit:10;stroke-width:0.100000001490116px"/></g></svg>