<svg id="Floor2" xmlns="http://www.w3.org/2000/svg" viewBox="0 0 40 20"><polygon points="40 10 20 20 0 10 20 0 40 10" style="fill:#bbb;stroke:#bbb;stroke-miterlimit:10;stroke-width:0.100000001490116px"/><polygon points="10 10 5 12.5 0 10 5 7.5 10 10" style="fill:#ddd"/><polygon points="20 5 15 7.5 10 5 15 2.5 20 5" style="fill:#ddd"/><polygon points="30 5 25 7.5 20 5 25 2.5 30 5" style="fill:#ddd"/><polygon points="20 10 15 12.5 10 10 15 7.5 20 10" style="fill:#ddd"/><polygon points="20 15 15 17.5 10 15 15 12.5 20 15" style="fill:#ddd"/><polygon points="30 10 25 12.5 20 10 25 7.5 30 10" style="fill:#ddd"/><polygon points="40 10 35 12.5 30 10 35 7.5 40 10" style="fill:#ddd"/><polygon points="30 15 25 17.5 20 15 25 12.5 30 15" style="fill:#ddd"/></svg>