<svg id="Grass_Pool" data-name="Grass Pool" xmlns="http://www.w3.org/2000/svg" viewBox="0 0 40 20"><polygon points="40 10 20 20 0 10 20 0 40 10" style="fill:#4fb848"/><polygon points="30 11.5 20 16.5 10 11.5 20 6.5 30 11.5" style="fill:#488fcd"/><path d="M14,11.37c0,1,2,1,2,0s2-1,2,0,2,1,2,0,2-1,2,0,2,1,2,0,2-1,2,0" style="fill:none;stroke:#72c8f1;stroke-miterlimit:10;stroke-width:0.100000001490116px"/><polygon points="20.01 3.53 20.01 7.03 10.57 11.75 7.07 10 20.01 3.53" style="fill:#787878"/><polygon points="20.01 3.54 20.01 7.04 29.41 11.76 32.93 10 20.01 3.54" style="fill:#555"/></svg>