<svg id="Cnr-BL" xmlns="http://www.w3.org/2000/svg" viewBox="0 0 40 20"><polygon points="0 10 20 0 40 10 20 20 0 10" style="fill:#4fb848"/><polyline points="6.19 9.07 7.58 7.68 8.96 9.07 10.35 7.68 11.74 9.07 13.13 7.68 14.52 9.07 15.91 7.68 17.29 9.07" style="fill:none;stroke:#a3d394;stroke-miterlimit:10;stroke-width:0.100000001490116px"/><polyline points="23.52 10.79 24.91 9.41 26.3 10.79 27.69 9.41 29.08 10.79 30.46 9.41 31.85 10.79 33.24 9.41 34.63 10.79" style="fill:none;stroke:#a3d394;stroke-miterlimit:10;stroke-width:0.100000001490116px"/><polyline points="14.78 5.91 16.17 4.52 17.55 5.91 18.94 4.52 20.33 5.91 21.72 4.52 23.11 5.91 24.5 4.52 25.89 5.91" style="fill:none;stroke:#a3d394;stroke-miterlimit:10;stroke-width:0.100000001490116px"/><polyline points="14.36 15.26 15.75 13.87 17.14 15.26 18.52 13.87 19.91 15.26 21.3 13.87 22.69 15.26 24.08 13.87 25.47 15.26" style="fill:none;stroke:#a3d394;stroke-miterlimit:10;stroke-width:0.100000001490116px"/><polygon points="0 10 3.5 11.75 3.5 8.25 0 10" style="fill:#555"/><polygon points="3.5 8.25 3.5 11.75 7 10 3.5 8.25" style="fill:#555"/></svg>