<svg id="Water-L" xmlns="http://www.w3.org/2000/svg" viewBox="0 0 40 20"><polygon points="0 10 20 20 40 10 20 0 0 10" style="fill:#488fcd"/><g id="Layer_22_copy_5" data-name="Layer 22 copy 5"><polygon points="40 10 23.54 1.77 3.54 11.77 20 20 40 10" style="fill:#4fb848"/></g><g id="Layer_19_copy_6" data-name="Layer 19 copy 6"><polyline points="35.65 10.81 34.26 9.42 32.88 10.81 31.49 9.42 30.1 10.81 28.71 9.42 27.32 10.81 25.93 9.42 24.54 10.81" style="fill:none;stroke:#a3d394;stroke-miterlimit:10;stroke-width:0.100000001490116px"/><polyline points="28.5 6.98 27.11 5.59 25.72 6.98 24.34 5.59 22.95 6.98 21.56 5.59 20.17 6.98 18.78 5.59 17.39 6.98" style="fill:none;stroke:#a3d394;stroke-miterlimit:10;stroke-width:0.100000001490116px"/><polyline points="25.68 16.17 24.3 14.78 22.91 16.17 21.52 14.78 20.13 16.17 18.74 14.78 17.35 16.17 15.96 14.78 14.58 16.17" style="fill:none;stroke:#a3d394;stroke-miterlimit:10;stroke-width:0.100000001490116px"/><polyline points="18.2 11.53 16.81 10.14 15.42 11.53 14.03 10.14 12.64 11.53 11.26 10.14 9.87 11.53 8.48 10.14 7.09 11.53" style="fill:none;stroke:#a3d394;stroke-miterlimit:10;stroke-width:0.100000001490116px"/></g></svg>