<svg id="Water-B" xmlns="http://www.w3.org/2000/svg" viewBox="0 0 40.22 20.11"><polygon points="40.11 10.06 20.11 20.06 0.11 10.06 20.11 0.06 40.11 10.06" style="fill:#555;stroke:#bbb;stroke-miterlimit:10;stroke-width:0.100000001490116px"/><g id="Layer_22_copy_6" data-name="Layer 22 copy 6"><polygon points="3.65 8.29 20.11 0.06 40.11 10.06 23.65 18.29 3.65 8.29" style="fill:#4fb848"/></g><g id="Layer_19_copy_7" data-name="Layer 19 copy 7"><polyline points="6.32 8.86 7.71 7.47 9.1 8.86 10.49 7.47 11.87 8.86 13.26 7.47 14.65 8.86 16.04 7.47 17.43 8.86" style="fill:none;stroke:#a3d394;stroke-miterlimit:10;stroke-width:0.100000001490116px"/><polyline points="13.47 5.04 14.86 3.65 16.25 5.04 17.64 3.65 19.03 5.04 20.41 3.65 21.8 5.04 23.19 3.65 24.58 5.04" style="fill:none;stroke:#a3d394;stroke-miterlimit:10;stroke-width:0.100000001490116px"/><polyline points="16.29 14.22 17.68 12.84 19.06 14.22 20.45 12.84 21.84 14.22 23.23 12.84 24.62 14.22 26.01 12.84 27.4 14.22" style="fill:none;stroke:#a3d394;stroke-miterlimit:10;stroke-width:0.100000001490116px"/><polyline points="23.77 9.58 25.16 8.19 26.55 9.58 27.94 8.19 29.33 9.58 30.72 8.19 32.1 9.58 33.49 8.19 34.88 9.58" style="fill:none;stroke:#a3d394;stroke-miterlimit:10;stroke-width:0.100000001490116px"/></g></svg>