<svg xmlns="http://www.w3.org/2000/svg" viewBox="0 0 40.22 20.11"><g id="Water-TL"><polygon points="0.11 10.06 20.11 20.06 40.11 10.06 20.11 0.06 0.11 10.06" style="fill:#488fcd"/><g id="Layer_22_copy_2" data-name="Layer 22 copy 2"><polygon points="36.58 11.82 20.11 3.59 3.8 11.75 20.11 20.06 36.58 11.82" style="fill:#4fb848"/></g><g id="Layer_19_copy_3" data-name="Layer 19 copy 3"><polyline points="19.26 11.7 17.88 10.31 16.49 11.7 15.1 10.31 13.71 11.7 12.32 10.31 10.93 11.7 9.54 10.31 8.16 11.7" style="fill:none;stroke:#a3d394;stroke-miterlimit:10;stroke-width:0.100000001490116px"/><polyline points="28.72 8.88 27.33 7.5 25.94 8.88 24.55 7.5 23.16 8.88 21.77 7.5 20.39 8.88 19 7.5 17.61 8.88" style="fill:none;stroke:#a3d394;stroke-miterlimit:10;stroke-width:0.100000001490116px"/><polyline points="25.51 16.35 24.12 14.96 22.73 16.35 21.34 14.96 19.95 16.35 18.57 14.96 17.18 16.35 15.79 14.96 14.4 16.35" style="fill:none;stroke:#a3d394;stroke-miterlimit:10;stroke-width:0.100000001490116px"/></g></g><g id="Border"><polygon points="0.11 10.06 20.11 20.06 40.11 10.06 20.11 0.06 0.11 10.06" style="fill:none;stroke:#999;stroke-miterlimit:10;stroke-width:0.100000001490116px"/></g></svg>