<svg id="Cnr-TL" xmlns="http://www.w3.org/2000/svg" viewBox="0 0 40.22 20.11"><polygon points="0.11 10.06 20.11 0.06 40.11 10.06 20.11 20.06 0.11 10.06" style="fill:#4fb848"/><polyline points="6.3 9.13 7.69 7.74 9.07 9.13 10.46 7.74 11.85 9.13 13.24 7.74 14.63 9.13 16.02 7.74 17.41 9.13" style="fill:none;stroke:#a3d394;stroke-miterlimit:10;stroke-width:0.100000001490116px"/><polyline points="23.63 10.85 25.02 9.46 26.41 10.85 27.8 9.46 29.19 10.85 30.58 9.46 31.96 10.85 33.35 9.46 34.74 10.85" style="fill:none;stroke:#a3d394;stroke-miterlimit:10;stroke-width:0.100000001490116px"/><polyline points="14.89 5.97 16.28 4.58 17.67 5.97 19.06 4.58 20.44 5.97 21.83 4.58 23.22 5.97 24.61 4.58 26 5.97" style="fill:none;stroke:#a3d394;stroke-miterlimit:10;stroke-width:0.100000001490116px"/><polyline points="14.47 15.31 15.86 13.93 17.25 15.31 18.64 13.93 20.03 15.31 21.41 13.93 22.8 15.31 24.19 13.93 25.58 15.31" style="fill:none;stroke:#a3d394;stroke-miterlimit:10;stroke-width:0.100000001490116px"/><polygon points="23.61 1.81 20.11 3.56 16.61 1.81 20.11 0.06 23.61 1.81" style="fill:#478fcd;stroke:#488fcc;stroke-miterlimit:10;stroke-width:0.10000000149011612px"/><polygon points="16.61 1.81 0.11 10.06 20.11 20.06 40.11 10.06 23.61 1.81 20.11 3.56 16.61 1.81" style="fill:none;stroke:#4fb848;stroke-miterlimit:10;stroke-width:0.10000000149011612px"/></svg>