<svg id="Water-T" xmlns="http://www.w3.org/2000/svg" viewBox="0 0 40 20"><polygon points="40 10 20 20 0 10 20 0 40 10" style="fill:#488fcd"/><g id="Layer_22_copy_4" data-name="Layer 22 copy 4"><polygon points="0 10 16.46 1.77 36.46 11.77 20 20 0 10" style="fill:#4fb848"/></g><g id="Layer_19_copy_5" data-name="Layer 19 copy 5"><polyline points="4.35 10.81 5.74 9.42 7.13 10.81 8.51 9.42 9.9 10.81 11.29 9.42 12.68 10.81 14.07 9.42 15.46 10.81" style="fill:none;stroke:#a3d394;stroke-miterlimit:10;stroke-width:0.100000001490116px"/><polyline points="11.5 6.98 12.89 5.59 14.28 6.98 15.66 5.59 17.05 6.98 18.44 5.59 19.83 6.98 21.22 5.59 22.61 6.98" style="fill:none;stroke:#a3d394;stroke-miterlimit:10;stroke-width:0.100000001490116px"/><polyline points="14.31 16.17 15.7 14.78 17.09 16.17 18.48 14.78 19.87 16.17 21.26 14.78 22.65 16.17 24.04 14.78 25.42 16.17" style="fill:none;stroke:#a3d394;stroke-miterlimit:10;stroke-width:0.100000001490116px"/><polyline points="21.8 11.53 23.19 10.14 24.58 11.53 25.97 10.14 27.36 11.53 28.74 10.14 30.13 11.53 31.52 10.14 32.91 11.53" style="fill:none;stroke:#a3d394;stroke-miterlimit:10;stroke-width:0.100000001490116px"/></g></svg>