<svg id="Water-R" xmlns="http://www.w3.org/2000/svg" viewBox="0 0 40 20"><polygon points="0 10 20 20 40 10 20 0 0 10" style="fill:#787878"/><g id="Layer_22_copy_7" data-name="Layer 22 copy 7"><polygon points="36.46 8.23 20 0 0 10 16.46 18.23 36.46 8.23" style="fill:#4fb848"/></g><g id="Layer_19_copy_8" data-name="Layer 19 copy 8"><polyline points="33.79 8.81 32.4 7.42 31.01 8.81 29.63 7.42 28.24 8.81 26.85 7.42 25.46 8.81 24.07 7.42 22.68 8.81" style="fill:none;stroke:#a3d394;stroke-miterlimit:10;stroke-width:0.100000001490116px"/><polyline points="26.64 4.98 25.25 3.59 23.86 4.98 22.48 3.59 21.09 4.98 19.7 3.59 18.31 4.98 16.92 3.59 15.53 4.98" style="fill:none;stroke:#a3d394;stroke-miterlimit:10;stroke-width:0.100000001490116px"/><polyline points="23.82 14.17 22.44 12.78 21.05 14.17 19.66 12.78 18.27 14.17 16.88 12.78 15.49 14.17 14.11 12.78 12.72 14.17" style="fill:none;stroke:#a3d394;stroke-miterlimit:10;stroke-width:0.100000001490116px"/><polyline points="16.34 9.53 14.95 8.14 13.56 9.53 12.17 8.14 10.78 9.53 9.39 8.14 8.01 9.53 6.62 8.14 5.23 9.53" style="fill:none;stroke:#a3d394;stroke-miterlimit:10;stroke-width:0.100000001490116px"/></g></svg>