<svg id="Water-BL" xmlns="http://www.w3.org/2000/svg" viewBox="0 0 40 20"><polygon points="0 10 20 20 40 10 20 0 0 10" style="fill:#488fcd"/><g id="Layer_22_copy" data-name="Layer 22 copy"><polygon points="40 10 23.54 1.77 7.07 10 23.54 18.23 40 10" style="fill:#4fb848"/></g><g id="Layer_19_copy_2" data-name="Layer 19 copy 2"><polyline points="36.94 10.42 35.55 9.03 34.17 10.42 32.78 9.03 31.39 10.42 30 9.03 28.61 10.42 27.22 9.03 25.83 10.42" style="fill:none;stroke:#a3d394;stroke-miterlimit:10;stroke-width:0.100000001490116px"/><polyline points="26.34 7.54 24.95 6.15 23.56 7.54 22.17 6.15 20.78 7.54 19.39 6.15 18.01 7.54 16.62 6.15 15.23 7.54" style="fill:none;stroke:#a3d394;stroke-miterlimit:10;stroke-width:0.100000001490116px"/><polyline points="28.01 13.96 26.62 12.57 25.23 13.96 23.85 12.57 22.46 13.96 21.07 12.57 19.68 13.96 18.29 12.57 16.9 13.96" style="fill:none;stroke:#a3d394;stroke-miterlimit:10;stroke-width:0.100000001490116px"/></g><polygon points="23.54 18.23 20 20 7.07 13.55 7.07 10 23.54 18.23" style="fill:#555"/></svg>