<svg id="Water-TL" xmlns="http://www.w3.org/2000/svg" viewBox="0 0 40 20"><polygon points="0 10 20 20 40 10 20 0 0 10" style="fill:#488fcd"/><g id="Layer_22_copy_2" data-name="Layer 22 copy 2"><polygon points="36.46 11.77 20 3.54 3.69 11.69 20 20 36.46 11.77" style="fill:#4fb848"/></g><g id="Layer_19_copy_3" data-name="Layer 19 copy 3"><polyline points="19.15 11.64 17.76 10.25 16.38 11.64 14.99 10.25 13.6 11.64 12.21 10.25 10.82 11.64 9.43 10.25 8.04 11.64" style="fill:none;stroke:#a3d394;stroke-miterlimit:10;stroke-width:0.100000001490116px"/><polyline points="28.61 8.83 27.22 7.44 25.83 8.83 24.44 7.44 23.05 8.83 21.66 7.44 20.27 8.83 18.89 7.44 17.5 8.83" style="fill:none;stroke:#a3d394;stroke-miterlimit:10;stroke-width:0.100000001490116px"/><polyline points="25.4 16.29 24.01 14.9 22.62 16.29 21.23 14.9 19.84 16.29 18.45 14.9 17.07 16.29 15.68 14.9 14.29 16.29" style="fill:none;stroke:#a3d394;stroke-miterlimit:10;stroke-width:0.100000001490116px"/></g></svg>