<svg id="Water" xmlns="http://www.w3.org/2000/svg" viewBox="0 0 40.22 20.11"><polygon points="40.11 10.06 20.11 20.06 0.11 10.06 20.11 0.06 40.11 10.06" style="fill:#478fcd;stroke:#488fcc;stroke-miterlimit:10;stroke-width:0.10000000149011612px"/><path d="M5.29,11.54c0,1,2,1,2,0s2-1,2,0,2,1,2,0,2-1,2,0,2,1,2,0,2-1,2,0" transform="translate(0.11 0.06)" style="fill:none;stroke:#72c8f1;stroke-miterlimit:10;stroke-width:0.100000001490116px"/><path d="M12.38,4.84c0,1,2,1,2,0s2-1,2,0,2,1,2,0,2-1,2,0,2,1,2,0,2-1,2,0" transform="translate(0.11 0.06)" style="fill:none;stroke:#72c8f1;stroke-miterlimit:10;stroke-width:0.100000001490116px"/><path d="M16.08,15c0,1,2,1,2,0s2-1,2,0,2,1,2,0,2-1,2,0,2,1,2,0,2-1,2,0" transform="translate(0.11 0.06)" style="fill:none;stroke:#72c8f1;stroke-miterlimit:10;stroke-width:0.100000001490116px"/><path d="M22,9.4c0,1,2,1,2,0s2-1,2,0,2,1,2,0,2-1,2,0,2,1,2,0,2-1,2,0" transform="translate(0.11 0.06)" style="fill:none;stroke:#72c8f1;stroke-miterlimit:10;stroke-width:0.100000001490116px"/></svg>