<svg id="Water-BR" xmlns="http://www.w3.org/2000/svg" viewBox="0 0 40 20"><polygon points="0 10 20 20 19.93 0.04 0 10" style="fill:#555"/><polygon points="20 0 19.93 0.04 20 20 40 10 20 0" style="fill:#787878"/><g id="Layer_22_copy_3" data-name="Layer 22 copy 3"><polygon points="36.39 8.23 19.92 0 3.61 8.16 19.92 16.46 36.39 8.23" style="fill:#4fb848"/></g><g id="Layer_19_copy_4" data-name="Layer 19 copy 4"><polyline points="19.1 8.33 17.71 6.94 16.32 8.33 14.93 6.94 13.54 8.33 12.15 6.94 10.77 8.33 9.38 6.94 7.99 8.33" style="fill:none;stroke:#a3d394;stroke-miterlimit:10;stroke-width:0.100000001490116px"/><polyline points="28.55 5.51 27.16 4.13 25.77 5.51 24.39 4.13 23 5.51 21.61 4.13 20.22 5.51 18.83 4.13 17.44 5.51" style="fill:none;stroke:#a3d394;stroke-miterlimit:10;stroke-width:0.100000001490116px"/><polyline points="25.34 12.98 23.95 11.59 22.57 12.98 21.18 11.59 19.79 12.98 18.4 11.59 17.01 12.98 15.62 11.59 14.23 12.98" style="fill:none;stroke:#a3d394;stroke-miterlimit:10;stroke-width:0.100000001490116px"/></g></svg>