<svg id="N_copy" data-name="N copy" xmlns="http://www.w3.org/2000/svg" xmlns:xlink="http://www.w3.org/1999/xlink" viewBox="0 0 20 25"><defs><linearGradient id="New_Gradient_Swatch_1" x1="5.09" y1="22.49" x2="1.06" y2="14.47" gradientTransform="matrix(-1, 0, 0, 1, 20, 0)" gradientUnits="userSpaceOnUse"><stop offset="0" stop-color="#407772"/><stop offset="0" stop-color="#485466"/><stop offset="1" stop-color="#bfcbdd"/></linearGradient><linearGradient id="New_Gradient_Swatch_1-2" x1="14.9" y1="22.51" x2="18.96" y2="14.42" gradientTransform="matrix(1, 0, 0, 1, 0, 0)" xlink:href="#New_Gradient_Swatch_1"/><linearGradient id="New_Gradient_Swatch_1-3" x1="18.87" y1="15.57" x2="14.84" y2="7.55" xlink:href="#New_Gradient_Swatch_1"/><linearGradient id="New_Gradient_Swatch_1-4" x1="1.11" y1="15.61" x2="5.17" y2="7.53" gradientTransform="matrix(1, 0, 0, 1, 0, 0)" xlink:href="#New_Gradient_Swatch_1"/></defs><polygon points="20 15 13.87 11.93 13.87 21.93 20 25 20 15" style="stroke-miterlimit:10;stroke-width:0.10000000149011612px;fill:url(#New_Gradient_Swatch_1);stroke:url(#New_Gradient_Swatch_1-2)"/><polygon points="0 5 0 15 6.29 18.14 6.29 8.14 0 5" style="stroke-miterlimit:10;stroke-width:0.10000000149011612px;fill:url(#New_Gradient_Swatch_1-3);stroke:url(#New_Gradient_Swatch_1-4)"/><polygon points="6.37 17.94 6.37 2.91 13.69 6.52 13.69 21.55 6.37 17.94" style="fill:#777"/><path d="M6.62,3.32l6.82,3.36V21.14L6.62,17.78V3.32m-.5-.81V18.09L13.94,22V6.37L6.12,2.51Z" style="fill:#bbb"/><polygon points="12.55 12.59 7.52 10.11 7.52 5 12.55 7.47 12.55 12.59" style="fill:#999"/><polygon points="12.55 19.63 7.52 17.16 7.52 11.54 12.55 14.02 12.55 19.63" style="fill:#999"/><polygon points="11.07 14.17 8.9 13.1 8.9 9.66 11.07 10.74 11.07 14.17" style="fill:#444"/><path d="M10.73,11.75a1.35,1.35,0,0,0-.72-1.1c-.4-.2-.72,0-.72.39a1.32,1.32,0,0,0,.49.9l-.21,1.13.88.44-.18-1.35C10.53,12.17,10.73,12.06,10.73,11.75Z" style="fill:#aaa"/></svg>