<svg id="N_Door_Open" data-name="N Door Open" xmlns="http://www.w3.org/2000/svg" xmlns:xlink="http://www.w3.org/1999/xlink" viewBox="0 0 20 25"><defs><linearGradient id="New_Gradient_Swatch_1" x1="5.09" y1="22.49" x2="1.06" y2="14.47" gradientTransform="matrix(-1, 0, 0, 1, 20, 0)" gradientUnits="userSpaceOnUse"><stop offset="0" stop-color="#407772"/><stop offset="0" stop-color="#485466"/><stop offset="1" stop-color="#bfcbdd"/></linearGradient><linearGradient id="New_Gradient_Swatch_1-2" x1="14.9" y1="22.51" x2="18.96" y2="14.42" gradientTransform="matrix(1, 0, 0, 1, 0, 0)" xlink:href="#New_Gradient_Swatch_1"/><linearGradient id="New_Gradient_Swatch_1-3" x1="18.87" y1="15.57" x2="14.84" y2="7.55" xlink:href="#New_Gradient_Swatch_1"/><linearGradient id="New_Gradient_Swatch_1-4" x1="1.11" y1="15.61" x2="5.17" y2="7.53" gradientTransform="matrix(1, 0, 0, 1, 0, 0)" xlink:href="#New_Gradient_Swatch_1"/></defs><polygon points="20 15 13.87 11.93 13.87 21.93 20 25 20 15" style="stroke-miterlimit:10;stroke-width:0.10000000149011612px;fill:url(#New_Gradient_Swatch_1);stroke:url(#New_Gradient_Swatch_1-2)"/><polygon points="0 5 0 15 6.29 18.14 6.29 8.14 0 5" style="stroke-miterlimit:10;stroke-width:0.10000000149011612px;fill:url(#New_Gradient_Swatch_1-3);stroke:url(#New_Gradient_Swatch_1-4)"/><polygon points="0.36 15 0.36 -0.03 6.42 2.94 6.42 17.96 0.36 15" style="fill:#777"/><path d="M.61.37,6.17,3.09V17.56L.61,14.84V.37m-.5-.8V15.15l6.56,3.21V2.78L.11-.43Z" style="fill:#bbb"/><polygon points="5.5 9.12 1.29 7.06 1.29 1.94 5.5 4 5.5 9.12" style="fill:#999"/><polygon points="5.5 16.16 1.29 14.1 1.29 8.49 5.5 10.55 5.5 16.16" style="fill:#999"/></svg>