<svg xmlns="http://www.w3.org/2000/svg" xmlns:xlink="http://www.w3.org/1999/xlink" viewBox="0 0 20.1 25.51"><defs><linearGradient id="New_Gradient_Swatch_2" x1="1.39" y1="16.1" x2="5.41" y2="8.08" gradientUnits="userSpaceOnUse"><stop offset="0" stop-color="#407772"/><stop offset="0" stop-color="#2d2d2d"/><stop offset="1" stop-color="#777"/></linearGradient><linearGradient id="New_Gradient_Swatch_2-2" x1="1.36" y1="16.14" x2="5.44" y2="8.03" xlink:href="#New_Gradient_Swatch_2"/><linearGradient id="New_Gradient_Swatch_2-3" x1="14.95" y1="22.91" x2="18.98" y2="14.89" xlink:href="#New_Gradient_Swatch_2"/><linearGradient id="New_Gradient_Swatch_2-4" x1="14.93" y1="22.95" x2="19" y2="14.84" xlink:href="#New_Gradient_Swatch_2"/></defs><g id="N_copy_2" data-name="N copy 2"><polygon points="0.05 5.43 0.05 15.43 6.74 18.77 6.74 8.77 0.05 5.43" style="stroke-miterlimit:10;stroke-width:0.100000001490116px;fill:url(#New_Gradient_Swatch_2);stroke:url(#New_Gradient_Swatch_2-2)"/><polygon points="20.05 15.43 13.89 12.35 13.89 22.35 20.05 25.43 20.05 15.43" style="stroke-miterlimit:10;stroke-width:0.100000001490116px;fill:url(#New_Gradient_Swatch_2-3);stroke:url(#New_Gradient_Swatch_2-4)"/></g><g id="N_Door_Open_copy" data-name="N Door Open copy"><polygon points="0.41 15.43 0.41 0.4 6.47 3.36 6.47 18.39 0.41 15.43" style="fill:#9e800b"/><path d="M.61.37,6.17,3.09V17.56L.61,14.84V.37m-.5-.8V15.15l6.56,3.21V2.78L.11-.43Z" transform="translate(0.05 0.43)" style="fill:#dbb72c"/><polygon points="5.55 9.54 1.34 7.48 1.34 2.37 5.55 4.43 5.55 9.54" style="fill:#dbb72c"/><polygon points="5.55 16.59 1.34 14.53 1.34 8.91 5.55 10.97 5.55 16.59" style="fill:#dbb72c"/></g></svg>