<svg xmlns="http://www.w3.org/2000/svg" xmlns:xlink="http://www.w3.org/1999/xlink" viewBox="0 0 20 25"><defs><linearGradient id="New_Gradient_Swatch_2" x1="1.34" y1="15.67" x2="5.36" y2="7.65" gradientUnits="userSpaceOnUse"><stop offset="0" stop-color="#407772"/><stop offset="0" stop-color="#2d2d2d"/><stop offset="1" stop-color="#777"/></linearGradient><linearGradient id="New_Gradient_Swatch_2-2" x1="1.31" y1="15.72" x2="5.39" y2="7.6" xlink:href="#New_Gradient_Swatch_2"/><linearGradient id="New_Gradient_Swatch_2-3" x1="14.9" y1="22.48" x2="18.93" y2="14.46" xlink:href="#New_Gradient_Swatch_2"/><linearGradient id="New_Gradient_Swatch_2-4" x1="14.88" y1="22.53" x2="18.95" y2="14.42" xlink:href="#New_Gradient_Swatch_2"/></defs><g id="N_copy_2" data-name="N copy 2"><polygon points="0 5 0 15 6.69 18.34 6.69 8.34 0 5" style="stroke-miterlimit:10;stroke-width:0.100000001490116px;fill:url(#New_Gradient_Swatch_2);stroke:url(#New_Gradient_Swatch_2-2)"/><polygon points="20 15 13.84 11.92 13.84 21.92 20 25 20 15" style="stroke-miterlimit:10;stroke-width:0.100000001490116px;fill:url(#New_Gradient_Swatch_2-3);stroke:url(#New_Gradient_Swatch_2-4)"/></g><g id="N_Door_copy" data-name="N Door copy"><polygon points="6.37 17.94 6.37 2.91 13.69 6.52 13.69 21.55 6.37 17.94" style="fill:#9e800b"/><path d="M6.62,3.32l6.82,3.36V21.14L6.62,17.78V3.32m-.5-.81V18.09L13.94,22V6.37L6.12,2.51Z" style="fill:#dbb72c"/><polygon points="12.55 12.59 7.52 10.11 7.52 5 12.55 7.47 12.55 12.59" style="fill:#dbb72c"/><polygon points="12.55 19.63 7.52 17.16 7.52 11.54 12.55 14.02 12.55 19.63" style="fill:#dbb72c"/><polygon points="11.07 14.17 8.9 13.1 8.9 9.66 11.07 10.74 11.07 14.17" style="fill:#444"/><path d="M10.73,11.75a1.35,1.35,0,0,0-.72-1.1c-.4-.2-.72,0-.72.39a1.32,1.32,0,0,0,.49.9l-.21,1.13.88.44-.18-1.35C10.53,12.17,10.73,12.06,10.73,11.75Z" style="fill:#aaa"/></g></svg>