<svg id="N_Fence" data-name="N Fence" xmlns="http://www.w3.org/2000/svg" viewBox="0 0 20 25"><line x1="19.9" y1="20.4" x2="0.1" y2="10.5" style="fill:none;stroke:#555;stroke-linecap:round;stroke-miterlimit:10;stroke-width:0.5px"/><line x1="19.9" y1="23.9" x2="0.1" y2="14" style="fill:none;stroke:#555;stroke-linecap:round;stroke-miterlimit:10;stroke-width:0.5px"/><line x1="19.41" y1="18.38" x2="19.41" y2="24.73" style="fill:none;stroke:#555;stroke-linecap:round;stroke-miterlimit:10;stroke-width:0.5px"/><line x1="0.57" y1="8.94" x2="0.57" y2="15.29" style="fill:none;stroke:#555;stroke-linecap:round;stroke-miterlimit:10;stroke-width:0.5px"/><line x1="13.61" y1="15.51" x2="13.61" y2="21.86" style="fill:none;stroke:#555;stroke-linecap:round;stroke-miterlimit:10;stroke-width:0.5px"/><line x1="12.17" y1="14.81" x2="12.17" y2="21.16" style="fill:none;stroke:#555;stroke-linecap:round;stroke-miterlimit:10;stroke-width:0.5px"/><line x1="10.72" y1="14.09" x2="10.72" y2="20.44" style="fill:none;stroke:#555;stroke-linecap:round;stroke-miterlimit:10;stroke-width:0.5px"/><line x1="9.27" y1="13.36" x2="9.27" y2="19.7" style="fill:none;stroke:#555;stroke-linecap:round;stroke-miterlimit:10;stroke-width:0.5px"/><line x1="7.82" y1="12.59" x2="7.82" y2="18.94" style="fill:none;stroke:#555;stroke-linecap:round;stroke-miterlimit:10;stroke-width:0.5px"/><line x1="6.37" y1="11.89" x2="6.37" y2="18.24" style="fill:none;stroke:#555;stroke-linecap:round;stroke-miterlimit:10;stroke-width:0.5px"/><line x1="4.92" y1="11.15" x2="4.92" y2="17.5" style="fill:none;stroke:#555;stroke-linecap:round;stroke-miterlimit:10;stroke-width:0.5px"/><line x1="2.02" y1="9.75" x2="2.02" y2="16.1" style="fill:none;stroke:#555;stroke-linecap:round;stroke-miterlimit:10;stroke-width:0.5px"/><line x1="3.47" y1="10.46" x2="3.47" y2="16.81" style="fill:none;stroke:#555;stroke-linecap:round;stroke-miterlimit:10;stroke-width:0.5px"/><line x1="15.06" y1="16.24" x2="15.06" y2="22.59" style="fill:none;stroke:#555;stroke-linecap:round;stroke-miterlimit:10;stroke-width:0.5px"/><line x1="16.51" y1="16.96" x2="16.51" y2="23.31" style="fill:none;stroke:#555;stroke-linecap:round;stroke-miterlimit:10;stroke-width:0.5px"/><line x1="17.96" y1="17.68" x2="17.96" y2="24.03" style="fill:none;stroke:#555;stroke-linecap:round;stroke-miterlimit:10;stroke-width:0.5px"/></svg>