<svg id="Trees_N" data-name="Trees N" xmlns="http://www.w3.org/2000/svg" viewBox="0 0 20 25"><path d="M13.52,16.66a3,3,0,0,1-.18-1,2.15,2.15,0,0,1,1.2-2.17,2.92,2.92,0,0,1-.13-.9c0-1.22.65-2.21,1.45-2.21s1.37.87,1.44,2a1.5,1.5,0,0,1,.37,0c1.08,0,2,1.34,2,3s-.88,3-2,3l-.12,0a1.39,1.39,0,0,1-1.17.92,1.09,1.09,0,0,1-.43-.11,1.41,1.41,0,0,1-1.2,1c-.8,0-1.45-1-1.45-2.21A3,3,0,0,1,13.52,16.66Z" style="fill:#090;stroke:#333;stroke-linecap:round;stroke-miterlimit:10;stroke-width:0.5px"/><line x1="16.01" y1="15.12" x2="16.01" y2="22.84" style="fill:none;stroke:#333;stroke-linecap:round;stroke-miterlimit:10;stroke-width:0.5px"/><line x1="17.51" y1="16.77" x2="16.18" y2="17.86" style="fill:none;stroke:#333;stroke-linecap:round;stroke-miterlimit:10;stroke-width:0.5px"/><line x1="15.09" y1="18.4" x2="15.95" y2="19.7" style="fill:none;stroke:#333;stroke-linecap:round;stroke-miterlimit:10;stroke-width:0.5px"/><path d="M6.18,11.16a3,3,0,0,0,.18-1A2.17,2.17,0,0,0,5.26,8a3.68,3.68,0,0,0,.14-.9c0-1.22-.59-2.22-1.36-2.24s-1.32.85-1.41,2a1,1,0,0,0-.35-.06c-1,0-1.91,1.3-1.94,3s.8,3,1.84,3l.11,0a1.35,1.35,0,0,0,1.11.94,1,1,0,0,0,.41-.1,1.37,1.37,0,0,0,1.13,1c.77,0,1.41-1,1.43-2.18A3.28,3.28,0,0,0,6.18,11.16Z" style="fill:#090;stroke:#333;stroke-linecap:round;stroke-miterlimit:10;stroke-width:0.5px"/><line x1="3.08" y1="8.82" x2="3.08" y2="16.54" style="fill:none;stroke:#333;stroke-linecap:round;stroke-miterlimit:10;stroke-width:0.5px"/><line x1="5.24" y1="10.84" x2="3.23" y2="12.72" style="fill:none;stroke:#333;stroke-linecap:round;stroke-miterlimit:10;stroke-width:0.5px"/><line x1="2.2" y1="8.73" x2="3.02" y2="10.04" style="fill:none;stroke:#333;stroke-linecap:round;stroke-miterlimit:10;stroke-width:0.5px"/><line x1="4.14" y1="10.19" x2="3.23" y2="11.03" style="fill:none;stroke:#333;stroke-linecap:round;stroke-miterlimit:10;stroke-width:0.5px"/><path d="M12.72,10.75a3.15,3.15,0,0,1,.34,1,2.22,2.22,0,0,1-.77,2.35,3.34,3.34,0,0,1,.28.86c.2,1.2-.25,2.3-1,2.45s-1.43-.61-1.69-1.7a1.46,1.46,0,0,1-.33.12c-1,.2-2.09-1-2.36-2.58s.33-3.11,1.36-3.31h.11A1.41,1.41,0,0,1,9.6,8.8a1,1,0,0,1,.42,0,1.42,1.42,0,0,1,1-1.16c.76-.15,1.54.7,1.75,1.9A3.1,3.1,0,0,1,12.72,10.75Z" style="fill:#090;stroke:#333;stroke-linecap:round;stroke-miterlimit:10;stroke-width:0.5px"/><line x1="9.78" y1="11.3" x2="9.78" y2="19.73" style="fill:none;stroke:#333;stroke-linecap:round;stroke-miterlimit:10;stroke-width:0.5px"/><line x1="11.78" y1="13.16" x2="9.89" y2="14.9" style="fill:none;stroke:#333;stroke-linecap:round;stroke-miterlimit:10;stroke-width:0.5px"/><line x1="8.85" y1="12.86" x2="9.68" y2="14.17" style="fill:none;stroke:#333;stroke-linecap:round;stroke-miterlimit:10;stroke-width:0.5px"/><line x1="10.95" y1="12.75" x2="11.3" y2="13.54" style="fill:none;stroke:#333;stroke-linecap:round;stroke-miterlimit:10;stroke-width:0.5px"/></svg>