<svg id="W_Door_Open" data-name="W Door Open" xmlns="http://www.w3.org/2000/svg" xmlns:xlink="http://www.w3.org/1999/xlink" viewBox="0 0 20 25"><defs><linearGradient id="New_Gradient_Swatch_1" x1="5.09" y1="22.49" x2="1.06" y2="14.47" gradientUnits="userSpaceOnUse"><stop offset="0" stop-color="#407772"/><stop offset="0" stop-color="#485466"/><stop offset="1" stop-color="#bfcbdd"/></linearGradient><linearGradient id="New_Gradient_Swatch_1-2" x1="14.9" y1="22.51" x2="18.96" y2="14.42" gradientTransform="matrix(-1, 0, 0, 1, 20, 0)" xlink:href="#New_Gradient_Swatch_1"/><linearGradient id="New_Gradient_Swatch_1-3" x1="18.87" y1="15.57" x2="14.84" y2="7.55" xlink:href="#New_Gradient_Swatch_1"/><linearGradient id="New_Gradient_Swatch_1-4" x1="1.11" y1="15.61" x2="5.17" y2="7.53" gradientTransform="matrix(-1, 0, 0, 1, 20, 0)" xlink:href="#New_Gradient_Swatch_1"/></defs><polygon points="0 15 6.13 11.93 6.13 21.93 0 25 0 15" style="stroke-miterlimit:10;stroke-width:0.10000000149011612px;fill:url(#New_Gradient_Swatch_1);stroke:url(#New_Gradient_Swatch_1-2)"/><polygon points="20 5 20 15 13.71 18.14 13.71 8.14 20 5" style="stroke-miterlimit:10;stroke-width:0.10000000149011612px;fill:url(#New_Gradient_Swatch_1-3);stroke:url(#New_Gradient_Swatch_1-4)"/><polygon points="13.58 2.94 19.64 -0.03 19.64 15 13.58 17.96 13.58 2.94" style="fill:#777"/><path d="M19.39.37V14.84l-5.56,2.72V3.09L19.39.37m.5-.8L13.33,2.78V18.36l6.56-3.21V-.43Z" style="fill:#bbb"/><polygon points="14.5 9.12 18.71 7.06 18.71 1.94 14.5 4 14.5 9.12" style="fill:#999"/><polygon points="14.5 16.16 18.71 14.1 18.71 8.49 14.5 10.55 14.5 16.16" style="fill:#999"/></svg>