<svg xmlns="http://www.w3.org/2000/svg" xmlns:xlink="http://www.w3.org/1999/xlink" viewBox="0 0 20 25"><defs><linearGradient id="New_Gradient_Swatch_2" x1="5.13" y1="22.47" x2="1.1" y2="14.45" gradientUnits="userSpaceOnUse"><stop offset="0" stop-color="#407772"/><stop offset="0" stop-color="#2d2d2d"/><stop offset="1" stop-color="#777"/></linearGradient><linearGradient id="New_Gradient_Swatch_2-2" x1="5.15" y1="22.51" x2="1.08" y2="14.4" xlink:href="#New_Gradient_Swatch_2"/><linearGradient id="New_Gradient_Swatch_2-3" x1="18.67" y1="15.67" x2="14.65" y2="7.64" xlink:href="#New_Gradient_Swatch_2"/><linearGradient id="New_Gradient_Swatch_2-4" x1="18.7" y1="15.71" x2="14.62" y2="7.6" xlink:href="#New_Gradient_Swatch_2"/></defs><g id="W_copy_2" data-name="W copy 2"><polygon points="0 15 0 25 6.22 21.89 6.22 11.89 0 15" style="stroke-miterlimit:10;stroke-width:0.100000001490116px;fill:url(#New_Gradient_Swatch_2);stroke:url(#New_Gradient_Swatch_2-2)"/><polygon points="20 5 13.33 8.33 13.33 18.33 20 15 20 5" style="stroke-miterlimit:10;stroke-width:0.100000001490116px;fill:url(#New_Gradient_Swatch_2-3);stroke:url(#New_Gradient_Swatch_2-4)"/></g><g id="W_Door_copy" data-name="W Door copy"><polygon points="6.31 6.52 13.63 2.91 13.63 17.94 6.31 21.55 6.31 6.52" style="fill:#9e800b"/><path d="M13.38,3.32V17.78L6.56,21.14V6.68l6.82-3.36m.5-.81L6.06,6.37V22l7.82-3.86V2.51Z" style="fill:#dbb72c"/><polygon points="7.45 12.59 12.48 10.11 12.48 5 7.45 7.47 7.45 12.59" style="fill:#dbb72c"/><polygon points="7.45 19.63 12.48 17.16 12.48 11.54 7.45 14.02 7.45 19.63" style="fill:#dbb72c"/><polygon points="8.93 14.17 11.1 13.1 11.1 9.66 8.93 10.74 8.93 14.17" style="fill:#444"/><path d="M9.27,11.75a1.35,1.35,0,0,1,.72-1.1c.4-.2.72,0,.72.39a1.32,1.32,0,0,1-.49.9l.21,1.13-.88.44.18-1.35C9.47,12.17,9.27,12.06,9.27,11.75Z" style="fill:#aaa"/></g></svg>