<svg xmlns="http://www.w3.org/2000/svg" xmlns:xlink="http://www.w3.org/1999/xlink" viewBox="0 0 20 25"><defs><linearGradient id="New_Gradient_Swatch_2" x1="5.13" y1="22.47" x2="1.1" y2="14.45" gradientUnits="userSpaceOnUse"><stop offset="0" stop-color="#407772"/><stop offset="0" stop-color="#2d2d2d"/><stop offset="1" stop-color="#777"/></linearGradient><linearGradient id="New_Gradient_Swatch_2-2" x1="5.15" y1="22.51" x2="1.08" y2="14.4" xlink:href="#New_Gradient_Swatch_2"/><linearGradient id="New_Gradient_Swatch_2-3" x1="18.67" y1="15.67" x2="14.65" y2="7.64" xlink:href="#New_Gradient_Swatch_2"/><linearGradient id="New_Gradient_Swatch_2-4" x1="18.7" y1="15.71" x2="14.62" y2="7.6" xlink:href="#New_Gradient_Swatch_2"/></defs><g id="W_copy_2" data-name="W copy 2"><polygon points="0 15 0 25 6.22 21.89 6.22 11.89 0 15" style="stroke-miterlimit:10;stroke-width:0.100000001490116px;fill:url(#New_Gradient_Swatch_2);stroke:url(#New_Gradient_Swatch_2-2)"/><polygon points="20 5 13.33 8.33 13.33 18.33 20 15 20 5" style="stroke-miterlimit:10;stroke-width:0.100000001490116px;fill:url(#New_Gradient_Swatch_2-3);stroke:url(#New_Gradient_Swatch_2-4)"/></g><g id="W_Door_Open_copy" data-name="W Door Open copy"><polygon points="13.58 2.94 19.64 -0.03 19.64 15 13.58 17.96 13.58 2.94" style="fill:#9e800b"/><path d="M19.39.37V14.84l-5.56,2.72V3.09L19.39.37m.5-.8L13.33,2.78V18.36l6.56-3.21V-.43Z" style="fill:#dbb72c"/><polygon points="14.5 9.12 18.71 7.06 18.71 1.94 14.5 4 14.5 9.12" style="fill:#dbb72c"/><polygon points="14.5 16.16 18.71 14.1 18.71 8.49 14.5 10.55 14.5 16.16" style="fill:#dbb72c"/></g></svg>