<svg id="W_Door" data-name="W Door" xmlns="http://www.w3.org/2000/svg" xmlns:xlink="http://www.w3.org/1999/xlink" viewBox="0 0 20 25"><defs><linearGradient id="New_Gradient_Swatch_1" x1="5.09" y1="22.49" x2="1.06" y2="14.47" gradientUnits="userSpaceOnUse"><stop offset="0" stop-color="#407772"/><stop offset="0" stop-color="#485466"/><stop offset="1" stop-color="#bfcbdd"/></linearGradient><linearGradient id="New_Gradient_Swatch_1-2" x1="14.9" y1="22.51" x2="18.96" y2="14.42" gradientTransform="matrix(-1, 0, 0, 1, 20, 0)" xlink:href="#New_Gradient_Swatch_1"/><linearGradient id="New_Gradient_Swatch_1-3" x1="18.87" y1="15.57" x2="14.84" y2="7.55" xlink:href="#New_Gradient_Swatch_1"/><linearGradient id="New_Gradient_Swatch_1-4" x1="1.11" y1="15.61" x2="5.17" y2="7.53" gradientTransform="matrix(-1, 0, 0, 1, 20, 0)" xlink:href="#New_Gradient_Swatch_1"/></defs><polygon points="0 15 6.13 11.93 6.13 21.93 0 25 0 15" style="stroke-miterlimit:10;stroke-width:0.10000000149011612px;fill:url(#New_Gradient_Swatch_1);stroke:url(#New_Gradient_Swatch_1-2)"/><polygon points="20 5 20 15 13.71 18.14 13.71 8.14 20 5" style="stroke-miterlimit:10;stroke-width:0.10000000149011612px;fill:url(#New_Gradient_Swatch_1-3);stroke:url(#New_Gradient_Swatch_1-4)"/><polygon points="6.31 6.52 13.63 2.91 13.63 17.94 6.31 21.55 6.31 6.52" style="fill:#777"/><path d="M13.38,3.32V17.78L6.56,21.14V6.68l6.82-3.36m.5-.81L6.06,6.37V22l7.82-3.86V2.51Z" style="fill:#bbb"/><polygon points="7.45 12.59 12.48 10.11 12.48 5 7.45 7.47 7.45 12.59" style="fill:#999"/><polygon points="7.45 19.63 12.48 17.16 12.48 11.54 7.45 14.02 7.45 19.63" style="fill:#999"/><polygon points="8.93 14.17 11.1 13.1 11.1 9.66 8.93 10.74 8.93 14.17" style="fill:#444"/><path d="M9.27,11.75a1.35,1.35,0,0,1,.72-1.1c.4-.2.72,0,.72.39a1.32,1.32,0,0,1-.49.9l.21,1.13-.88.44.18-1.35C9.47,12.17,9.27,12.06,9.27,11.75Z" style="fill:#aaa"/></svg>