<svg id="Trees_W" data-name="Trees W" xmlns="http://www.w3.org/2000/svg" viewBox="0 0 20 25"><path d="M6.46,16.66a3,3,0,0,0,.17-1,2.15,2.15,0,0,0-1.19-2.17,3.26,3.26,0,0,0,.13-.9c0-1.22-.65-2.21-1.45-2.21s-1.37.87-1.44,2a1.5,1.5,0,0,0-.37,0c-1.08,0-2,1.34-2,3s.89,3,2,3l.12,0a1.38,1.38,0,0,0,1.17.92A1.09,1.09,0,0,0,4,19.07a1.41,1.41,0,0,0,1.2,1c.8,0,1.45-1,1.45-2.21A3,3,0,0,0,6.46,16.66Z" style="fill:#090;stroke:#333;stroke-linecap:round;stroke-miterlimit:10;stroke-width:0.5px"/><line x1="3.97" y1="15.12" x2="3.97" y2="22.84" style="fill:none;stroke:#333;stroke-linecap:round;stroke-miterlimit:10;stroke-width:0.5px"/><line x1="2.47" y1="16.77" x2="3.8" y2="17.86" style="fill:none;stroke:#333;stroke-linecap:round;stroke-miterlimit:10;stroke-width:0.5px"/><line x1="4.88" y1="18.4" x2="4.03" y2="19.7" style="fill:none;stroke:#333;stroke-linecap:round;stroke-miterlimit:10;stroke-width:0.5px"/><path d="M13.8,11.16a3,3,0,0,1-.18-1A2.15,2.15,0,0,1,14.72,8a3.68,3.68,0,0,1-.14-.9c0-1.22.59-2.22,1.35-2.24s1.33.85,1.42,2a1,1,0,0,1,.35-.06c1,0,1.91,1.3,1.93,3s-.79,3-1.83,3l-.11,0a1.36,1.36,0,0,1-1.11.94,1,1,0,0,1-.41-.1,1.37,1.37,0,0,1-1.13,1c-.77,0-1.41-1-1.43-2.18A3.07,3.07,0,0,1,13.8,11.16Z" style="fill:#090;stroke:#333;stroke-linecap:round;stroke-miterlimit:10;stroke-width:0.5px"/><line x1="16.9" y1="8.82" x2="16.9" y2="16.54" style="fill:none;stroke:#333;stroke-linecap:round;stroke-miterlimit:10;stroke-width:0.5px"/><line x1="14.74" y1="10.84" x2="16.74" y2="12.72" style="fill:none;stroke:#333;stroke-linecap:round;stroke-miterlimit:10;stroke-width:0.5px"/><line x1="17.78" y1="8.73" x2="16.96" y2="10.04" style="fill:none;stroke:#333;stroke-linecap:round;stroke-miterlimit:10;stroke-width:0.5px"/><line x1="15.84" y1="10.19" x2="16.75" y2="11.03" style="fill:none;stroke:#333;stroke-linecap:round;stroke-miterlimit:10;stroke-width:0.5px"/><path d="M7.26,10.75a2.91,2.91,0,0,0-.34,1,2.24,2.24,0,0,0,.76,2.35,3.76,3.76,0,0,0-.27.86c-.2,1.2.25,2.3,1,2.45s1.44-.61,1.7-1.7a1.18,1.18,0,0,0,.33.12c1,.2,2.08-1,2.36-2.58s-.33-3.11-1.36-3.31h-.11a1.41,1.41,0,0,0-1-1.12,1,1,0,0,0-.42,0A1.4,1.4,0,0,0,9,7.67c-.75-.15-1.53.7-1.74,1.9A3.1,3.1,0,0,0,7.26,10.75Z" style="fill:#090;stroke:#333;stroke-linecap:round;stroke-miterlimit:10;stroke-width:0.5px"/><line x1="10.2" y1="11.3" x2="10.2" y2="19.73" style="fill:none;stroke:#333;stroke-linecap:round;stroke-miterlimit:10;stroke-width:0.5px"/><line x1="8.2" y1="13.16" x2="10.09" y2="14.9" style="fill:none;stroke:#333;stroke-linecap:round;stroke-miterlimit:10;stroke-width:0.5px"/><line x1="11.13" y1="12.86" x2="10.3" y2="14.17" style="fill:none;stroke:#333;stroke-linecap:round;stroke-miterlimit:10;stroke-width:0.5px"/><line x1="9.03" y1="12.75" x2="8.68" y2="13.54" style="fill:none;stroke:#333;stroke-linecap:round;stroke-miterlimit:10;stroke-width:0.5px"/></svg>