<svg id="Layer_21" data-name="Layer 21" xmlns="http://www.w3.org/2000/svg" viewBox="0 0 20 20"><path d="M10.36,10.15l-1,0a4.07,4.07,0,0,0-1.74.43,2.44,2.44,0,0,0-1.21,1.49,3.21,3.21,0,0,0-.12.87c0,2.32,2.06,3.52,3.06,4a10.66,10.66,0,0,1-1.74-3.43,6.28,6.28,0,0,1-.09-1.59,14.29,14.29,0,0,1,2.61-.22c.83.05,2.1.22,3.15.38A2.5,2.5,0,0,0,10.36,10.15Z" style="fill:#e19d28"/><path d="M10.17,11.7a14.29,14.29,0,0,0-2.61.22,6.28,6.28,0,0,0,.09,1.59,10.66,10.66,0,0,0,1.74,3.43c.31.14.52.21.52.21s3.52-1,3.49-4.28a3.77,3.77,0,0,0-.08-.79C12.27,11.92,11,11.75,10.17,11.7Z" style="fill:#ecb458"/><path d="M9.89,17.13S6.29,16,6.31,13c0-2.86,3.07-2.79,3.07-2.79l.95,0a2.53,2.53,0,0,1,3.05,2.72C13.4,16.11,9.89,17.13,9.89,17.13Z" style="fill:none;stroke:#444545;stroke-miterlimit:10;stroke-width:0.10000000149011612px"/><path d="M9.94,9.67a.2.2,0,0,1-.2-.2c0-1.8-1.24-1.84-1.29-1.84a.22.22,0,0,1-.2-.21.2.2,0,0,1,.2-.19s1.69,0,1.69,2.24A.2.2,0,0,1,9.94,9.67Z" style="fill:#985e26"/><path d="M8.32,9.38l-.82.09c-1.54.16-1.42,2-1.42,2l1.53-.21a6.21,6.21,0,0,1,.27-1.09A5.69,5.69,0,0,1,8.32,9.38Z" style="fill:#985e26"/><path d="M13.75,11.47a1.86,1.86,0,0,0-1.44-2,23.36,23.36,0,0,0-2.44-.12,10.22,10.22,0,0,0-1.55.07,5.69,5.69,0,0,0-.44.84,6.21,6.21,0,0,0-.27,1.09c.82-.1,1.8-.2,2.44-.21A28.59,28.59,0,0,1,13.75,11.47Z" style="fill:#b1732a"/></svg>