<svg id="Layer_8_copy_3" data-name="Layer 8 copy 3" xmlns="http://www.w3.org/2000/svg" xmlns:xlink="http://www.w3.org/1999/xlink" viewBox="0 0 20 20"><defs><radialGradient id="radial-gradient" cx="9.26" cy="5.52" r="4.2" gradientUnits="userSpaceOnUse"><stop offset="0.06" stop-color="#bfd6dc"/><stop offset="0.5" stop-color="#92bfcc"/><stop offset="0.61" stop-color="#8dbac7"/><stop offset="0.74" stop-color="#7fabb8"/><stop offset="0.87" stop-color="#6793a0"/><stop offset="0.93" stop-color="#5b8794"/></radialGradient></defs><ellipse cx="9.26" cy="5.52" rx="3.82" ry="4.55" style="stroke:#5691a2;stroke-miterlimit:10;stroke-width:0.100000001490116px;fill:url(#radial-gradient)"/><path d="M9.59,9.93c2.72,2.13-.06,8.34,1.5,9.24" style="fill:none;stroke:#231f20;stroke-miterlimit:10;stroke-width:0.100000001490116px"/><polygon points="9.63 9.89 9.09 10.54 10.01 10.69 9.63 9.89" style="fill:#4c8c9e;stroke:#231f20;stroke-miterlimit:10;stroke-width:0.100000001490116px"/><path d="M7.7,6.22a.26.26,0,0,0-.07.19.37.37,0,0,0,.09.2A.4.4,0,0,0,8,6.77a.31.31,0,0,0,.27-.18.39.39,0,0,0,0-.35A.61.61,0,0,0,8,6a.16.16,0,0,0-.1,0,.11.11,0,0,0-.07.06.13.13,0,0,0,0,.17l.1,0H8l0,0s0,0,0,0v0l0,0h0s0,0,0,0v0h0v.05s0,0,0,0h0l0,0h0l0,0s0,0,0,0H8s0,0,0,0H8v0l0,0s0,0,0,0h0s0,0,0,0v0h0v0s0,0,0,0h0a.13.13,0,0,0-.18-.18Z" style="fill:#231f20"/><path d="M10,6a.36.36,0,0,0,0,.4.54.54,0,0,0,.15.15.34.34,0,0,0,.17.08.25.25,0,0,0,.23-.06.27.27,0,0,0,.1-.16A.63.63,0,0,0,10.5,6a.37.37,0,0,0-.4-.2.13.13,0,0,0-.09.15.13.13,0,0,0,.16.09h0s0,0,0,0h0l0,0h0s0,0,0,0,0,0,0,0l0,0s0,0,0,0v0a.19.19,0,0,1,0,.07v0h0v0h0s0,0,0,0v0a0,0,0,0,0,0,0s0,0,0,0h-.06l0,0,0,0h0l-.05,0h0l0,0v0h0s0,0,0,0,0,0,0,0h0v0h0s0,0,0,0h0A.13.13,0,0,0,10,6Z" style="fill:#231f20"/><path d="M7.33,4.82l1,.7a.13.13,0,0,0,.17,0,.13.13,0,0,0-.05-.18c-.31-.23-.63-.47-1-.69a.13.13,0,0,0-.17,0,.12.12,0,0,0,0,.17Z" style="fill:#231f20"/><path d="M9.81,5.52a3.52,3.52,0,0,0,1.35-.78c.11-.12-.07-.3-.18-.18a3.21,3.21,0,0,1-1.24.72.12.12,0,0,0-.08.15.13.13,0,0,0,.15.09Z" style="fill:#231f20"/><path d="M8.9,7.17l0,.6a.23.23,0,0,0,0,.14A.22.22,0,0,0,9,8a1.61,1.61,0,0,0,.31,0,.14.14,0,0,0,.13-.13c0-.06-.06-.13-.13-.12H9.08s0,0,0,0h0l0,0v0s0,0,0,0,0-.09,0-.13l0-.51A.12.12,0,0,0,9,7.05a.13.13,0,0,0-.13.12Z" style="fill:#231f20"/><path d="M8.37,9.12a1.28,1.28,0,0,0,1.14.16.94.94,0,0,0,.73-.81c0-.16-.23-.16-.25,0a.7.7,0,0,1-.57.58,1.06,1.06,0,0,1-.87-.11c-.12-.1-.3.07-.18.18Z" style="fill:#231f20"/></svg>