<svg id="Layer_8_copy_4" data-name="Layer 8 copy 4" xmlns="http://www.w3.org/2000/svg" xmlns:xlink="http://www.w3.org/1999/xlink" viewBox="0 0 20 20"><defs><radialGradient id="radial-gradient" cx="9.26" cy="5.52" r="4.2" gradientUnits="userSpaceOnUse"><stop offset="0.06" stop-color="#f8f9e2"/><stop offset="0.5" stop-color="#cfdc28"/><stop offset="0.65" stop-color="#cbd72a"/><stop offset="0.83" stop-color="#c0c830"/><stop offset="0.93" stop-color="#b8bd35"/></radialGradient></defs><ellipse cx="9.26" cy="5.52" rx="3.82" ry="4.55" style="stroke:#a0a154;stroke-miterlimit:10;stroke-width:0.100000001490116px;fill:url(#radial-gradient)"/><path d="M9.59,9.93c2.72,2.13-.06,8.34,1.5,9.24" style="fill:none;stroke:#231f20;stroke-miterlimit:10;stroke-width:0.100000001490116px"/><polygon points="9.63 9.89 9.09 10.54 10.01 10.69 9.63 9.89" style="fill:#4c8c9e;stroke:#231f20;stroke-miterlimit:10;stroke-width:0.100000001490116px"/><path d="M6.81,5.44a1.24,1.24,0,0,1,.68-.13,1.23,1.23,0,0,1,.33.08L8,5.47l.08.06,0,0s0,0,0,0a.12.12,0,0,0,.12.13.14.14,0,0,0,.13-.13c0-.16-.2-.26-.33-.33a1.28,1.28,0,0,0-.43-.14,1.38,1.38,0,0,0-.91.16c-.14.08,0,.29.13.21Z" style="fill:#231f20"/><path d="M11.33,5.32a.52.52,0,0,0-.39-.2L10.37,5a1.25,1.25,0,0,0-.51,0c-.17,0-.26.19-.41.25a.12.12,0,0,0,0,.17.13.13,0,0,0,.17,0c.12,0,.2-.18.33-.23a1.08,1.08,0,0,1,.4,0l.46.08.22,0a.17.17,0,0,1,.13.07c.08.14.3,0,.22-.13Z" style="fill:#231f20"/><path d="M9.65,6a.32.32,0,0,0,0,.44.41.41,0,0,0,.2.12.43.43,0,0,0,.25,0c.1,0,.14-.11.18-.2a1,1,0,0,0,0-.24.37.37,0,0,0-.12-.24.41.41,0,0,0-.21-.1,1.07,1.07,0,0,0-.31,0,.35.35,0,0,0-.14.06.16.16,0,0,0,0,.17.12.12,0,0,0,.06.08.13.13,0,0,0,.09,0c.06,0,.12-.09.09-.15s0,0,0,0l0,0h0s0,0,0,0,0,0,0,0H10s0,0,0,0h0l0,0h0l0,0h0s0,0,0,0v0h0v0h0v.06h0v.06a.64.64,0,0,1,0,.07h0v0h0s0,0,0,0,0,0,0,0H9.85l0,0s0,0,0,0l0,0h0s0,0,0,0h0s0,0,0,0v0s0,0,0,0v0s0,0,0,0h0s0,0,0,0h0a.14.14,0,0,0,0-.18.13.13,0,0,0-.18,0Z" style="fill:#231f20"/><path d="M7.77,6.07a.29.29,0,0,0-.2.37.55.55,0,0,0,.37.31.34.34,0,0,0,.45-.18.47.47,0,0,0,0-.26.55.55,0,0,0-.12-.21A.32.32,0,0,0,8,6a.25.25,0,0,0-.24.12A.12.12,0,1,0,8,6.23s0,0,0,0H8s0,0,0,0H8s0,0,0,0h.07s0,0,0,0,0,0,0,0v0l0,0v0s0,0,0,0a.19.19,0,0,1,0,.07.06.06,0,0,1,0,0s0,0,0,0v0h0s0,0,0,0h0s0,0,0,0H8.09s0,0,0,0,0,0,0,0,0,0,0,0H8l-.08,0,0,0h0l0,0h0v0s0,0,0,0v0s0,0,0,0h0v0s0,0,0,0h0s0,0,0,0h0a.09.09,0,0,0,.07-.06.09.09,0,0,0,0-.09.14.14,0,0,0,0-.08.11.11,0,0,0-.1,0Z" style="fill:#231f20"/><path d="M8.49,7.12a.5.5,0,0,0-.08.37c0,.15.18.21.32.25a.58.58,0,0,0,.7-.2.38.38,0,0,0,0-.42.13.13,0,0,0-.17,0,.12.12,0,0,0,0,.17l0,0h0v0s0,0,0,0v0h0v0s0,0,0,0,0,0,0,0v0h0l0,0h0l0,0h0L9,7.53H8.89l-.1,0-.09,0h0s0,0,0,0,0,0,0,0h0v0h0s0,0,0-.08v0l0,0a.13.13,0,0,0-.05-.17.12.12,0,0,0-.17,0Z" style="fill:#231f20"/><path d="M8,9c.13.29.6.35.88.36A2.51,2.51,0,0,0,10,9.1a5.66,5.66,0,0,0,1-.62c.21-.16.45-.46.18-.69s-.3.08-.17.18-.38.47-.48.54a4.38,4.38,0,0,1-.7.4A2.18,2.18,0,0,1,9,9.1a1.58,1.58,0,0,1-.43,0c-.12,0-.28-.06-.33-.19S8,8.84,8,9Z" style="fill:#231f20"/></svg>