<svg xmlns="http://www.w3.org/2000/svg" xmlns:xlink="http://www.w3.org/1999/xlink" viewBox="0 0 20 20"><defs><radialGradient id="radial-gradient" cx="9.26" cy="5.52" r="4.2" gradientUnits="userSpaceOnUse"><stop offset="0.06" stop-color="#efc2bf"/><stop offset="0.5" stop-color="#ef4137"/><stop offset="0.6" stop-color="#ea4137"/><stop offset="0.73" stop-color="#db4138"/><stop offset="0.86" stop-color="#c34038"/><stop offset="0.93" stop-color="#b34039"/></radialGradient><radialGradient id="radial-gradient-2" cx="9.26" cy="5.52" r="4.2" gradientUnits="userSpaceOnUse"><stop offset="0.06" stop-color="#dbbedc"/><stop offset="0.5" stop-color="#b485bc"/><stop offset="0.66" stop-color="#b080b9"/><stop offset="0.84" stop-color="#a371b1"/><stop offset="0.93" stop-color="#9b68ac"/></radialGradient></defs><g id="Layer_8" data-name="Layer 8"><ellipse cx="9.26" cy="5.52" rx="3.82" ry="4.55" style="stroke:#ef4137;stroke-miterlimit:10;stroke-width:0.100000001490116px;fill:url(#radial-gradient)"/><path d="M9.59,9.93c2.72,2.13-.06,8.34,1.5,9.24" style="fill:none;stroke:#231f20;stroke-miterlimit:10;stroke-width:0.100000001490116px"/><polygon points="9.63 9.89 9.09 10.54 10.01 10.69 9.63 9.89" style="fill:#ef4136;stroke:#231f20;stroke-miterlimit:10;stroke-width:0.100000001490116px"/><path d="M7,6.16c.28-.09.5-.33.81-.31a.71.71,0,0,1,.59.37c.07.14.29,0,.21-.13a1,1,0,0,0-.74-.49.87.87,0,0,0-.45.07c-.17.07-.31.19-.49.25s-.08.29.07.24Z" style="fill:#231f20"/><path d="M10.21,6.22a.92.92,0,0,1,1.39,0c.11.12.28-.06.17-.18A1.16,1.16,0,0,0,10,6.1c-.09.13.12.26.21.12Z" style="fill:#231f20"/><path d="M8.94,6.61c-.07.12-.13.24-.19.36a2.43,2.43,0,0,0-.16.37.29.29,0,0,0,.14.35.53.53,0,0,0,.41,0,.13.13,0,0,0,.09-.16.12.12,0,0,0-.15-.08.7.7,0,0,1-.14,0H8.85s0,0,0,0,0,0,0,0h0a.69.69,0,0,1,0-.13,4.37,4.37,0,0,1,.29-.57c.08-.14-.14-.26-.22-.13Z" style="fill:#231f20"/><path d="M7.59,8.36A1.43,1.43,0,0,0,9.26,9a1.83,1.83,0,0,0,1.42-1.07c.05-.16-.19-.22-.24-.07a1.58,1.58,0,0,1-1.2.88,1.17,1.17,0,0,1-1.43-.49c-.07-.15-.28,0-.22.13Z" style="fill:#231f20"/></g><g id="Layer_8_copy_2" data-name="Layer 8 copy 2"><ellipse cx="9.26" cy="5.52" rx="3.82" ry="4.55" style="stroke:#8e55a2;stroke-miterlimit:10;stroke-width:0.100000001490116px;fill:url(#radial-gradient-2)"/><path d="M9.59,9.93c2.72,2.13-.06,8.34,1.5,9.24" style="fill:none;stroke:#231f20;stroke-miterlimit:10;stroke-width:0.100000001490116px"/><polygon points="9.63 9.89 9.09 10.54 10.01 10.69 9.63 9.89" style="fill:#8d4c9e;stroke:#231f20;stroke-miterlimit:10;stroke-width:0.100000001490116px"/><path d="M7.14,5.89a.33.33,0,0,0-.06.25.24.24,0,0,0,.06.11l.08,0h.09a.24.24,0,0,0,.12-.07l.07-.09a.27.27,0,0,0,0-.23.28.28,0,0,0-.13-.17l-.12,0a.27.27,0,0,0-.12,0A.24.24,0,0,0,7,6a.45.45,0,0,0,0,.11s0,.07,0,.1a.33.33,0,0,0,.11.09.21.21,0,0,0,.13,0,.26.26,0,0,0,.23-.13.14.14,0,0,0,0-.09A.16.16,0,0,0,7.52,6a.14.14,0,0,0-.09,0A.16.16,0,0,0,7.35,6v0l0,0,0,0,0,0,0,0h0l0,0,0,0,0,0,0,0,0,0V6a.13.13,0,0,1,0-.06V6a0,0,0,0,1,0,0l0,0,0,0,0,0h0l0,0h0l0,0,0,0,0,0,0,0,0,0V6a0,0,0,0,0,0,0V6s0,0,0,0V6a.09.09,0,0,1,0,.06l0,0,0,0,0,0,0,0h0l0,0h0l0,0,0,0,0,0a0,0,0,0,1,0,0v.05a.09.09,0,0,1,0-.05v0a.25.25,0,0,1,0-.07.12.12,0,0,0,0-.1.09.09,0,0,0,0-.07.12.12,0,0,0-.1,0,.24.24,0,0,0-.08.06Z" style="fill:#231f20"/><path d="M6.61,5.59,7,5.1l.19-.25.07-.11s.07-.11.11-.13H7.26c.06,0,.13.11.18.15l.15.14c.11.09.23.17.35.25a2.42,2.42,0,0,0,.79.29.12.12,0,0,0,.06-.24A2.19,2.19,0,0,1,8.09,5a4.26,4.26,0,0,1-.63-.49.21.21,0,0,0-.29,0,1.78,1.78,0,0,0-.23.31l-.55.73c-.09.13.12.25.22.12Z" style="fill:#231f20"/><path d="M9.91,5.62a.18.18,0,0,0-.14.19.19.19,0,0,0,0,.1A.17.17,0,0,0,9.91,6H10a.31.31,0,0,0,.1,0,.41.41,0,0,0,.07-.11.29.29,0,0,0,0-.13.24.24,0,0,0-.13-.19.17.17,0,0,0-.17,0,.2.2,0,0,0-.09.13.36.36,0,0,0,0,.1s0,0,0,.06a.13.13,0,0,0,0,.06A.26.26,0,0,0,9.88,6,.29.29,0,0,0,10,6a.23.23,0,0,0,.16,0l.08-.08a.26.26,0,0,0,0-.15.22.22,0,0,0-.09-.12.13.13,0,0,0-.09,0,.16.16,0,0,0-.08.06.14.14,0,0,0,0,.09.12.12,0,0,0,.06.08h0l0,0h0l0,0h0v0l0,0v0l0,0h0l0,0h0l0,0,0,0,0,0,0,0v0s0,0,0,0v0a.09.09,0,0,1,0-.07v0s0,0,0,0l0,0,0,0,0,0h0l0,0h0l0,0h0l0,0,0,0,0,0a.05.05,0,0,1,0,0v0a.07.07,0,0,1,0,0v0a0,0,0,0,1,0,0l0,0,0,0,0,0a0,0,0,0,1,0,0l0,0,0,0h0l0,0h0l0,0h0v0l0,0h0a.16.16,0,0,0,.08-.06.17.17,0,0,0,0-.1.12.12,0,0,0-.15-.08Z" style="fill:#231f20"/><path d="M9.85,5.25c.06-.11.16-.31.29-.34h.47a3.8,3.8,0,0,0,1-.08.13.13,0,0,0-.07-.24,4.12,4.12,0,0,1-1.11.07.9.9,0,0,0-.49.06,1,1,0,0,0-.31.4c-.08.14.13.27.21.13Z" style="fill:#231f20"/><path d="M8.47,7.71A.41.41,0,0,0,8.94,8a.43.43,0,0,0,.24-.16.67.67,0,0,0,.13-.3.13.13,0,0,0-.13-.12.12.12,0,0,0-.12.12s0,0,0,0v0s0,0,0,0,0,0,0,0v0l0,0H9l0,0H9l0,0s0,0,0,0H8.84s0,0,0,0H8.79s0,0,0,0h0s0,0,0,0l0,0s0,0,0,0h0v0s0,0,0,0v0a.12.12,0,0,0-.15-.09.13.13,0,0,0-.09.15Z" style="fill:#231f20"/><path d="M8.08,8.62a.27.27,0,0,0,.21.24c.14,0,.26-.07.39-.09a1.59,1.59,0,0,1,.53.05,4.9,4.9,0,0,0,.54,0,1.19,1.19,0,0,0,.84-.2A1.43,1.43,0,0,0,11,8c.05-.16-.19-.22-.24-.07a1.33,1.33,0,0,1-.26.55.86.86,0,0,1-.68.17A7.22,7.22,0,0,1,9,8.53a1.09,1.09,0,0,0-.36,0l-.28.09c0-.16-.27-.16-.25,0Z" style="fill:#231f20"/></g></svg>