<svg id="Layer_8" data-name="Layer 8" xmlns="http://www.w3.org/2000/svg" xmlns:xlink="http://www.w3.org/1999/xlink" viewBox="0 0 20 20"><defs><radialGradient id="radial-gradient" cx="9.26" cy="5.52" r="4.2" gradientUnits="userSpaceOnUse"><stop offset="0.06" stop-color="#efc2bf"/><stop offset="0.5" stop-color="#ef4137"/><stop offset="0.6" stop-color="#ea4137"/><stop offset="0.73" stop-color="#db4138"/><stop offset="0.86" stop-color="#c34038"/><stop offset="0.93" stop-color="#b34039"/></radialGradient></defs><ellipse cx="9.26" cy="5.52" rx="3.82" ry="4.55" style="stroke:#ef4137;stroke-miterlimit:10;stroke-width:0.10000000149011612px;fill:url(#radial-gradient)"/><path d="M9.59,9.93c2.72,2.13-.06,8.34,1.5,9.24" style="fill:none;stroke:#231f20;stroke-miterlimit:10;stroke-width:0.10000000149011612px"/><polygon points="9.63 9.89 9.09 10.54 10.01 10.69 9.63 9.89" style="fill:#ef4136;stroke:#231f20;stroke-miterlimit:10;stroke-width:0.10000000149011612px"/><path d="M7,6.16c.28-.09.5-.33.81-.31a.71.71,0,0,1,.59.37c.07.14.29,0,.21-.13a1,1,0,0,0-.74-.49.87.87,0,0,0-.45.07c-.17.07-.31.19-.49.25s-.08.29.07.24Z" style="fill:#231f20"/><path d="M10.21,6.22a.92.92,0,0,1,1.39,0c.11.12.28-.06.17-.18A1.16,1.16,0,0,0,10,6.1c-.09.13.12.26.21.12Z" style="fill:#231f20"/><path d="M8.94,6.61c-.07.12-.13.24-.19.36a2.43,2.43,0,0,0-.16.37.29.29,0,0,0,.14.35.53.53,0,0,0,.41,0,.13.13,0,0,0,.09-.16.12.12,0,0,0-.15-.08.7.7,0,0,1-.14,0H8.85s0,0,0,0,0,0,0,0h0a.69.69,0,0,1,0-.13,4.37,4.37,0,0,1,.29-.57c.08-.14-.14-.26-.22-.13Z" style="fill:#231f20"/><path d="M7.59,8.36A1.43,1.43,0,0,0,9.26,9a1.83,1.83,0,0,0,1.42-1.07c.05-.16-.19-.22-.24-.07a1.58,1.58,0,0,1-1.2.88,1.17,1.17,0,0,1-1.43-.49c-.07-.15-.28,0-.22.13Z" style="fill:#231f20"/></svg>