<svg id="Layer_18" data-name="Layer 18" xmlns="http://www.w3.org/2000/svg" viewBox="0 0 20 20"><path d="M5,10.45,7,8.87A18.34,18.34,0,0,0,8.87,8.4c.49-.18,2.28-.84,2.88-1a6.62,6.62,0,0,1,2.68.09,3.81,3.81,0,0,1,2.25,2,9.25,9.25,0,0,1,.72,2.51c.1.68.07,1,.14,1.4A11.67,11.67,0,0,0,18,15.08c.16.42.37,1.23.37,1.23a1.13,1.13,0,0,1-.77.86c-.63.14-1.3.23-1.51,0a.66.66,0,0,1-.14-.54,13.09,13.09,0,0,1-1.74-1.7,12.93,12.93,0,0,1-1.91.61,37.64,37.64,0,0,1-4.05.28,11,11,0,0,1-3.09-.42A4.87,4.87,0,0,1,4,14.87" style="fill:#766745;stroke:#bc8151;stroke-linecap:round;stroke-miterlimit:10;stroke-width:0.20000000298023224px"/><path d="M10.29,15.11a9.65,9.65,0,0,1,.44,1.94,11.63,11.63,0,0,1-.05,1.34,1.94,1.94,0,0,1-1.24.42c-.82,0-1-.09-1-.35a.35.35,0,0,1,.11-.4L7,15.5" style="fill:#766745;stroke:#bc8151;stroke-linecap:round;stroke-miterlimit:10;stroke-width:0.20000000298023224px"/><path d="M5.46,15.2a13,13,0,0,1-.72,1.18,3.17,3.17,0,0,1-.61.64,2.23,2.23,0,0,1-.74.18c-.21,0-.87,0-1.08,0A.35.35,0,0,1,2,16.8a.91.91,0,0,1,.22-.39s.18-1.28.29-1.7,1.26-3.16,1.26-3.16" style="fill:#766745;stroke:#bc8151;stroke-linecap:round;stroke-miterlimit:10;stroke-width:0.20000000298023224px"/><path d="M2.84,9S3,8.22,2.38,8.2a.73.73,0,0,0-.77.7c0,.15,0,.44.55.56" style="fill:#766745;stroke:#bc8151;stroke-linecap:round;stroke-miterlimit:10;stroke-width:0.20000000298023224px"/><path d="M1.59,10.89a2.64,2.64,0,0,0,2.88,2.93c2.54,0,3.79-1,3.89-2.72S7.1,8.17,5.22,8A3.18,3.18,0,0,0,2,9.61,4.16,4.16,0,0,0,1.59,10.89Z" style="fill:#766745;stroke:#bc8151;stroke-linecap:round;stroke-miterlimit:10;stroke-width:0.20000000298023224px"/><path d="M4.63,10.38c.89,0,1.63.23,1.56,1A1.4,1.4,0,0,1,4.7,12.84a1.33,1.33,0,0,1-1.51-1.21,1,1,0,0,1,.54-1A2.3,2.3,0,0,1,4.63,10.38Z" style="fill:#bc8151"/><path d="M6.75,8.7A.81.81,0,0,1,7,8a.69.69,0,0,1,.88,0c.21.25.4.71.15.88a4,4,0,0,1-.69.32" style="fill:#766745;stroke:#bc8151;stroke-linecap:round;stroke-miterlimit:10;stroke-width:0.20000000298023224px"/><path d="M2.68,9.91a.25.25,0,0,1,.4.06c.07.13.21.45,0,.59s-.44.12-.48-.18A.66.66,0,0,1,2.68,9.91Z" style="fill:#222"/><path d="M6.41,9.55a.37.37,0,0,1,.31.32c0,.11.07.47-.18.48s-.37-.13-.39-.37S6.41,9.55,6.41,9.55Z" style="fill:#222"/><path d="M4.52,10.72c.41,0,.75.1.77.33s-.19.51-.77.52-.72-.2-.74-.39C3.74,10.77,4.52,10.72,4.52,10.72Z" style="fill:#473f2a"/><path d="M4.41,11.57a1.93,1.93,0,0,0,0,.43c0,.15.09.19.16.17s0-.13,0-.24a1.81,1.81,0,0,1,0-.37Z" style="fill:#473f2a"/></svg>