<svg id="Bowl" xmlns="http://www.w3.org/2000/svg" xmlns:xlink="http://www.w3.org/1999/xlink" viewBox="0 0 20 20"><defs><linearGradient id="linear-gradient" x1="9.98" y1="18.88" x2="9.98" y2="10.45" gradientUnits="userSpaceOnUse"><stop offset="0" stop-color="#9c9c9c"/><stop offset="0.58" stop-color="#fff"/></linearGradient><linearGradient id="linear-gradient-2" x1="10.02" y1="11.35" x2="10.02" y2="9.05" gradientUnits="userSpaceOnUse"><stop offset="0" stop-color="#9c9c9c"/><stop offset="0.74" stop-color="#fff"/></linearGradient></defs><ellipse cx="10.01" cy="18.35" rx="4.61" ry="1.12" style="fill:#fff;stroke:#444545;stroke-miterlimit:10;stroke-width:0.10000000149011612px"/><path d="M0,10.45c.13,4.67,4.54,8.43,10,8.43s9.84-3.76,10-8.43Z" style="stroke:#444545;stroke-miterlimit:10;stroke-width:0.10000000149011612px;fill:url(#linear-gradient)"/><ellipse cx="10.02" cy="10.2" rx="9.03" ry="1.15" style="stroke:#444545;stroke-miterlimit:10;stroke-width:0.10000000149011612px;fill:url(#linear-gradient-2)"/><path d="M10,8.76c-5.52,0-10,.72-10,1.61S4.48,12,10,12s10-.72,10-1.61S15.52,8.76,10,8.76Zm0,2.59c-5,0-9-.52-9-1.15s4-1.15,9-1.15,9,.52,9,1.15S15,11.35,10,11.35Z" style="fill:#ddd;stroke:#444545;stroke-miterlimit:10;stroke-width:0.10000000149011612px"/><path d="M16.59,9.92c-.25,0-1.48.63-2.2.7a26.76,26.76,0,0,1-3-.58,16.49,16.49,0,0,0-2.56.49c-.49.14-1.91-.49-2.26-.54a10.24,10.24,0,0,0-1.86.37,10,10,0,0,0-2.37-.09.59.59,0,0,0-.43.42,40,40,0,0,0,8,.62c4.12,0,7.58-.35,8.67-.83a4.51,4.51,0,0,0-.61-.14C17.87,10.34,16.85,9.94,16.59,9.92Z" style="fill:#eadc1a"/><path d="M3.82,10.61a2.66,2.66,0,0,0,.28,0,2.28,2.28,0,0,0,.52,0l.17-.08c-.22-1-.91-4-1.1-4.76A.93.93,0,0,0,2.47,5c-.64.24-.4,1.29-.4,1.29l1.75,4.34Z" style="fill:#808285"/><path d="M4.1,10.64a2.28,2.28,0,0,0,.52,0A1.76,1.76,0,0,0,5,10.45c-.23-1-.92-4-1.1-4.77A1,1,0,0,0,2.65,4.9c-.65.24-.4,1.29-.4,1.29L4,10.63Z" style="fill:#a7a9ac"/></svg>