<svg id="Layer_25" data-name="Layer 25" xmlns="http://www.w3.org/2000/svg" xmlns:xlink="http://www.w3.org/1999/xlink" viewBox="0 0 20 20"><defs><linearGradient id="linear-gradient" x1="12.29" y1="8.13" x2="12.29" y2="4.11" gradientTransform="matrix(1, 0, 0, -1, 0, 22)" gradientUnits="userSpaceOnUse"><stop offset="0" stop-color="#ef9e50"/><stop offset="1" stop-color="#cf8845"/></linearGradient><linearGradient id="linear-gradient-2" x1="10.33" y1="12.95" x2="10.33" y2="7.32" gradientTransform="matrix(1, 0, 0, -1, 0, 22)" gradientUnits="userSpaceOnUse"><stop offset="0.13" stop-color="#ef8650"/><stop offset="0.77" stop-color="#a95528"/><stop offset="1" stop-color="#c86128"/></linearGradient><linearGradient id="linear-gradient-3" x1="5" y1="9.58" x2="11.1" y2="2.26" gradientTransform="matrix(1, 0, 0, -1, 0, 22)" gradientUnits="userSpaceOnUse"><stop offset="0" stop-color="#fadca3"/><stop offset="1" stop-color="#e0c692"/></linearGradient></defs><g id="Layer_1" data-name="Layer 1"><path d="M8.86,17.82l1,1.39S14.41,17,15,16.69s.68-.46.71-.63,0-3,0-3.27c-1.85,1-4,1.1-5.5,2.49A5.09,5.09,0,0,0,8.86,17.82Z" style="fill:url(#linear-gradient)"/><path d="M16,11.67c0-1-1.18-1.44-2.55-1.83a6.8,6.8,0,0,0-3-.18,6.31,6.31,0,0,0-1.68.69c-.26.22-3.93,1.51-3.93,1.51l-.08.05,4.15,5.91a5,5,0,0,1,1.3-2.51c1.48-1.38,3.65-1.51,5.52-2.51v0A1.67,1.67,0,0,0,16,11.67Z" style="fill:url(#linear-gradient-2)"/><path d="M4.27,12.33a1.22,1.22,0,0,0-.14.74c0,.4.33.66.47,1a2.47,2.47,0,0,1,.08,1.05c0,.57,0,1.14,0,1.72,0,.37,0,1.05.28,1.29A3,3,0,0,0,6,18.57c.73.19,1.46.38,2.2.53a8.48,8.48,0,0,0,1,.15,1,1,0,0,0,.62-.05.7.7,0,0,0,.26-.59c0-.33,0-.66,0-1,0-.77,0-1.54,0-2.31,0,0,.13-.14.15-.17a1.28,1.28,0,0,0,.24-.48,2.27,2.27,0,0,0,0-1.24,1.46,1.46,0,0,0-1.34-.91c-.41-.06-.81-.1-1.23-.12a5.9,5.9,0,0,1-1.43-.31,5.2,5.2,0,0,0-1.35-.26A.91.91,0,0,0,4.27,12.33Z" style="fill:url(#linear-gradient-3)"/><g style="opacity:0.6000000238418579"><path d="M5.71,14.06c0-.13.19-.38.35-.25s.16.33.07.36S5.71,14.36,5.71,14.06Z" style="fill:#bb9d65"/></g><path d="M6.35,14.59c.05.12.17,0,.17,0s.14-.1,0-.15A.12.12,0,0,0,6.35,14.59Z" style="fill:#bb9d65;opacity:0.6000000238418579;isolation:isolate"/><path d="M5,13.62c0,.08.13,0,.13,0s.1-.08,0-.12A.1.1,0,0,0,5,13.62Z" style="fill:#bb9d65;opacity:0.6000000238418579;isolation:isolate"/><path d="M6.22,13c0,.11.11.1.11.1s.15,0,.09-.09A.11.11,0,0,0,6.22,13Z" style="fill:#bb9d65;opacity:0.6000000238418579;isolation:isolate"/><path d="M8.41,14.66c0,.11.12.1.12.1s.15,0,.09-.1A.12.12,0,0,0,8.41,14.66Z" style="fill:#bb9d65;opacity:0.6000000238418579;isolation:isolate"/><path d="M9.42,16.25c0,.09.14,0,.14,0s.1-.07,0-.11A.1.1,0,0,0,9.42,16.25Z" style="fill:#bb9d65;opacity:0.6000000238418579;isolation:isolate"/><path d="M6.67,16.68c0,.1.15,0,.15,0s.12-.08,0-.12A.11.11,0,0,0,6.67,16.68Z" style="fill:#bb9d65;opacity:0.6000000238418579;isolation:isolate"/><path d="M7.22,17.82c0,.08.09.1.09.1s.12,0,.08-.07A.09.09,0,0,0,7.22,17.82Z" style="fill:#bb9d65;opacity:0.6000000238418579;isolation:isolate"/><path d="M8.52,17c.1,0,0-.13,0-.13s0-.12-.1,0A.09.09,0,0,0,8.52,17Z" style="fill:#bb9d65;opacity:0.6000000238418579;isolation:isolate"/><path d="M5.45,18.1c.08,0,0-.1,0-.1s0-.09-.09,0A.07.07,0,0,0,5.45,18.1Z" style="fill:#bb9d65;opacity:0.6000000238418579;isolation:isolate"/><path d="M9,16.89c.06,0,.08-.05.08-.05s0-.08,0-.07A.07.07,0,0,0,9,16.89Z" style="fill:#bb9d65;opacity:0.6000000238418579;isolation:isolate"/><path d="M6.83,15.76c.06.08.13,0,.13,0s.08-.1,0-.11S6.79,15.72,6.83,15.76Z" style="fill:#bb9d65;opacity:0.6000000238418579;isolation:isolate"/><path d="M8.87,13.63c.06.07.13,0,.13,0s.07-.1,0-.1A.09.09,0,0,0,8.87,13.63Z" style="fill:#bb9d65;opacity:0.6000000238418579;isolation:isolate"/><path d="M9.18,15.63c.07.09.15,0,.15,0s.09-.12,0-.12A.11.11,0,0,0,9.18,15.63Z" style="fill:#bb9d65;opacity:0.6000000238418579;isolation:isolate"/><path d="M6.84,13.73c.06.07.13,0,.13,0s.08-.11,0-.11A.1.1,0,0,0,6.84,13.73Z" style="fill:#bb9d65;opacity:0.6000000238418579;isolation:isolate"/><path d="M8.48,14.9s.08,0,.08,0,0-.07,0-.07A.06.06,0,0,0,8.48,14.9Z" style="fill:#bb9d65;opacity:0.6000000238418579;isolation:isolate"/><path d="M4.93,14.28c.05.07.12,0,.12,0s.07-.1,0-.1A.08.08,0,0,0,4.93,14.28Z" style="fill:#bb9d65;opacity:0.6000000238418579;isolation:isolate"/><path d="M5.53,15.38c.06.08.13,0,.13,0s.08-.11,0-.11A.1.1,0,0,0,5.53,15.38Z" style="fill:#bb9d65;opacity:0.6000000238418579;isolation:isolate"/><path d="M9.14,14.34c0,.07.11,0,.11,0s.07-.09,0-.1A.09.09,0,0,0,9.14,14.34Z" style="fill:#bb9d65;opacity:0.6000000238418579;isolation:isolate"/><path d="M5.51,16.45c.15.05.15-.17.15-.17s0-.22-.15-.13A.17.17,0,0,0,5.51,16.45Z" style="fill:#bb9d65;opacity:0.6000000238418579;isolation:isolate"/><g style="opacity:0.6000000238418579"><path d="M6.37,17c.07.18,0,.6-.33.51s-.38-.36-.28-.44S6.22,16.6,6.37,17Z" style="fill:#bb9d65"/></g><path d="M7.61,15.76c-.13.12.09.24.09.24s.2.13.2-.08A.18.18,0,0,0,7.61,15.76Z" style="fill:#bb9d65;opacity:0.6000000238418579;isolation:isolate"/><path d="M9.06,16.64c-.21,0-.11.27-.11.27s.08.27.23.09A.2.2,0,0,0,9.06,16.64Z" style="fill:#bb9d65;opacity:0.6000000238418579;isolation:isolate"/><g style="opacity:0.20000000298023224"><path d="M11.44,9.86a7.16,7.16,0,0,1,1.88.26c1.49.42,2.31.8,2.34,1.56a1.55,1.55,0,0,1-.2.93.24.24,0,0,0-.08.19c0,1.15.06,3,0,3.22,0,0,0,.14-.55.41s-4.33,2.14-5,2.49a.35.35,0,0,0-.14,0s0,0-.16,0H9.25a8.61,8.61,0,0,1-1-.16c-.66-.13-1.33-.3-2-.47l-.18,0a2.69,2.69,0,0,1-1-.37c-.19-.13-.18-.72-.17-1v-.07c0-.28,0-.57,0-.85v-.86c0-.08,0-.15,0-.23a2,2,0,0,0-.1-.95c-.07-.15-.15-.28-.22-.41A1.19,1.19,0,0,1,4.43,13a1,1,0,0,1,.1-.57.65.65,0,0,1,.29-.3,40.42,40.42,0,0,0,4.1-1.59A6.1,6.1,0,0,1,10.46,10a4.9,4.9,0,0,1,1-.09m0-.29a5.21,5.21,0,0,0-1,.09,6.31,6.31,0,0,0-1.68.69c-.26.22-4,1.54-4,1.54a1,1,0,0,0-.45.44,1.3,1.3,0,0,0-.13.74c0,.4.33.66.47,1a2.47,2.47,0,0,1,.08,1.05c0,.57,0,1.14,0,1.72,0,.37,0,1.05.28,1.29A3,3,0,0,0,6,18.57c.73.19,1.46.38,2.2.53a8.48,8.48,0,0,0,1,.15l.3,0a.58.58,0,0,0,.3-.06l0,0S14.41,17,15,16.69s.68-.46.71-.63,0-3.26,0-3.26A1.72,1.72,0,0,0,16,11.67c-.05-1-1.18-1.44-2.56-1.83a7.1,7.1,0,0,0-2-.27Z" style="fill:#434343"/></g></g></svg>