<svg id="Layer_26" data-name="Layer 26" xmlns="http://www.w3.org/2000/svg" viewBox="0 0 20 20"><g id="Leafs"><path d="M16.72,12.43a.3.3,0,0,0-.38-.16l-2.95,1.22,1.44-1.14a.3.3,0,0,0,.06-.41.27.27,0,0,0-.39,0l-3,2.39a.33.33,0,0,0-.1.14.23.23,0,0,0,0,.14.27.27,0,0,0,.14.2h0a.3.3,0,0,0,.18,0l3.85-.45a.27.27,0,0,0,.25-.3.31.31,0,0,0-.33-.24L13.57,14l3-1.23A.29.29,0,0,0,16.72,12.43Zm-4.18,1.73,0,0h0l0,0Z" style="fill:#76a649"/></g><g id="Body"><path d="M13.75,14.64l-.34-.84s-.12-.28-.35-.85-.49-1.11-1.87-.54c-.58.24-6.27,3.9-6.27,3.9s-.78.49-.49,1.19S5.62,18,5.62,18s6.61-1.41,7.19-1.65C14.19,15.77,14,15.2,13.75,14.64Z" style="fill:#f6851f"/></g><g id="Stripes"><path d="M8.38,14.23l-.06-.09-.48.31.34.82a.29.29,0,1,0,.54-.22Zm-1.1,1.84a.29.29,0,0,0-.38-.16.29.29,0,0,0-.16.38l.18.43a.29.29,0,1,0,.54-.22Zm3.83-1.23a.29.29,0,0,0,.15-.38l-.66-1.61a.56.56,0,0,0,0-.08l-.49.29h0l.67,1.62A.29.29,0,0,0,11.11,14.84Zm2.4.56-.67-1.62a.29.29,0,1,0-.54.22L13,15.62a.29.29,0,0,0,.54-.22ZM10.17,16a.29.29,0,0,0-.15.38l.25.63.58-.13-.3-.72A.29.29,0,0,0,10.17,16Z" style="fill:#ab6227"/></g></svg>