<svg xmlns="http://www.w3.org/2000/svg" xmlns:xlink="http://www.w3.org/1999/xlink" viewBox="0 0 20 20"><defs><linearGradient id="linear-gradient" x1="6.16" y1="12.24" x2="11.29" y2="7.11" gradientTransform="matrix(1, -0.43, 0, 1, 0, 2.7)" gradientUnits="userSpaceOnUse"><stop offset="0.03" stop-color="#e7d06a"/><stop offset="0.2" stop-color="#d5a32a"/><stop offset="0.3" stop-color="#cd952b"/><stop offset="0.5" stop-color="#e7d06a"/><stop offset="0.71" stop-color="#e7d06a"/><stop offset="0.77" stop-color="#dab354"/><stop offset="0.91" stop-color="#c17a2a"/></linearGradient><linearGradient id="linear-gradient-2" x1="7.16" y1="13.67" x2="12.29" y2="8.54" xlink:href="#linear-gradient"/><linearGradient id="linear-gradient-3" x1="8.16" y1="15.1" x2="13.29" y2="9.97" xlink:href="#linear-gradient"/><linearGradient id="linear-gradient-4" x1="9.16" y1="16.53" x2="14.29" y2="11.39" xlink:href="#linear-gradient"/></defs><g id="Star_copy" data-name="Star copy"><path d="M8.72,4.59,9.64,6.8,12.4,5.63l-2.14,2.6L11,10.51,8.72,10,6.43,12.47l.76-2.93L5.05,8.77,7.8,7.59Z" style="fill:#a97c50;stroke:#a97c50;stroke-miterlimit:20"/><path d="M8.72,4.59,9.64,6.8,12.4,5.63l-2.14,2.6L11,10.51,8.72,10,6.43,12.47l.76-2.93L5.05,8.77,7.8,7.59Z" style="stroke:#fff200;stroke-miterlimit:20;stroke-width:0.25px;fill:url(#linear-gradient)"/><path d="M9.72,5.59l.92,2.21L13.4,6.63l-2.14,2.6L12,11.51,9.72,11,7.43,13.47l.76-2.93L6.05,9.77,8.8,8.59Z" style="fill:#a97c50;stroke:#a97c50;stroke-miterlimit:20"/><path d="M9.72,5.59l.92,2.21L13.4,6.63l-2.14,2.6L12,11.51,9.72,11,7.43,13.47l.76-2.93L6.05,9.77,8.8,8.59Z" style="stroke:#fff200;stroke-miterlimit:20;stroke-width:0.25px;fill:url(#linear-gradient-2)"/><path d="M10.72,6.59l.92,2.21L14.4,7.63l-2.14,2.6L13,12.51,10.72,12,8.43,14.47l.76-2.93-2.14-.77L9.8,9.59Z" style="fill:#a97c50;stroke:#a97c50;stroke-miterlimit:20"/><path d="M10.72,6.59l.92,2.21L14.4,7.63l-2.14,2.6L13,12.51,10.72,12,8.43,14.47l.76-2.93-2.14-.77L9.8,9.59Z" style="stroke:#fff200;stroke-miterlimit:20;stroke-width:0.25px;fill:url(#linear-gradient-3)"/><path d="M11.72,7.59l.92,2.21L15.4,8.63l-2.14,2.6L14,13.51,11.72,13,9.43,15.47l.76-2.93-2.14-.77,2.75-1.18Z" style="fill:#a97c50;stroke:#a97c50;stroke-miterlimit:20"/><path d="M11.72,7.59l.92,2.21L15.4,8.63l-2.14,2.6L14,13.51,11.72,13,9.43,15.47l.76-2.93-2.14-.77,2.75-1.18Z" style="stroke:#fff200;stroke-miterlimit:20;stroke-width:0.25px;fill:url(#linear-gradient-4)"/></g></svg>