<svg id="Layer_24" data-name="Layer 24" xmlns="http://www.w3.org/2000/svg" xmlns:xlink="http://www.w3.org/1999/xlink" viewBox="0 0 20 20"><defs><linearGradient id="linear-gradient" x1="7.25" y1="17.99" x2="7.25" y2="12.97" gradientTransform="translate(19.71 22) rotate(180)" gradientUnits="userSpaceOnUse"><stop offset="0.01" stop-color="#597481"/><stop offset="1" stop-color="#273339"/></linearGradient><linearGradient id="linear-gradient-2" x1="10.9" y1="12.1" x2="10.9" y2="5.75" gradientTransform="translate(19.71 22) rotate(180)" gradientUnits="userSpaceOnUse"><stop offset="0" stop-color="#a77d52"/><stop offset="1" stop-color="#3e2823"/></linearGradient><linearGradient id="linear-gradient-3" x1="8.93" y1="10.65" x2="15.08" y2="6.5" gradientTransform="translate(19.71 22) rotate(180)" gradientUnits="userSpaceOnUse"><stop offset="0" stop-color="#c59c6d"/><stop offset="1" stop-color="#754d25"/></linearGradient></defs><g id="Layer_1" data-name="Layer 1"><path d="M16.48,6c0,.11-.13.22-.45.29a11,11,0,0,1-1.5-.06c-.18,0-.46,0-.5-.11s.13-.32.16-.38c.09-.21.16-.29,0-.48s-.12-.48-.05-.45a2.1,2.1,0,0,1,.27.24,3.05,3.05,0,0,0,1.73.77C16.28,5.83,16.5,5.83,16.48,6Z" style="fill:#fdc113;stroke:#444545;stroke-linecap:round;stroke-linejoin:round;stroke-width:0.10000000149011612px"/><path d="M7.94,15.57c0-.21,0-.43,0-.64a2.32,2.32,0,0,0,0-.58c-.08-.28-.63-.19-.73,0a.59.59,0,0,0,0,.41,3.87,3.87,0,0,1,.21,1.51,2.48,2.48,0,0,0,0,.47.67.67,0,0,0,.18.43.86.86,0,0,0,.34.18L9.83,18a.62.62,0,0,1-.27-.4c0-.2.16-.36.34-.46a1.89,1.89,0,0,1,1-.23L9.5,16.69c-.12,0-.27-.07-.31-.19s.07-.26.17-.35l-1,.4a.38.38,0,0,1-.18,0c-.11,0-.15-.16-.17-.28A5.82,5.82,0,0,1,7.94,15.57Z" style="fill:#fdc113;stroke:#444545;stroke-linecap:round;stroke-linejoin:round;stroke-width:0.10000000149011612px"/><path d="M5.35,15.84c-.16.16-.46.31-.62.47a3.09,3.09,0,0,0,1-.08c.53,0,1,0,1.5,0a10.44,10.44,0,0,0,4.66-1A3.91,3.91,0,0,0,13.56,9.9c-.22-.4-.43-.76-.6-1.05a4.23,4.23,0,0,1-.39-.73c-.14-.61-.2-1.1.9-1.44A1.28,1.28,0,0,0,14.39,5a2,2,0,0,0-1.85-1,2.36,2.36,0,0,0-1.81,1.11,3,3,0,0,0-.14,2.22c.15.57.43,1.1.53,1.67a3,3,0,0,1,0,.43,1.75,1.75,0,0,1-.12.65c-.06.16-1.14.05-2.54.5-3,1-4.31,4.14-4.92,5.11a3.37,3.37,0,0,0,1.09.18A2.67,2.67,0,0,0,5.35,15.84Z" style="fill:none;stroke:#444545;stroke-linecap:round;stroke-linejoin:round;stroke-width:0.10000000149011612px"/><path d="M11.54,18.85c-.31-.07-.63-.12-.95-.16s-.65-.1-1-.17a1.18,1.18,0,0,1-.42-.15.81.81,0,0,1-.28-.47,2.6,2.6,0,0,1,0-.39v-.1A3.78,3.78,0,0,0,8.48,16a.74.74,0,0,1-.1-.49A.62.62,0,0,1,9,15.14a.38.38,0,0,1,.37.21,1.07,1.07,0,0,1,0,.44V16c0,.21.05.42.08.63s.1.47.17.7.08.16.11.16l.1,0,.93-.52.06,0a.12.12,0,0,1,.09.05.11.11,0,0,1,0,.15c-.11.14-.12.21-.1.24s.14.07.22.08l1.39.08a.11.11,0,0,1,.11.12.12.12,0,0,1-.11.12,1.78,1.78,0,0,0-.86.33c-.06.05-.27.21-.23.39s.05.06.15.11l.16.07a.16.16,0,0,1,0,.16.12.12,0,0,1-.11.07Z" style="fill:#fdc113;stroke:#444545;stroke-miterlimit:10;stroke-width:0.10000000149011612px"/><path d="M13,8.85a4.23,4.23,0,0,1-.39-.73c-.14-.61-.2-1.1.9-1.44A1.28,1.28,0,0,0,14.39,5a2,2,0,0,0-1.85-1,2.35,2.35,0,0,0-1.81,1.12,3,3,0,0,0-.14,2.21c.15.57.43,1.11.53,1.68A1.51,1.51,0,0,0,13,8.85Z" style="fill:url(#linear-gradient)"/><path d="M13.56,9.9c-.22-.4-.43-.76-.6-1.05A1.5,1.5,0,0,1,11.12,9a3,3,0,0,1,0,.43,1.75,1.75,0,0,1-.12.65A2.43,2.43,0,0,0,13.56,9.9Z" style="fill:#e6e6e5"/><path d="M3.57,15.7a3.37,3.37,0,0,0,1.09.18,2.57,2.57,0,0,0,.68,0c-.15.16-.45.31-.61.47a3.09,3.09,0,0,0,1-.08c.53,0,1,0,1.5,0a10.3,10.3,0,0,0,4.66-1A3.91,3.91,0,0,0,13.56,9.9a3.07,3.07,0,0,1-2.53.19c-.06.16-1.14.05-2.54.5C5.48,11.58,4.18,14.73,3.57,15.7Z" style="fill:url(#linear-gradient-2)"/><path d="M9.34,13.42c.12-.37-2.14-.8-2.87-.3A20,20,0,0,0,4,15.37,9.31,9.31,0,0,0,6.91,15C9,14.36,9.18,13.91,9.34,13.42Z" style="fill:#679f42"/><path d="M4.17,15.23s.54-.22,1.06-.39,3.37.47,5.42-1.65a1.43,1.43,0,0,0-.35-2.42C7.84,10.05,4.17,15.23,4.17,15.23Z" style="fill:url(#linear-gradient-3)"/><circle cx="12.99" cy="5.34" r="0.66" style="fill:#fff"/><circle cx="13.09" cy="5.33" r="0.3" style="fill:#010101"/></g></svg>