<?xml version="1.0" encoding="utf-8"?>
<!-- Generator: Adobe Illustrator 24.1.0, SVG Export Plug-In . SVG Version: 6.00 Build 0)  -->
<svg version="1.1" id="Layer_31" xmlns="http://www.w3.org/2000/svg" xmlns:xlink="http://www.w3.org/1999/xlink" x="0px" y="0px"
	 viewBox="0 0 20 20" style="enable-background:new 0 0 20 20;" xml:space="preserve">
<style type="text/css">
	.st0{fill:none;}
	.st1{fill:#BBBBBB;stroke:#444545;stroke-width:0.1;stroke-miterlimit:10;}
	.st2{fill:none;stroke:#DDDDDD;stroke-width:0.1;stroke-miterlimit:10;}
	.st3{fill:#DDDDDD;}
</style>
<polygon class="st0" points="8.8,12.6 8.8,12.6 8.8,12.6 "/>
<polygon class="st0" points="8.8,11.2 8.8,11.1 8.8,11.2 "/>
<path class="st1" d="M12.1,8.3c0-1.3-1-2.3-2.3-2.3S7.5,7,7.5,8.3c0,0.9,0.5,1.7,1.4,2.1v0.3l0.7,0.7l-0.7,0.7l0,0l0.7,0.7l-0.7,0.7
	l0,0l0.7,0.7l-0.7,0.7l0,0L9.8,16l0.9-1.1v-4.5C11.6,10,12.1,9.2,12.1,8.3z M9.8,6.7c0.3,0,0.6,0.3,0.6,0.6c0,0.3-0.3,0.6-0.6,0.6
	S9.2,7.6,9.2,7.3c0,0,0,0,0,0C9.2,7,9.5,6.7,9.8,6.7C9.8,6.7,9.8,6.7,9.8,6.7z"/>
<ellipse class="st2" cx="9.8" cy="8.3" rx="2.1" ry="2"/>
<polygon class="st3" points="10.5,14.8 10.2,15.2 10.2,10.7 10.5,10.7 "/>
</svg>
