<svg id="Layer_31_copy" data-name="Layer 31 copy" xmlns="http://www.w3.org/2000/svg" viewBox="0 0 20 20"><polygon points="8.82 12.58 8.82 12.55 8.8 12.57 8.82 12.58" style="fill:none"/><polygon points="8.82 11.18 8.82 11.15 8.8 11.17 8.82 11.18" style="fill:none"/><path d="M12.12,8.29a2.31,2.31,0,1,0-3.24,2.12v.29l.68.68-.68.69v0l.68.69-.68.68v0l.68.69-.68.68h0L9.81,16l.92-1.08V10.41A2.31,2.31,0,0,0,12.12,8.29ZM9.81,6.7a.57.57,0,1,1-.57.56A.56.56,0,0,1,9.81,6.7Z" style="fill:#dbb72c;stroke:#444545;stroke-miterlimit:10;stroke-width:0.100000001490116px"/><ellipse cx="9.81" cy="8.28" rx="2.05" ry="2.01" style="fill:none;stroke:#787878;stroke-miterlimit:10;stroke-width:0.100000001490116px"/><polygon points="10.49 14.79 10.16 15.18 10.16 10.69 10.49 10.69 10.49 14.79" style="fill:#787878"/></svg>