<svg id="Layer_27" data-name="Layer 27" xmlns="http://www.w3.org/2000/svg" xmlns:xlink="http://www.w3.org/1999/xlink" viewBox="0 0 20 20"><defs><linearGradient id="linear-gradient" x1="5.49" y1="3.85" x2="7.48" y2="7.26" gradientTransform="matrix(1, 0, 0, -1, 0, 22)" gradientUnits="userSpaceOnUse"><stop offset="0" stop-color="#f7f8f8"/><stop offset="0.44" stop-color="#ebebeb"/><stop offset="1" stop-color="#d4d4d4"/></linearGradient><linearGradient id="linear-gradient-2" x1="12.1" y1="9.28" x2="12.1" y2="3.42" gradientTransform="matrix(1, 0, 0, -1, 0, 22)" gradientUnits="userSpaceOnUse"><stop offset="0.29" stop-color="#fff"/><stop offset="0.56" stop-color="#f3f3f3"/><stop offset="1" stop-color="#d4d4d4"/></linearGradient><linearGradient id="linear-gradient-3" x1="14.31" y1="9.06" x2="17.43" y2="9.06" xlink:href="#linear-gradient-2"/><linearGradient id="linear-gradient-4" x1="10.52" y1="11.26" x2="10.52" y2="3.15" xlink:href="#linear-gradient-2"/><linearGradient id="linear-gradient-5" x1="8.31" y1="7.36" x2="6.81" y2="2.98" xlink:href="#linear-gradient"/><linearGradient id="linear-gradient-6" x1="-9.21" y1="9.13" x2="-6.84" y2="4.12" gradientTransform="matrix(1, -0.05, -0.05, -1, 12.08, 11.71)" gradientUnits="userSpaceOnUse"><stop offset="0.29" stop-color="#fff"/><stop offset="0.44" stop-color="#fbfcfc"/><stop offset="0.56" stop-color="#f1f0f0"/><stop offset="0.68" stop-color="#dfdfde"/><stop offset="0.8" stop-color="#c4c4c4"/><stop offset="0.92" stop-color="#a3a3a2"/><stop offset="1" stop-color="#878787"/></linearGradient><linearGradient id="linear-gradient-7" x1="-8.51" y1="7.65" x2="-7.34" y2="5.18" gradientTransform="matrix(1, -0.05, -0.05, -1, 12.08, 11.71)" gradientUnits="userSpaceOnUse"><stop offset="0.16" stop-color="#f386a7"/><stop offset="0.31" stop-color="#f27c9f"/><stop offset="1" stop-color="#d94975"/></linearGradient><linearGradient id="linear-gradient-8" x1="-401.18" y1="9.14" x2="-398.8" y2="4.13" gradientTransform="matrix(-1, 0.05, -0.05, -1, -390.07, 30.88)" gradientUnits="userSpaceOnUse"><stop offset="0.29" stop-color="#fff"/><stop offset="0.42" stop-color="#fbfcfc"/><stop offset="0.55" stop-color="#eeedee"/><stop offset="0.68" stop-color="#dbdada"/><stop offset="0.81" stop-color="#bdbdbd"/><stop offset="0.95" stop-color="#989798"/><stop offset="1" stop-color="#878787"/></linearGradient><linearGradient id="linear-gradient-9" x1="-400.48" y1="7.66" x2="-399.31" y2="5.19" gradientTransform="matrix(-1, 0.05, -0.05, -1, -390.07, 30.88)" xlink:href="#linear-gradient-7"/><linearGradient id="linear-gradient-10" x1="-5.31" y1="-1.32" x2="-5.31" y2="5.31" gradientTransform="matrix(1, -0.05, -0.05, -1, 12.08, 11.71)" gradientUnits="userSpaceOnUse"><stop offset="0" stop-color="#d4d4d4"/><stop offset="0.29" stop-color="#e3e3e3"/><stop offset="0.71" stop-color="#fff"/></linearGradient><linearGradient id="linear-gradient-11" x1="-5.31" y1="1.49" x2="-5.31" y2="0.62" gradientTransform="matrix(1, -0.05, -0.05, -1, 12.08, 11.71)" gradientUnits="userSpaceOnUse"><stop offset="0.16" stop-color="#f386a7"/><stop offset="0.69" stop-color="#f06491"/><stop offset="1" stop-color="#f05789"/></linearGradient></defs><g id="Layer_2" data-name="Layer 2"><path d="M6.53,18.93a2.35,2.35,0,0,1-.8-.17.63.63,0,0,1-.36-.44.84.84,0,0,1,.33-.75l.15-.14a1.56,1.56,0,0,0,.62-.85,1.75,1.75,0,0,0-.15-.78,3.81,3.81,0,0,1-.13-.45,1.85,1.85,0,0,1,0-.23,4.51,4.51,0,0,1-.13-1,.88.88,0,0,1,.37-.81.72.72,0,0,1,.27-.05,1,1,0,0,1,.84.44,3.85,3.85,0,0,1,.39,1.54v.13a4.78,4.78,0,0,1-.54,3.05,1.13,1.13,0,0,1-.39.42A1,1,0,0,1,6.53,18.93Z" style="fill:url(#linear-gradient)"/><path d="M6.66,13.39h0a.85.85,0,0,1,.72.38,3.76,3.76,0,0,1,.37,1.48s0,.09,0,.13a4.65,4.65,0,0,1-.52,3,1,1,0,0,1-.34.37.81.81,0,0,1-.37.08,2.3,2.3,0,0,1-.75-.16.49.49,0,0,1-.27-.34.73.73,0,0,1,.28-.62l.15-.13a1.64,1.64,0,0,0,.66-.94,1.76,1.76,0,0,0-.15-.85,4.14,4.14,0,0,1-.13-.43c0-.08,0-.15,0-.23a4.37,4.37,0,0,1-.12-1c0-.2,0-.56.29-.69a.62.62,0,0,1,.21,0m0-.28a.71.71,0,0,0-.34.07,1,1,0,0,0-.44.93,6.24,6.24,0,0,0,.17,1.26c.08.43.33.81.28,1.19s-.47.67-.73.91c-.73.69-.25,1.3.08,1.42a2.45,2.45,0,0,0,.85.18A1,1,0,0,0,7,19a1.14,1.14,0,0,0,.44-.46A4.9,4.9,0,0,0,8,15.35a4.43,4.43,0,0,0-.42-1.73,1.16,1.16,0,0,0-1-.51Z" style="fill:#b0b1b1"/><path d="M9.28,18.81A.25.25,0,0,1,9,18.54a.52.52,0,0,1,.28-.41,2.17,2.17,0,0,1,1.16-.25l.46,0h0a.14.14,0,0,0,.13-.09.14.14,0,0,0-.05-.16,2.92,2.92,0,0,1-.81-3.36c.64-1.85,1.66-2.06,2.37-2.06a4.84,4.84,0,0,1,.86.09,2.67,2.67,0,0,1,1.69,2.88,4,4,0,0,1-1.37,2.54.13.13,0,0,0-.06.11.24.24,0,0,0,.06.11c.22.16.51.46.47.62s-.25.19-.58.22Z" style="fill:url(#linear-gradient-2)"/><path d="M12.59,12.38h0a4.54,4.54,0,0,1,.83.09A2.52,2.52,0,0,1,15,15.2a3.84,3.84,0,0,1-1.32,2.44.27.27,0,0,0-.11.22.27.27,0,0,0,.12.22,1.22,1.22,0,0,1,.41.47.79.79,0,0,1-.44.12H9.28c-.07,0-.1-.06-.1-.12a.4.4,0,0,1,.21-.3A2.13,2.13,0,0,1,10.48,18a3.54,3.54,0,0,1,.45,0h0a.28.28,0,0,0,.17-.5,2.8,2.8,0,0,1-.77-3.2c.61-1.77,1.57-2,2.24-2m0-.28c-1,0-1.91.45-2.5,2.15A3.09,3.09,0,0,0,11,17.77a3.94,3.94,0,0,0-.47,0c-1.94,0-1.76,1.2-1.2,1.2h4.39c1.48-.14.18-1.09.18-1.09a4.11,4.11,0,0,0,1.43-2.63,2.8,2.8,0,0,0-1.81-3,4.4,4.4,0,0,0-.88-.1Z" style="fill:#b0b1b1"/><path d="M15.78,14.45a.42.42,0,0,1-.36-.2.13.13,0,0,0-.12-.07h-.14a.39.39,0,0,1-.4-.38v0a.14.14,0,0,0-.07-.13.74.74,0,0,1-.38-.62.77.77,0,0,1,.34-.66.12.12,0,0,0,0-.15.38.38,0,0,1,0-.1.41.41,0,0,1,.39-.43h0l.1,0h0a.12.12,0,0,0,.1,0,.77.77,0,0,1,.54-.24h0a.75.75,0,0,1,.66.37.13.13,0,0,0,.12.06h.13a.4.4,0,0,1,.41.38.34.34,0,0,1,0,.2.14.14,0,0,0,0,.16.73.73,0,0,1-.14,1.17.15.15,0,0,0-.07.12.4.4,0,0,1-.39.41h0a.41.41,0,0,1-.24-.08l-.08,0h0a.13.13,0,0,0-.09.07.4.4,0,0,1-.35.2Z" style="fill:url(#linear-gradient-3)"/><path d="M15.9,11.55h0a.62.62,0,0,1,.54.31.28.28,0,0,0,.24.13h.14a.27.27,0,0,1,.27.25.35.35,0,0,1,0,.13.26.26,0,0,0,.05.32.62.62,0,0,1,.18.4.6.6,0,0,1-.3.55.28.28,0,0,0-.13.24.28.28,0,0,1-.27.27h0a.3.3,0,0,1-.16-.05.25.25,0,0,0-.16-.06H16.2a.3.3,0,0,0-.18.13.27.27,0,0,1-.23.14h0a.28.28,0,0,1-.24-.13A.27.27,0,0,0,15.3,14h-.14a.27.27,0,0,1-.27-.24h0v0a.29.29,0,0,0-.14-.25.61.61,0,0,1,0-1,.27.27,0,0,0,.11-.31.15.15,0,0,1,0-.06.27.27,0,0,1,.26-.28h.15a.28.28,0,0,0,.2-.09.65.65,0,0,1,.44-.2h0m0-.27h0a.9.9,0,0,0-.62.28l-.14,0h0a.55.55,0,0,0-.53.57.68.68,0,0,0,0,.14.9.9,0,0,0-.4.78.88.88,0,0,0,.45.73s0,0,0,.05a.55.55,0,0,0,.55.52h.14a.54.54,0,0,0,.47.27h0a.56.56,0,0,0,.46-.28.52.52,0,0,0,.32.11h0a.56.56,0,0,0,.53-.55.88.88,0,0,0,.43-.8.92.92,0,0,0-.26-.59.48.48,0,0,0,.06-.26.53.53,0,0,0-.54-.52h-.14a.91.91,0,0,0-.78-.43Z" style="fill:#b0b1b1"/><path d="M10.06,18.83a.42.42,0,0,1-.46-.4c0-.22.25-.45.79-.45h.27a.15.15,0,0,0,.14-.13.13.13,0,0,0-.12-.15l-.7-.07a6.76,6.76,0,0,1-3.11-.8A5.79,5.79,0,0,1,4.6,12.53,1.22,1.22,0,0,1,4.83,12,2.4,2.4,0,0,0,5,11.66a1.84,1.84,0,0,1,1.81-1,2,2,0,0,1,.35,0,1,1,0,0,1,.6.37l.11.11a2.72,2.72,0,0,0,1.48.7h.17a3.2,3.2,0,0,0,1.08-.28A6.3,6.3,0,0,1,13.17,11h0a3.38,3.38,0,0,1,3.26,3.46c0,.82-.66,4.33-2,4.33Z" style="fill:url(#linear-gradient-4)"/><path d="M6.82,10.76l.33,0a.86.86,0,0,1,.52.33l.11.11A2.87,2.87,0,0,0,9.35,12h.17a3.27,3.27,0,0,0,1.14-.3,6.3,6.3,0,0,1,2.51-.51h0a3.22,3.22,0,0,1,3.12,3.3,9.86,9.86,0,0,1-.49,2.45c-.23.65-.7,1.77-1.36,1.77H10.07c-.22,0-.34-.15-.33-.26s.23-.31.66-.31h.27a.28.28,0,0,0,0-.56L10,17.5a6.55,6.55,0,0,1-3-.77,5.65,5.65,0,0,1-2.21-4.2A1.23,1.23,0,0,1,5,12.09a3.64,3.64,0,0,0,.2-.39,1.74,1.74,0,0,1,1.67-.94h0m0-.28a2,2,0,0,0-1.94,1.13c-.08.25-.43.67-.42.93A5.89,5.89,0,0,0,6.79,17c1,.73,2.64.74,3.87.89a2.44,2.44,0,0,0-.27,0c-1.23,0-1.14,1-.33,1.11h4.39c1.49,0,2.14-3.68,2.14-4.47a3.53,3.53,0,0,0-3.4-3.6h0c-2.08,0-2.78.8-3.64.8H9.38A2.59,2.59,0,0,1,8,11a1.44,1.44,0,0,0-.79-.51,2.22,2.22,0,0,0-.37,0Z" style="fill:#b0b1b1"/><path d="M9.1,15.17a6.08,6.08,0,0,1-1,3,2.18,2.18,0,0,1-.47.53A1.64,1.64,0,0,1,6.44,19c-.27,0-.58-.18-.63-.45A.61.61,0,0,1,6.07,18c.16-.12.35-.2.52-.31a1.7,1.7,0,0,0,.61-.93c.1-.36.08-1.87.15-2.25" style="stroke:#b0b1b1;stroke-linejoin:round;stroke-width:0.10000000149011612px;fill:url(#linear-gradient-5)"/><path d="M5.63,8.87A5.2,5.2,0,0,1,2.85,6.41c-1-1.76-1.22-3.15-.56-3.54a.48.48,0,0,1,.24-.06c.65,0,1.7,1,2.49,2.42a4.69,4.69,0,0,1,.65,3.63h0Z" style="fill:url(#linear-gradient-6)"/><path d="M2.53,3h0C3,3,4,3.78,4.9,5.3a5.06,5.06,0,0,1,.69,3.42A5.28,5.28,0,0,1,3,6.34C2,4.68,1.79,3.34,2.36,3a.31.31,0,0,1,.17,0m0-.28a.53.53,0,0,0-.31.08c-.79.47-.47,2,.51,3.73A5.17,5.17,0,0,0,5.63,9a.21.21,0,0,0,.12,0c.32-.22.37-2.1-.61-3.82C4.3,3.68,3.23,2.67,2.53,2.67Z" style="fill:#b0b1b1"/><path d="M4.52,5.54a2.13,2.13,0,0,1,.29,1.8c-.14.11-1-.36-1.43-1.18S2.76,4.62,3.14,4.4,4.06,4.72,4.52,5.54Z" style="fill:url(#linear-gradient-7)"/><path d="M7.6,8.77h0a4.66,4.66,0,0,1,.3-3.68c.67-1.51,1.67-2.64,2.3-2.64a.38.38,0,0,1,.19,0c.69.33.61,1.73-.22,3.57A5.07,5.07,0,0,1,7.6,8.77Z" style="fill:url(#linear-gradient-8)"/><path d="M10.18,2.59a.28.28,0,0,1,.13,0c.6.29.49,1.65-.29,3.39A5.24,5.24,0,0,1,7.64,8.62,5.05,5.05,0,0,1,8,5.15c.72-1.6,1.67-2.56,2.17-2.56m0-.29C9.48,2.3,8.47,3.43,7.75,5c-.81,1.8-.58,3.66-.24,3.86H7.6c.46,0,1.93-1.11,2.68-2.79s1-3.37.15-3.76a.51.51,0,0,0-.25-.06Z" style="fill:#b0b1b1"/><path d="M8.4,5.35a2.14,2.14,0,0,0-.11,1.83c.15.09.93-.46,1.31-1.31s.47-1.6.07-1.78S8.79,4.5,8.4,5.35Z" style="fill:url(#linear-gradient-9)"/><path d="M6.44,13.3c-1.57,0-3.45-.47-3.56-2.72a3.76,3.76,0,0,1,.83-2.67A3.79,3.79,0,0,1,6.52,6.66h.26a3.53,3.53,0,0,1,3.74,3.56c.12,2.51-2.26,3-3.68,3.07Z" style="fill:url(#linear-gradient-10)"/><path d="M6.78,6.8a3.51,3.51,0,0,1,2.62,1,3.69,3.69,0,0,1,1,2.42,2.4,2.4,0,0,1-.89,2.12,4.74,4.74,0,0,1-2.66.81h-.4c-1.5,0-3.31-.45-3.41-2.59A3.42,3.42,0,0,1,6.53,6.8h.25m0-.29H6.51a3.69,3.69,0,0,0-3.77,4.07c.09,2,1.53,2.85,3.7,2.85h.4c2.35-.11,3.92-1.12,3.82-3.22a3.66,3.66,0,0,0-3.88-3.7Z" style="fill:#b0b1b1"/><ellipse cx="8.47" cy="9.34" rx="0.56" ry="0.6" transform="translate(-0.43 0.41) rotate(-2.73)" style="fill:#414141"/><ellipse cx="4.83" cy="9.49" rx="0.56" ry="0.6" transform="translate(-0.45 0.24) rotate(-2.73)" style="fill:#414141"/><path d="M8.25,11.39a.68.68,0,0,1-.19.4.76.76,0,0,1-1.08,0,1.57,1.57,0,0,1-.25-.65,1.38,1.38,0,0,1-.17.66.75.75,0,0,1-1.07.05.71.71,0,0,1-.24-.38" style="fill:none;stroke:#b0b1b1;stroke-linecap:round;stroke-linejoin:round;stroke-width:0.10000000149011612px"/><path d="M6.14,10.47c-.18,0-.3.14-.23.31a.82.82,0,0,0,.82.58v0h0a.79.79,0,0,0,.76-.62c.06-.18-.07-.3-.26-.29Z" style="fill:url(#linear-gradient-11)"/><path d="M10.77,17.69a2.89,2.89,0,0,1,.3-4.68" style="fill:none;stroke:#b0b1b1;stroke-linecap:round;stroke-linejoin:round;stroke-width:0.10000000149011612px"/></g></svg>