<svg id="Salmon" xmlns="http://www.w3.org/2000/svg" viewBox="0 0 20 20"><path d="M11.19,6.82a1.43,1.43,0,0,0-1-.32,2.77,2.77,0,0,0-1.47.58,5.44,5.44,0,0,0-.51.51L9.43,8.82,11.56,7.1Z" style="fill:#8bb1d9;stroke:#444545;stroke-miterlimit:10;stroke-width:0.20000000298023224px"/><path d="M12.38,11.94l.7,1.9s1.14-.44,1.25-1.32a3.82,3.82,0,0,0-.16-1.65Z" style="fill:#8bb1d9;stroke:#444545;stroke-miterlimit:10;stroke-width:0.20000000298023224px"/><path d="M9.84,13.17s.35,1.21-.09,1.67a3.17,3.17,0,0,1-1.35.68L7.94,13.7" style="fill:#8bb1d9;stroke:#444545;stroke-miterlimit:10;stroke-width:0.20000000298023224px"/><path d="M7.38,11.43s-.7-.45-1.19-.21a1.43,1.43,0,0,0-.65.53L7,12.54Z" style="fill:#8bb1d9;stroke:#444545;stroke-miterlimit:10;stroke-width:0.20000000298023224px"/><path d="M4.77,15a2,2,0,0,0-1.67-.37c-1,.23-1.23.35-1.35.56s0,.32.07.44,1,.9,1,.9l.54,1.38s.18.37.42.18.93-.76,1-1.14A6.78,6.78,0,0,0,5,15.56,1,1,0,0,0,4.77,15Z" style="fill:#8bb1d9;stroke:#444545;stroke-miterlimit:10;stroke-width:0.20000000298023224px"/><path d="M18.48,6.22a1.92,1.92,0,0,0-.25-.12,4,4,0,0,0-.86-.26,12.71,12.71,0,0,0-3,.21,8.41,8.41,0,0,0-4.31,1.84,19,19,0,0,0-3,3.58c-.25.56-1.44,2-1.63,2.28a7.78,7.78,0,0,1-1.07,1,.63.63,0,0,0-.15.73s0,0,0,0c.19.26.24.33.66.21a8.13,8.13,0,0,0,1.25-.63c.37-.18.65-.25,1.16-.44s2.66-.88,3.82-1.37a22.09,22.09,0,0,0,3.32-1.93A32.48,32.48,0,0,0,17,9.19C17.62,8.56,18.9,6.84,18.48,6.22Z" style="fill:#8bb1d9;stroke:#444545;stroke-miterlimit:10;stroke-width:0.20000000298023224px"/><path d="M18.36,6.29a4.71,4.71,0,0,0-1.06-.35,11,11,0,0,0-2.83.21A8.47,8.47,0,0,0,10.15,8a18,18,0,0,0-3,3.55c-.26.56-1.45,2-1.63,2.28a8.35,8.35,0,0,1-1.07,1,.64.64,0,0,0-.16.73c1-.93,5.91-5.49,7.37-6.47A48.79,48.79,0,0,1,18.36,6.29Z" style="fill:#d27c80"/><path d="M17.2,8.94s-1.39.91-2.3,0a1.77,1.77,0,0,1-.59-1.78" style="fill:none;stroke:#444545;stroke-miterlimit:10;stroke-width:0.20000000298023224px"/><path d="M14.86,8.88l-1.52,1c-.51.33.57.94.95.63S15.45,9.3,15.45,9.3Z" style="fill:none;stroke:#444545;stroke-miterlimit:10;stroke-width:0.20000000298023224px"/><ellipse cx="16.63" cy="7.37" rx="0.28" ry="0.28" style="fill:#444545"/></svg>