<?xml version="1.0" encoding="utf-8"?>
<!-- Generator: Adobe Illustrator 24.1.0, SVG Export Plug-In . SVG Version: 6.00 Build 0)  -->
<svg version="1.1" id="Layer_1" xmlns="http://www.w3.org/2000/svg" xmlns:xlink="http://www.w3.org/1999/xlink" x="0px" y="0px"
	 viewBox="0 0 20 20" style="enable-background:new 0 0 20 20;" xml:space="preserve">
<style type="text/css">
	.st0{fill:#8F8B70;}
	.st1{fill:#CEC8A1;}
	.st2{fill:#DDDDDD;}
	.st3{fill:#BBBBBB;}
	.st4{fill:#EEEEEE;}
	.st5{fill:#888888;}
</style>
<g id="Sign_copy">
	<polygon class="st0" points="10.4,19.5 9.5,19.9 9.5,14.9 10.4,14.4 	"/>
	<polygon class="st1" points="10.7,19.3 9.8,19.8 9.8,14.7 10.7,14.3 	"/>
	<polygon class="st2" points="14.9,12.9 5.5,17.7 5.5,12.5 14.9,7.8 	"/>
	<path class="st3" d="M6.5,14.1l0.2-0.3l0.1-0.1c0,0,0.1-0.1,0.1-0.1l0,0l0.1,0.1L7,13.7c0.1,0.1,0.1,0.1,0.2,0.2
		c0.2,0.1,0.3-0.1,0.4-0.2c0.1-0.1,0.2-0.3,0.2-0.5l-0.1,0.1c0.3,0,0.6,0,0.9,0c0.1,0,0.1-0.3-0.1-0.2c-0.3,0-0.5,0-0.8,0
		c0,0-0.1,0-0.1,0.1c-0.1,0.2-0.1,0.3-0.2,0.4v0.1l0,0l-0.1-0.1c-0.1-0.1-0.2-0.1-0.3-0.2c-0.1-0.1-0.3,0-0.3,0.1L6.3,14
		C6.2,14.1,6.4,14.2,6.5,14.1L6.5,14.1z"/>
	<path class="st3" d="M9.5,12.5c0-0.1,0.1-0.5,0.3-0.4s0.1,0.1,0.2,0.2c0.1,0.1,0.1,0.1,0.2,0.1c0,0,0.1,0,0.1,0
		c0.1-0.1,0.1-0.2,0.1-0.3c0.1-0.1,0.2-0.2,0.3-0.3c0.1-0.1,0.2-0.1,0.2-0.2c0.1,0,0.1,0,0.2,0.1s0.3-0.2,0.4-0.4
		c0.2-0.2,0.4-0.3,0.7-0.3c0.1,0,0.1-0.3-0.1-0.2c-0.2,0-0.5,0.1-0.7,0.3c-0.1,0.1-0.2,0.1-0.2,0.2c0,0,0,0.1-0.1,0.1h-0.1
		c-0.2,0-0.4,0.1-0.5,0.2c-0.1,0.1-0.2,0.2-0.3,0.2c-0.1,0.1-0.1,0.2-0.2,0.3h0.1c-0.1,0-0.2-0.2-0.3-0.2c-0.1-0.1-0.2-0.1-0.3,0
		c-0.2,0.1-0.4,0.3-0.4,0.6c0,0.2,0.2,0.2,0.2,0.1L9.5,12.5z"/>
	<path class="st3" d="M13,10.5L13,10.5L13,10.5L13,10.5L13,10.5L13,10.5L13,10.5c0.1,0,0.1,0,0.2,0c0.2,0,0.4,0,0.6,0
		c0.1,0,0.1-0.1,0.1-0.1c0-0.1,0.1-0.2,0.2-0.3c0.1-0.1-0.1-0.3-0.2-0.1c-0.1,0.1-0.1,0.2-0.1,0.4l0.1-0.1c-0.1,0-0.2,0-0.3,0
		c-0.1,0-0.2-0.1-0.3-0.1c-0.2,0-0.4,0.2-0.4,0.4c0,0,0,0,0,0c0,0.1,0.1,0.1,0.2,0.1C13,10.6,13,10.6,13,10.5z"/>
	<path class="st3" d="M6.4,15.8c0.1-0.2,0.2-0.4,0.3-0.6C6.8,15.2,6.9,15.1,7,15c0.1,0,0.2,0,0.3,0c0.1,0,0.2,0,0.2-0.1
		c0.1-0.1,0.1-0.2,0.2-0.2c0,0,0.1,0,0.1,0h0.1c0.1,0,0.2,0,0.3-0.1c0.2-0.1,0.3-0.2,0.5-0.3c0.1-0.1,0.2-0.1,0.3-0.2
		c0.1-0.1,0.2-0.1,0.3,0c0.2,0.1,0.4,0.1,0.5,0C9.9,14.1,10,14,10,13.9c0-0.1-0.1-0.1-0.2-0.1c0,0-0.1,0-0.1,0.1
		C9.8,14,9.6,14,9.5,14l-0.3-0.1c-0.1,0-0.3,0-0.4,0.1c-0.2,0.1-0.3,0.3-0.5,0.4c-0.1,0.1-0.2,0.1-0.3,0.1c-0.1,0-0.2,0-0.3,0
		c-0.1,0-0.3,0-0.3,0.2c-0.1,0.1-0.1,0.1-0.3,0.1c-0.1,0-0.1,0-0.2,0.1c-0.3,0.2-0.6,0.5-0.7,0.9C6.1,15.9,6.3,16,6.4,15.8L6.4,15.8
		z"/>
	<path class="st3" d="M10.9,13.2c0.2-0.2,0.5-0.3,0.7-0.3c0.1,0,0.3,0,0.4,0c0.1,0,0.3-0.1,0.4-0.2c0.1-0.1,0.2-0.2,0.4-0.3
		c0.1-0.1,0.2-0.2,0.3-0.3c0.1,0,0.2,0,0.2,0h0.3c0.1,0,0.1,0,0.2,0c0.1-0.1,0.1-0.2,0.1-0.3c0.1-0.1-0.1-0.3-0.2-0.1l-0.1,0.2
		l0.1-0.1c-0.2,0-0.4,0-0.6,0c-0.1,0-0.2,0.1-0.3,0.2c-0.2,0.2-0.5,0.5-0.8,0.7c-0.2,0.2-0.6,0-0.8,0.1c-0.2,0.1-0.5,0.2-0.6,0.4
		C10.6,13.2,10.9,13.4,10.9,13.2L10.9,13.2z"/>
	<polygon class="st4" points="5,12.3 5.5,12.5 14.9,7.8 14.2,7.6 	"/>
	<polygon class="st5" points="5,17.4 5.5,17.7 5.5,12.5 5,12.3 	"/>
</g>
</svg>
