<svg id="Layer_23" data-name="Layer 23" xmlns="http://www.w3.org/2000/svg" viewBox="0 0 20 20"><path d="M3,12S.66,8.41,2.77,6.82,8.65,5.63,8,11.53c-.7,6.12.89,1.88.89,1.88L8.6,15.12a1.37,1.37,0,0,1-1.33.65c-1-.07-1.91-.16-1.84-2.65C5.49,11,6,9.41,4.54,9.18S3,12,3,12Z" style="fill:#d18735"/><path d="M5.43,7.52c2,.37,1.76,1.42,1.93,2.39a12.35,12.35,0,0,1,0,2.54L8,11.72a2.12,2.12,0,0,1,0-.24c.68-5.89-3.09-6.29-5.2-4.71A2.16,2.16,0,0,0,2,8.07,6.94,6.94,0,0,1,5.43,7.52Z" style="fill:#9c4f23"/><path d="M2.94,12S.62,8.35,2.73,6.76s5.88-1.19,5.2,4.71c-.71,6.12.89,1.88.89,1.88l-.26,1.71a1.37,1.37,0,0,1-1.33.65c-1-.07-1.92-.16-1.85-2.65.07-2.17.57-3.72-.88-4S2.94,12,2.94,12Z" style="fill:none;stroke:#444545;stroke-miterlimit:10;stroke-width:0.20000000298023224px"/><path d="M17,9.66c-.23-.05-1,.2-1.18-.12a.77.77,0,0,1,0-.94.85.85,0,0,1,.9.12C17,9,16.88,9.48,17,9.66Z" style="fill:#edc17a"/><path d="M15.59,6.12a5.72,5.72,0,0,1,.54,1.07.78.78,0,0,0,.14.36A1.79,1.79,0,0,1,17,8a9.38,9.38,0,0,1,.6,1.08,1.09,1.09,0,0,1,.28.67.91.91,0,0,1-.3.83c-.45.37-1.69.13-2,.51s-.19.63.28.8.7,0,.87.33a1.28,1.28,0,0,1,.11.74,8.24,8.24,0,0,0-1.49.19,3,3,0,0,1-1.29,0,1.78,1.78,0,0,1-.45-.14s.31,1.12,0,1.59a9.67,9.67,0,0,1-1,1.17s1.27.17,1.54.57a3.05,3.05,0,0,1,.31,1.17l-4.12,0s0-.44-.34-.45A3.15,3.15,0,0,1,8,16.59c-.49-.53-1.69-2.91-.72-4.82a4.61,4.61,0,0,1,4-2.82c1.83-.21,1.53.07,1.86-.11S13.57,8.3,14,8s.61-.27.73-.47S15.59,6.12,15.59,6.12Z" style="fill:#d18735"/><circle cx="16.3" cy="9.15" r="0.29" style="fill:#444545"/><path d="M16.3,10.3a1.28,1.28,0,0,0-1,.63c0,.09.07.23.17.36a1.81,1.81,0,0,1,.1-.17c.29-.38,1.53-.14,2-.5a.93.93,0,0,0,.29-.84.13.13,0,0,0,0-.06,2.5,2.5,0,0,1-.44.33A2,2,0,0,1,16.3,10.3Z" style="fill:#ecc07a"/><path d="M13.49,13s-.58-.1-1.1,1a2.51,2.51,0,0,0-.3,1.77h.46a8.87,8.87,0,0,0,1-1.14c.32-.47,0-1.59,0-1.59" style="fill:#ecc07a"/><path d="M14.65,8.27a2.23,2.23,0,0,0,.93-.68l.53-.5a6.76,6.76,0,0,0-.52-1l-.82,1.36c-.12.19-.26.12-.73.47s-.58.71-.91.89-.18,0-.67,0a1,1,0,0,0,.66.21A12,12,0,0,0,14.65,8.27Z" style="fill:#9c4f23"/><path d="M15.59,6.09a5.72,5.72,0,0,1,.54,1.07.78.78,0,0,0,.14.36A1.79,1.79,0,0,1,17,8a11.22,11.22,0,0,1,.6,1.08,1.09,1.09,0,0,1,.28.67.91.91,0,0,1-.3.83c-.45.37-1.69.13-2,.51s-.19.63.28.8.7,0,.87.33a1.28,1.28,0,0,1,.11.74,8.24,8.24,0,0,0-1.49.19,3,3,0,0,1-1.29,0,1.78,1.78,0,0,1-.45-.14s.31,1.12,0,1.59a9.67,9.67,0,0,1-1,1.17s1.27.17,1.54.57a3.1,3.1,0,0,1,.31,1.17l-4.12,0s0-.44-.35-.45A3.14,3.14,0,0,1,8,16.56C7.5,16,6.3,13.65,7.27,11.74a4.61,4.61,0,0,1,4-2.82c1.83-.21,1.53.07,1.86-.11s.44-.54.91-.89.61-.27.73-.47S15.59,6.09,15.59,6.09Z" style="fill:none;stroke:#444545;stroke-miterlimit:10;stroke-width:0.20000000298023224px"/></svg>