<?xml version="1.0" encoding="utf-8"?>
<!-- Generator: Adobe Illustrator 24.1.0, SVG Export Plug-In . SVG Version: 6.00 Build 0)  -->
<svg version="1.1" id="Layer_18" xmlns="http://www.w3.org/2000/svg" xmlns:xlink="http://www.w3.org/1999/xlink" x="0px" y="0px"
	 viewBox="0 0 20 15.1" style="enable-background:new 0 0 20 15.1;" xml:space="preserve">
<style type="text/css">
	.st0{fill:#766745;stroke:#BC8151;stroke-width:0.2;stroke-linecap:round;stroke-miterlimit:10;}
	.st1{fill:#BC8151;}
	.st2{fill:#222222;}
	.st3{fill:#473F2A;}
</style>
<path class="st0" d="M6,5.4L7.8,4C8.4,3.9,9,3.7,9.5,3.6c0.4-0.2,2.1-0.8,2.6-0.9c0.8-0.1,1.6-0.1,2.4,0.1c0.9,0.3,1.6,1,2,1.8
	c0.3,0.7,0.5,1.5,0.7,2.3c0.1,0.6,0.1,0.9,0.1,1.3c0.1,0.5,0.2,1,0.4,1.5c0.1,0.4,0.3,1.1,0.3,1.1c-0.1,0.4-0.3,0.7-0.7,0.8
	c-0.6,0.1-1.2,0.2-1.4,0C16,11.4,15.9,11.2,16,11c-0.6-0.5-1.1-1-1.6-1.5c-0.6,0.2-1.1,0.4-1.7,0.6c-1.2,0.2-2.4,0.2-3.7,0.3
	c-0.9,0-1.9-0.1-2.8-0.4C5.8,9.8,5.4,9.6,5.1,9.4"/>
<path class="st0" d="M10.8,9.7c0.2,0.6,0.3,1.2,0.4,1.8c0,0.4,0,0.8,0,1.2C10.9,12.9,10.5,13,10,13c-0.7,0-0.9-0.1-0.9-0.3
	c0-0.1,0-0.3,0.1-0.4L7.8,10"/>
<path class="st0" d="M6.4,9.7c-0.2,0.4-0.4,0.7-0.7,1.1c-0.2,0.2-0.3,0.4-0.6,0.6c-0.2,0.1-0.4,0.1-0.7,0.2c-0.2,0-0.8,0-1,0
	c-0.2,0-0.3-0.2-0.3-0.3c0,0,0,0,0,0c0-0.1,0.1-0.3,0.2-0.4c0,0,0.2-1.2,0.3-1.5c0.1-0.4,1.1-2.9,1.1-2.9"/>
<path class="st0" d="M4,4.1c0,0,0.1-0.7-0.4-0.7C3.3,3.4,3,3.6,2.9,4c0,0,0,0,0,0c0,0.1,0,0.4,0.5,0.5"/>
<path class="st0" d="M2.9,5.8C2.8,7.1,3.7,8.3,5,8.5c0.2,0,0.3,0,0.5,0C7.8,8.5,9,7.6,9.1,6S7.9,3.4,6.2,3.2C5,3,3.9,3.6,3.3,4.7
	C3.1,5,3,5.4,2.9,5.8z"/>
<path class="st1" d="M5.7,5.4c0.8,0,1.5,0.2,1.4,0.9c0,0.7-0.5,1.3-1.2,1.3c0,0-0.1,0-0.1,0c-0.7,0.1-1.3-0.4-1.4-1c0,0,0,0,0-0.1
	c0-0.4,0.2-0.7,0.5-0.9C5.1,5.5,5.4,5.4,5.7,5.4z"/>
<path class="st0" d="M7.6,3.8c0-0.2,0.1-0.5,0.2-0.6C8.1,3,8.4,3,8.6,3.2C8.8,3.4,9,3.8,8.8,4C8.6,4.1,8.4,4.2,8.1,4.3"/>
<path class="st2" d="M3.9,4.9c0.1-0.1,0.2-0.1,0.3,0c0,0,0,0,0,0.1c0.1,0.1,0.2,0.4,0,0.5C4.1,5.7,3.9,5.6,3.8,5.4
	C3.8,5.2,3.8,5.1,3.9,4.9z"/>
<path class="st2" d="M7.3,4.6c0.1,0,0.3,0.1,0.3,0.3c0,0.1,0.1,0.4-0.2,0.4C7.2,5.3,7.1,5.2,7.1,5C7,4.8,7.3,4.6,7.3,4.6z"/>
<path class="st3" d="M5.6,5.7c0.4,0,0.7,0.1,0.7,0.3S6.1,6.4,5.6,6.4C5,6.5,4.9,6.3,4.9,6.1C4.9,5.7,5.6,5.7,5.6,5.7z"/>
<path class="st3" d="M5.5,6.4c0,0.1,0,0.3,0,0.4C5.5,7,5.6,7,5.6,7s0-0.1,0-0.2c0-0.1,0-0.2,0-0.3L5.5,6.4z"/>
</svg>
