<svg id="publicdomainvectors.org" xmlns="http://www.w3.org/2000/svg" viewBox="0 0 1058.61 659.82"><rect width="1058.61" height="659.82" style="fill:#709bd1"/><polygon points="0 226.82 1058.61 177.99 1058.61 242.5 0 242.5 0 226.82" style="fill:#83addc;fill-rule:evenodd"/><path d="M43.31,247.19c1.48,24.42,11.41,27.58,27.14,10.15,1.47,50.27,60.49,72.59,76.14,27,30.78,26,57.81,13.85,50.19-19.84,36.62,26.8,56.32,12.34,50.58-17,26.94,31.65,50.14,28.06,56.37-11.09,7.31-45.94-40.28-40.36-60.62-5.69.61-24.34-9.33-25.22-24.73-11.22-10.71-50.59-51-44.75-60.11-3.17-17.76-41.07-45-59.87-59.21-22.59-17.24-54.55-49.59-51.63-62.55,3.9C24.27,167.11,10.3,168.2,0,182.76v88.48C12,277.08,29.09,269.93,43.31,247.19Z" transform="translate(0 -0.18)" style="fill:#29783c;fill-rule:evenodd"/><path d="M1058.61,141.36V287.08a146,146,0,0,1-19,1.24c-33.77,0-63.27-11.37-79.2-28.3-11.2,20.82-42.76,35.83-79.94,35.83-29.17,0-54.88-9.24-70-23.27a85.94,85.94,0,0,1-19.52,2.2c-19.41,0-36.5-6.21-46.42-15.62-.75,0-1.51.07-2.27.07-8.09,0-15.26-2.44-19.74-6.2a55.66,55.66,0,0,1-15.67,2.19c-10.79,0-20.49-2.91-27.19-7.54-4.55,4.24-12.3,7-21.09,7-14,0-21.18-7.46-25.35-15.79-12.41-24.78,3.34-38.42,38.72-13.43-3.39-29.55,14.27-41,45.3-15-2.86-22.82,8.46-35.2,31.08-16-7-40,35.2-56.4,62.48-12.74,5.89-6.58,12.61-7.63,19.59,0-.14-52,71.81-65.64,82.54-6.34,8.77-12.4,20.14-10.49,29.45-.95,5.36-34.35,38.54-43.16,58.5-10-1.51-17.43,4-27.3,26-8.05C1031.12,128.21,1044.09,112.66,1058.61,141.36Z" transform="translate(0 -0.18)" style="fill:#29783c;fill-rule:evenodd"/><rect y="242.5" width="1058.61" height="417.32" style="fill:#378f43"/><path d="M95.62,308.71c1.48-24.43,11.41-27.58,27.13-10.15,1.48-50.27,60.5-72.6,76.15-26.95,30.78-26,57.81-13.85,50.19,19.84,36.62-26.8,56.32-12.34,50.58,17.05,26.94-31.65,68.09-27.57,56.37,11.09-3.18,10.48-13.88,19.32-31,19.32-13.94,0-25.73-5.74-29.62-13.63-5.26,5.64-14.18,9.8-24.73,11.22-3.32,8.72-15.89,15.21-30.89,15.21-13.12,0-24.39-5-29.22-12a64.06,64.06,0,0,1-25.15,4.88c-11.21,0-21.44-2.59-29.24-6.87-7,5.13-17.44,8.38-29.1,8.38-14.39,0-26.93-5-33.45-12.28-5.89,4.15-14.5,6.76-24.09,6.76-17.78,0-30.45-9-32.19-20.06C30.55,277.3,70.37,268.33,95.62,308.71Z" transform="translate(0 -0.18)" style="fill:#70ba61;fill-rule:evenodd"/><polygon points="0 659.82 1058.61 659.82 1058.61 281.62 0 337.8 0 659.82" style="fill:#46aa48;fill-rule:evenodd"/><path d="M1058.61,448.23V303.31l-29.87-19.92L922.23,289l136.38,159.19ZM741.3,298.64l222.39,209-230.62.89-86.3-204.83,94.53-5Zm-282.83,15L376.09,318,351.43,503.27l203.3-.79L458.47,313.65ZM183.05,328.27,113.17,332,0,463.05v34.88l145.77-.57Z" transform="translate(0 -0.18)" style="fill:#65b755;fill-rule:evenodd"/><path d="M1058.61,523.33V377.6c-38.61-27-78.18-13.8-98.25,27.07-29.88-71.17-124.11-98.52-150-12.56-23.69-39.31-51.08-36.71-65.94,13.41-12.15-15.18-18.72-5.78-22,6.14C704.78,387,686.05,381.09,679.6,417c-24.26-41.44-44.44-23.36-46.44,8.76-1.62,25.93,3.34,38.42,38.72,13.43-3.39,29.54,14.27,41,45.3,15-2.86,22.82,8.46,35.2,31.08,16-7,40.06,35.2,56.4,62.48,12.74,5.89,6.58,12.61,7.63,19.59.05-.14,52,71.81,65.63,82.54,6.34,8.77,12.4,20.14,10.49,29.45,1,5.36,34.35,38.54,43.16,58.5,10-1.51,17.43,4,27.29,26,8C1031.12,536.48,1044.09,552,1058.61,523.33Z" transform="translate(0 -0.18)" style="fill:#8fca6e;fill-rule:evenodd"/><polygon points="0 389.96 1058.61 442.13 1058.61 659.82 0 659.82 0 389.96" style="fill:#7bc362;fill-rule:evenodd"/><path d="M0,472,838.88,660H586.19L0,484.5V472Zm0-60.19v12L1058.61,580.3V522.12Z" transform="translate(0 -0.18)" style="fill:#8fca6e;fill-rule:evenodd"/><path d="M207.21,68.32a24.46,24.46,0,0,1,14.85,5.09c6-13.13,18.39-22.14,32.69-22.14,14.06,0,26.26,8.71,32.39,21.47a21.25,21.25,0,0,1,7.61-1.41,22.42,22.42,0,0,1,18.33,9.94,16.69,16.69,0,0,1,8.64-2.41c8,0,14.77,5.69,17.14,13.59l69.48,4.21H102.53L179,92l2.58-.15C183.73,78.48,194.39,68.32,207.21,68.32Z" transform="translate(0 -0.18)" style="fill:#fff;fill-rule:evenodd"/><path d="M739.13,139.42l-68.33-4.16c-1-9.93-8.6-17.66-17.86-17.66a16.81,16.81,0,0,0-10.64,3.86,21.89,21.89,0,0,0-16.19-7.37,21.35,21.35,0,0,0-12.5,4.08c-6.66-8.34-16.42-13.61-27.3-13.61-11.48,0-21.73,5.88-28.4,15a24.79,24.79,0,0,0-18.9-9c-12.92,0-23.62,10.42-25.6,24l-2.48.15-76.07,4.64Z" transform="translate(0 -0.18)" style="fill:#fff;fill-rule:evenodd"/><polygon points="0 555.19 173.35 659.82 44.59 659.82 0 595.32 0 555.19" style="fill:#8fca6e;fill-rule:evenodd"/><path d="M730.84,45.71a14,14,0,0,1,7.87,2.45c4-11.14,13.31-19,24.21-19,9.85,0,18.43,6.38,22.91,15.82a12.42,12.42,0,0,1,7.84-2.85c6.75,0,12.38,5.68,13.61,13.2l5.85.55L859,60.24H675.53l41-3.86C719,50.07,724.5,45.71,730.84,45.71Z" transform="translate(0 -0.18)" style="fill:#fff;fill-rule:evenodd"/><path d="M434.89,192,389,187.67l-6.83-.64c-2.18-5.65-7-9.58-12.64-9.58a12.27,12.27,0,0,0-6.8,2.1c-4.11-10.73-13.28-18.21-23.94-18.21-8.77,0-16.53,5.06-21.3,12.83a14.63,14.63,0,0,0-10.78-5c-8.77,0-15.88,8.36-15.88,18.67,0,.13,0,.27,0,.41L251.42,192Z" transform="translate(0 -0.18)" style="fill:#fff;fill-rule:evenodd"/></svg>