<svg id="publicdomainvectors.org" xmlns="http://www.w3.org/2000/svg" viewBox="0 0 236.47 659.82"><rect x="-195.91" width="1058.61" height="659.82" style="fill:#709bd1"/><polygon points="-195.91 226.82 862.7 177.99 862.7 242.5 -195.91 242.5 -195.91 226.82" style="fill:#83addc;fill-rule:evenodd"/><path d="M-152.6,247c1.48,24.42,11.41,27.58,27.14,10.15,1.47,50.27,60.49,72.59,76.14,27,30.78,26,57.81,13.85,50.19-19.84,36.62,26.8,56.32,12.34,50.58-17,26.94,31.65,50.14,28.06,56.37-11.09,7.31-45.94-40.28-40.36-60.62-5.69.61-24.34-9.33-25.22-24.73-11.22-10.71-50.59-51-44.75-60.11-3.17-17.76-41.07-45-59.87-59.21-22.59-17.24-54.55-49.59-51.63-62.55,3.9-12.24-30.53-26.21-29.44-36.51-14.88v88.48C-183.91,276.9-166.82,269.75-152.6,247Z" style="fill:#29783c;fill-rule:evenodd"/><rect x="-195.91" y="242.5" width="1058.61" height="417.32" style="fill:#378f43"/><path d="M-100.29,308.53c1.48-24.43,11.41-27.58,27.13-10.15,1.48-50.27,60.5-72.6,76.15-26.95,30.78-26,57.81-13.85,50.19,19.84,36.62-26.8,56.32-12.34,50.58,17.05,26.94-31.65,68.09-27.57,56.37,11.09-3.18,10.48-13.88,19.32-31,19.32-13.94,0-25.73-5.74-29.62-13.63-5.26,5.64-14.18,9.8-24.73,11.22-3.32,8.72-15.89,15.21-30.89,15.21-13.12,0-24.39-5-29.22-12a64.17,64.17,0,0,1-25.15,4.88c-11.21,0-21.44-2.59-29.24-6.87-7,5.13-17.44,8.38-29.1,8.38-14.39,0-26.93-5-33.45-12.28-5.89,4.15-14.5,6.76-24.09,6.76-17.78,0-30.45-9-32.19-20.06C-165.36,277.12-125.54,268.15-100.29,308.53Z" style="fill:#70ba61;fill-rule:evenodd"/><polygon points="-195.91 659.82 862.7 659.82 862.7 281.62 -195.91 337.8 -195.91 659.82" style="fill:#46aa48;fill-rule:evenodd"/><path d="M862.7,448.05V303.13l-29.87-19.92-106.51,5.61L862.7,448ZM545.39,298.46l222.39,209-230.62.89-86.3-204.83,94.53-5Zm-282.83,15-82.38,4.36L155.52,503.09l203.3-.79L262.56,313.47ZM-12.86,328.09l-69.88,3.73L-195.91,462.87v34.88l145.77-.57Z" style="fill:#65b755;fill-rule:evenodd"/><polygon points="-195.91 389.96 862.7 442.13 862.7 659.82 -195.91 659.82 -195.91 389.96" style="fill:#7bc362;fill-rule:evenodd"/><path d="M-195.91,471.82,643,659.82H390.28l-586.19-175.5Zm0-60.19v12L862.7,580.12V521.94Z" style="fill:#8fca6e;fill-rule:evenodd"/><path d="M11.3,68.14a24.45,24.45,0,0,1,14.85,5.09c6-13.13,18.39-22.14,32.69-22.14,14.06,0,26.26,8.71,32.39,21.47a21.3,21.3,0,0,1,7.61-1.41,22.4,22.4,0,0,1,18.33,9.94,16.69,16.69,0,0,1,8.64-2.41c8,0,14.77,5.69,17.14,13.59l69.48,4.21H-93.38l76.47-4.66,2.58-.15C-12.18,78.3-1.52,68.14,11.3,68.14Z" style="fill:#fff;fill-rule:evenodd"/><path d="M239,191.82l-45.89-4.33-6.83-.64c-2.18-5.65-7-9.58-12.64-9.58a12.23,12.23,0,0,0-6.8,2.1c-4.11-10.73-13.28-18.21-23.94-18.21-8.77,0-16.53,5.06-21.3,12.83a14.62,14.62,0,0,0-10.78-5c-8.77,0-15.88,8.36-15.88,18.67v.41l-39.41,3.75Z" style="fill:#fff;fill-rule:evenodd"/></svg>