<svg id="Layer_2" data-name="Layer 2" xmlns="http://www.w3.org/2000/svg" viewBox="0 0 545.12 408.37"><line x1="559.96" y1="88.84" x2="-5.81" y2="178.57" style="fill:none;stroke:#fff;stroke-miterlimit:10;stroke-width:0.10000000149011612px"/><line x1="561.22" y1="136.84" x2="-6.92" y2="182.66" style="fill:none;stroke:#fff;stroke-miterlimit:10;stroke-width:0.10000000149011612px"/><line x1="558.7" y1="233.4" x2="-2.09" y2="189.73" style="fill:none;stroke:#fff;stroke-miterlimit:10;stroke-width:0.10000000149011612px"/><line x1="555.49" y1="282.52" x2="-2.09" y2="193.63" style="fill:none;stroke:#fff;stroke-miterlimit:10;stroke-width:0.10000000149011612px"/><line x1="557.73" y1="330.94" x2="-1.81" y2="197.54" style="fill:none;stroke:#fff;stroke-miterlimit:10;stroke-width:0.10000000149011612px"/><line x1="558.29" y1="384.52" x2="-2.36" y2="201.73" style="fill:none;stroke:#fff;stroke-miterlimit:10;stroke-width:0.10000000149011612px"/><line x1="539.31" y1="-3.81" x2="-3.48" y2="171.03" style="fill:none;stroke:#fff;stroke-miterlimit:10;stroke-width:0.10000000149011612px"/><line x1="312.33" y1="0.33" x2="-8.5" y2="164.19" style="fill:none;stroke:#fff;stroke-miterlimit:10;stroke-width:0.10000000149011612px"/><line x1="-8.5" y1="154.43" x2="207.4" y2="-2.27" style="fill:none;stroke:#fff;stroke-miterlimit:10;stroke-width:0.10000000149011612px"/><line x1="134.1" y1="-0.78" x2="-1.71" y2="137.26" style="fill:none;stroke:#fff;stroke-miterlimit:10;stroke-width:0.10000000149011612px"/><line x1="-1.95" y1="118.57" x2="86.84" y2="-3.02" style="fill:none;stroke:#fff;stroke-miterlimit:10;stroke-width:0.10000000149011612px"/><line x1="-5.29" y1="186.38" x2="588.8" y2="186.75" style="fill:none;stroke:#fff;stroke-miterlimit:10;stroke-width:0.10000000149011612px"/><line x1="-2.64" y1="37.54" x2="11.68" y2="-5.25" style="fill:none;stroke:#fff;stroke-miterlimit:10;stroke-width:0.10000000149011612px"/><line x1="46.1" y1="-5.62" x2="-3.39" y2="93.17" style="fill:none;stroke:#fff;stroke-miterlimit:10;stroke-width:0.10000000149011612px"/><line x1="-2.78" y1="206.05" x2="502.47" y2="410.75" style="fill:none;stroke:#fff;stroke-miterlimit:10;stroke-width:0.10000000149011612px"/><line x1="-2.92" y1="211.36" x2="390.56" y2="411.59" style="fill:none;stroke:#fff;stroke-miterlimit:10;stroke-width:0.10000000149011612px"/><line x1="-2.5" y1="215.54" x2="316.33" y2="410.75" style="fill:none;stroke:#fff;stroke-miterlimit:10;stroke-width:0.10000000149011612px"/><line x1="-3.48" y1="220.7" x2="261.91" y2="413.82" style="fill:none;stroke:#fff;stroke-miterlimit:10;stroke-width:0.10000000149011612px"/><line x1="-4.04" y1="226.43" x2="215.87" y2="411.31" style="fill:none;stroke:#fff;stroke-miterlimit:10;stroke-width:0.10000000149011612px"/><line x1="-4.18" y1="233.82" x2="173.73" y2="410.75" style="fill:none;stroke:#fff;stroke-miterlimit:10;stroke-width:0.10000000149011612px"/><line x1="-3.62" y1="241.91" x2="142.66" y2="411.31" style="fill:none;stroke:#fff;stroke-miterlimit:10;stroke-width:0.10000000149011612px"/><line x1="-2.64" y1="252.66" x2="112.52" y2="411.68" style="fill:none;stroke:#fff;stroke-miterlimit:10;stroke-width:0.10000000149011612px"/><line x1="-1.95" y1="267.17" x2="89.64" y2="413.73" style="fill:none;stroke:#fff;stroke-miterlimit:10;stroke-width:0.10000000149011612px"/><line x1="-2.36" y1="283.91" x2="63.96" y2="412.43" style="fill:none;stroke:#fff;stroke-miterlimit:10;stroke-width:0.10000000149011612px"/><line x1="-2.27" y1="304.89" x2="45.91" y2="422.1" style="fill:none;stroke:#fff;stroke-miterlimit:10;stroke-width:0.10000000149011612px"/><line x1="-2.27" y1="336.15" x2="25.08" y2="415.96" style="fill:none;stroke:#fff;stroke-miterlimit:10;stroke-width:0.10000000149011612px"/></svg>