<svg id="Layer_4" data-name="Layer 4" xmlns="http://www.w3.org/2000/svg" viewBox="0 0 545.12 408.37"><line x1="274.01" y1="-21.99" x2="274.38" y2="461.73" style="fill:none;stroke:#fff;stroke-miterlimit:10;stroke-width:0.10000000149011612px"/><line x1="302.66" y1="427.87" x2="313.08" y2="-24.97" style="fill:none;stroke:#fff;stroke-miterlimit:10;stroke-width:0.10000000149011612px"/><line x1="354.38" y1="-25.71" x2="329.45" y2="436.05" style="fill:none;stroke:#fff;stroke-miterlimit:10;stroke-width:0.10000000149011612px"/><line x1="357.36" y1="420.52" x2="391.96" y2="-24.97" style="fill:none;stroke:#fff;stroke-miterlimit:10;stroke-width:0.10000000149011612px"/><line x1="433.26" y1="-16.78" x2="380.05" y2="461.36" style="fill:none;stroke:#fff;stroke-miterlimit:10;stroke-width:0.10000000149011612px"/><line x1="413.54" y1="424.89" x2="481.63" y2="-43.57" style="fill:none;stroke:#fff;stroke-miterlimit:10;stroke-width:0.10000000149011612px"/><line x1="525.17" y1="-19.76" x2="445.17" y2="433.82" style="fill:none;stroke:#fff;stroke-miterlimit:10;stroke-width:0.10000000149011612px"/><line x1="476.42" y1="433.45" x2="581.73" y2="-63.67" style="fill:none;stroke:#fff;stroke-miterlimit:10;stroke-width:0.10000000149011612px"/><line x1="235.96" y1="-18.18" x2="246.84" y2="432.33" style="fill:none;stroke:#fff;stroke-miterlimit:10;stroke-width:0.10000000149011612px"/><line x1="221.08" y1="433.54" x2="196.98" y2="-27.2" style="fill:none;stroke:#fff;stroke-miterlimit:10;stroke-width:0.10000000149011612px"/><line x1="155.59" y1="-28.23" x2="194.75" y2="445.73" style="fill:none;stroke:#fff;stroke-miterlimit:10;stroke-width:0.10000000149011612px"/><line x1="172.33" y1="436.43" x2="115.5" y2="-26.83" style="fill:none;stroke:#fff;stroke-miterlimit:10;stroke-width:0.10000000149011612px"/><line x1="71.22" y1="-26.83" x2="138.94" y2="449.82" style="fill:none;stroke:#fff;stroke-miterlimit:10;stroke-width:0.10000000149011612px"/><line x1="107.03" y1="439.77" x2="23.96" y2="-28.32" style="fill:none;stroke:#fff;stroke-miterlimit:10;stroke-width:0.10000000149011612px"/><line x1="-28.5" y1="-38.74" x2="74.94" y2="441.26" style="fill:none;stroke:#fff;stroke-miterlimit:10;stroke-width:0.10000000149011612px"/></svg>