<svg id="Layer_3" data-name="Layer 3" xmlns="http://www.w3.org/2000/svg" viewBox="0 0 545.12 408.37"><line x1="548.98" y1="340.8" x2="519.03" y2="430.66" style="fill:none;stroke:#fff;stroke-miterlimit:10;stroke-width:0.10000000149011612px"/><line x1="503.59" y1="420.24" x2="548.61" y2="311.03" style="fill:none;stroke:#fff;stroke-miterlimit:10;stroke-width:0.10000000149011612px"/><line x1="548.61" y1="287.77" x2="482.94" y2="418.19" style="fill:none;stroke:#fff;stroke-miterlimit:10;stroke-width:0.10000000149011612px"/><line x1="455.03" y1="421.54" x2="548.8" y2="272.15" style="fill:none;stroke:#fff;stroke-miterlimit:10;stroke-width:0.10000000149011612px"/><line x1="549.73" y1="256.15" x2="424.7" y2="428.24" style="fill:none;stroke:#fff;stroke-miterlimit:10;stroke-width:0.10000000149011612px"/><line x1="404.98" y1="414.1" x2="550.84" y2="246.66" style="fill:none;stroke:#fff;stroke-miterlimit:10;stroke-width:0.10000000149011612px"/><line x1="549.17" y1="236.43" x2="359.22" y2="427.87" style="fill:none;stroke:#fff;stroke-miterlimit:10;stroke-width:0.10000000149011612px"/><line x1="325.54" y1="417.82" x2="551.4" y2="228.61" style="fill:none;stroke:#fff;stroke-miterlimit:10;stroke-width:0.10000000149011612px"/><line x1="550.1" y1="222.47" x2="279.4" y2="419.31" style="fill:none;stroke:#fff;stroke-miterlimit:10;stroke-width:0.10000000149011612px"/><line x1="226.57" y1="414.47" x2="549.36" y2="217.54" style="fill:none;stroke:#fff;stroke-miterlimit:10;stroke-width:0.10000000149011612px"/><line x1="156.05" y1="411.12" x2="550.19" y2="211.5" style="fill:none;stroke:#fff;stroke-miterlimit:10;stroke-width:0.10000000149011612px"/><line x1="550.33" y1="206.75" x2="34.01" y2="416.7" style="fill:none;stroke:#fff;stroke-miterlimit:10;stroke-width:0.10000000149011612px"/><line x1="-13.06" y1="385.82" x2="557.73" y2="199.77" style="fill:none;stroke:#fff;stroke-miterlimit:10;stroke-width:0.10000000149011612px"/><line x1="548.42" y1="198.66" x2="-19.39" y2="333.73" style="fill:none;stroke:#fff;stroke-miterlimit:10;stroke-width:0.10000000149011612px"/><line x1="550.47" y1="194.01" x2="-10.64" y2="282.75" style="fill:none;stroke:#fff;stroke-miterlimit:10;stroke-width:0.10000000149011612px"/><line x1="548.42" y1="189.17" x2="-11.76" y2="234.01" style="fill:none;stroke:#fff;stroke-miterlimit:10;stroke-width:0.10000000149011612px"/><line x1="549.54" y1="182.47" x2="-4.32" y2="137.26" style="fill:none;stroke:#fff;stroke-miterlimit:10;stroke-width:0.10000000149011612px"/><line x1="-5.43" y1="90.01" x2="547.12" y2="178.01" style="fill:none;stroke:#fff;stroke-miterlimit:10;stroke-width:0.10000000149011612px"/><line x1="548.8" y1="169.45" x2="16.89" y2="-1.53" style="fill:none;stroke:#fff;stroke-miterlimit:10;stroke-width:0.10000000149011612px"/><line x1="232.89" y1="-2.83" x2="552.33" y2="160.52" style="fill:none;stroke:#fff;stroke-miterlimit:10;stroke-width:0.10000000149011612px"/><line x1="549.17" y1="146.19" x2="321.08" y2="-18.18" style="fill:none;stroke:#fff;stroke-miterlimit:10;stroke-width:0.10000000149011612px"/><line x1="547.49" y1="132.8" x2="403.68" y2="-9.81" style="fill:none;stroke:#fff;stroke-miterlimit:10;stroke-width:0.10000000149011612px"/><line x1="547.68" y1="114.57" x2="460.05" y2="-6.18" style="fill:none;stroke:#fff;stroke-miterlimit:10;stroke-width:0.10000000149011612px"/><line x1="536.24" y1="-12.32" x2="548.24" y2="28.98" style="fill:none;stroke:#fff;stroke-miterlimit:10;stroke-width:0.10000000149011612px"/><line x1="500.8" y1="-8.13" x2="549.36" y2="87.03" style="fill:none;stroke:#fff;stroke-miterlimit:10;stroke-width:0.10000000149011612px"/><line x1="-22.49" y1="184.86" x2="557.94" y2="186.14" style="fill:none;stroke:#fff;stroke-miterlimit:10;stroke-width:0.10000000149011612px"/></svg>