<svg id="Layer_1" data-name="Layer 1" xmlns="http://www.w3.org/2000/svg" viewBox="0 0 334.26 175.57"><ellipse cx="275.77" cy="245.71" rx="167.13" ry="87.78" transform="translate(-108.9 -157.63) rotate(-0.06)" style="fill:#222"/><ellipse cx="275.77" cy="245.54" rx="150.85" ry="75.58" transform="translate(-108.89 -157.63) rotate(-0.06)" style="fill:#787878"/><path d="M199.46,179.68c2.61-.79,4-1.23,7.71-2.23,3-.82,5.79-2.07,8.27-2.07q5.9,0,7.31,6.83,8.59-7.54,13.84-7.54a5.62,5.62,0,0,1,4.39,2.06,8.18,8.18,0,0,1,1.8,5.57q0,3.51-2.89,14.11T237,209.82q0,2.79,1.77,2.79a4.66,4.66,0,0,0,1.47-.29l.89,2.24a12.82,12.82,0,0,1-7.19,2.65q-3.36,0-4.74-1.59a6.12,6.12,0,0,1-1.39-4.18q0-2.59,2.77-13.35t2.77-13.35c0-2.16-.79-3.24-2.36-3.24q-2.82,0-7.83,4.6l.06,1.12a49.47,49.47,0,0,1-1.12,10A58.59,58.59,0,0,1,219,207.43a24.57,24.57,0,0,1-5.21,8.13q-3.21,3.24-6.6,3.24a7,7,0,0,1-5.3-2,7.68,7.68,0,0,1-1.92-5.54q0-5.59,4.54-12.17A56.83,56.83,0,0,1,214,188.22q0-5.66-1.29-6.89c-.43-.4-3.68-2.16-11.7-.25m5,32.12q2.36,0,4.69-5.65a51.24,51.24,0,0,0,3.15-14.5,38.92,38.92,0,0,0-6.51,8.43q-3.27,5.42-3.27,8.89a3.36,3.36,0,0,0,.56,2.13A1.69,1.69,0,0,0,206,213.2Z" transform="translate(-108.64 -157.92)" style="fill:#eadc16"/><path d="M253.86,217.21a7.7,7.7,0,0,1-6.37-2.86q-2.3-2.85-2.3-8a18.35,18.35,0,0,1,3.51-11.26,11.41,11.41,0,0,1,9.69-4.71l2.12.12a4.66,4.66,0,0,1,2.24-.53q4.67,0,4.66,8.78a31,31,0,0,0,4.89-.65l.94-.24.35,2.3a27,27,0,0,1-5.24,1.47l-1.18.24a25,25,0,0,1-4.54,10.75A10.48,10.48,0,0,1,253.86,217.21Zm3.18-5.07q2.47,0,4.45-3.18a21.51,21.51,0,0,0,2.74-6.72q-6.32,0-6.31-4.71a8.32,8.32,0,0,1,.77-3.54l.29-.58a1.29,1.29,0,0,0-.59-.12,1,1,0,0,0-.53.12c-1,.62-1.9,2.1-2.77,4.41a22.8,22.8,0,0,0-1.29,8Q253.8,212.14,257,212.14Z" transform="translate(-108.64 -157.92)" style="fill:#eadc16"/><path d="M278.54,217.21a7.69,7.69,0,0,1-6.36-2.86q-2.3-2.85-2.3-8a18.35,18.35,0,0,1,3.51-11.26,11.4,11.4,0,0,1,9.69-4.71l2.12.12a4.66,4.66,0,0,1,2.24-.53q4.65,0,4.66,8.78a31,31,0,0,0,4.89-.65l.94-.24.35,2.3a27,27,0,0,1-5.24,1.47l-1.18.24a25.14,25.14,0,0,1-4.54,10.75A10.5,10.5,0,0,1,278.54,217.21Zm3.19-5.07c1.64,0,3.13-1.06,4.44-3.18a21,21,0,0,0,2.74-6.72q-6.3,0-6.3-4.71a8.31,8.31,0,0,1,.76-3.54l.3-.58a1.29,1.29,0,0,0-.59-.12.94.94,0,0,0-.53.12c-1,.62-1.91,2.1-2.77,4.41a22.79,22.79,0,0,0-1.3,8Q278.48,212.14,281.73,212.14Z" transform="translate(-108.64 -157.92)" style="fill:#eadc16"/><path d="M322.32,212.91q-5,4.31-8.81,4.3a4,4,0,0,1-4.39-3.77,13.61,13.61,0,0,1-3.94,2.77,9.43,9.43,0,0,1-3.84,1,6,6,0,0,1-4.83-2.48c-1.33-1.64-2-4.2-2-7.65q0-7.79,3.3-12.23t7.45-4.45a12.32,12.32,0,0,1,7,1.89,85.83,85.83,0,0,0,1.82-15l-.29-2.47a26.09,26.09,0,0,1,8.66-1.54,5.43,5.43,0,0,1,.47,2.3q0,4.3-2.59,17.47t-2.59,17.89c0,.94.21,1.41.64,1.41a8.43,8.43,0,0,0,2.24-1.12l.59-.35Zm-14.2-19q-2.06,0-3.56,4.06a22.91,22.91,0,0,0-1.51,8.05c0,2.65.19,4.35.56,5.09a1.8,1.8,0,0,0,1.68,1.12,5.91,5.91,0,0,0,3.83-1.59q.18-2.36,2.65-15.67A7.86,7.86,0,0,0,308.12,193.88Z" transform="translate(-108.64 -157.92)" style="fill:#eadc16"/><path d="M328.54,217.21a4.47,4.47,0,0,1-3.36-1.36,5.22,5.22,0,0,1-1.33-3.8q0-2.45,2.92-15.61t2.92-19l-.36-2.59a26.19,26.19,0,0,1,8.61-1.6,5.24,5.24,0,0,1,.59,2.89q0,4.71-3,18.24t-3,15.73c0,1.47.18,2.21.54,2.21l4.12-1.47,1.06,2.06a25.21,25.21,0,0,1-4.86,2.94A11.8,11.8,0,0,1,328.54,217.21Z" transform="translate(-108.64 -157.92)" style="fill:#eadc16"/><path d="M339.41,206.31q0-7.37,4.45-11.64A14.17,14.17,0,0,1,354,190.4a9.17,9.17,0,0,1,5.72,1.71,5.46,5.46,0,0,1,2.24,4.57,7.8,7.8,0,0,1-1.45,4.8,10,10,0,0,1-3.5,3,26.89,26.89,0,0,1-7.66,2.6l-1.42.17q.42,5.53,4.54,5.54a7.35,7.35,0,0,0,3-.71,11.48,11.48,0,0,0,2.47-1.41l.88-.71,1.42,1.89a9.74,9.74,0,0,1-1.89,1.71,25.76,25.76,0,0,1-2.65,1.76,15.2,15.2,0,0,1-7.48,1.89,7.83,7.83,0,0,1-6.42-2.89C340.19,212.4,339.41,209.73,339.41,206.31Zm13.2-4.48a7.51,7.51,0,0,0,1.76-5.18c0-2.13-.62-3.19-1.88-3.19q-2.24,0-3.45,3.8a23.77,23.77,0,0,0-1.21,7.1A7.94,7.94,0,0,0,352.61,201.83Z" transform="translate(-108.64 -157.92)" style="fill:#eadc16"/><path d="M212.05,177.08S125.36,196.43,125.36,247c0,39.4,61.39,73.67,149.2,73.67S426.8,288.84,426.8,243.45c0-23.52-16.38-41.43-31.4-50.93-7.28-4.61-25.81-15.21-24-2.65,2.76,19.1,30.56-7.68,30.56-7.68" transform="translate(-108.64 -157.92)" style="fill:none;stroke:#eadc18;stroke-linecap:round;stroke-miterlimit:10;stroke-width:2px"/><path d="M405.64,284.19a18.81,18.81,0,0,1-7.5-5.17,8.09,8.09,0,0,1-2.05-5.33V255h13.55v-28.7H395.86a30.8,30.8,0,0,0-11.51-21.5l-4.68-3.7-26.14,18.3,7,6.75a10.15,10.15,0,0,1,2.6,3.59c.06.18.13.39.19.62l-5.24,1.26v1.23c-.95-.75-1.93-1.49-3-2.19-5.88-3.91-11-5.81-15.57-5.81-5.09,0-10.59,2.75-17.83,8.92a42.54,42.54,0,0,0-8,8.68,58.1,58.1,0,0,0-9.57-9.37c-7-5.77-11.95-8.23-16.51-8.23s-9.48,2.46-16.51,8.23a67.38,67.38,0,0,0-8.39,7.91V226.26h-57a68.44,68.44,0,0,0-10-10.91c-7.57-6.93-13.25-10-18.41-10s-10.84,3.09-18.41,10c-6.79,6.23-10.82,11.22-12.66,15.67-1,2.41-2,6.37-2,19v17.9c0,12,.77,16.13,1.93,18.67a36.75,36.75,0,0,0,4.28,7l-.48.34,3.36,3.4,2.05,2.67.34-.24.86.87A115.31,115.31,0,0,0,175,316c7.41,4.89,12.8,7.07,17.47,7.07,3.7,0,7.66-1.66,12.44-5.2a82.19,82.19,0,0,0,10.54-9.39l3-3.11c3.59,2.42,6.74,3.54,9.74,3.54a15,15,0,0,0,7.45-2.26l.17.81h26.87V292.76a67.38,67.38,0,0,0,8.39,7.91c6.93,5.7,12.17,8.23,17,8.23,4.46,0,9.31-1.84,15.26-5.81a39.87,39.87,0,0,0,9.84-9.14,39.65,39.65,0,0,0,9.83,9.14c5.87,3.91,11,5.81,15.69,5.81,5.31,0,11.26-3.32,19.29-10.78a63.14,63.14,0,0,0,8.31-9,31,31,0,0,0,4.64,7.5,42.78,42.78,0,0,0,15,11.53l4.18,1.95,29.09-20.36ZM313,279h.34l-.17.12Zm9-6-3.82,2.63v-6.4A36.73,36.73,0,0,0,322,273.05Zm35.73-13.54,6.38-4.4v10.54c-.27-.32-.53-.64-.82-1A49.12,49.12,0,0,0,357.74,259.51Z" transform="translate(-108.64 -157.92)" style="fill:#eadc16"/><path d="M152.43,267.84V249.93q0-12.69,1.33-15.84,2.06-5,10.71-12.88t13-7.93q4.35,0,13,7.93t10.71,12.88q1.33,3.15,1.33,15.84v14.28q0,12.71-1.15,15.48t-5.81,7.56a34.2,34.2,0,0,1-9.73,7.2c3.63,2.66,5.92,4,6.89,4,1.94,0,3.91-1.13,5.93-3.39l11.25,7.86a73.3,73.3,0,0,1-9.5,8.47Q195.5,315,192.71,315q-4.35,0-13.06-5.75a107,107,0,0,1-17.18-14.33q2.91-2.06,7-4.9t5.86-4.11c1.17-.85,2.48-1.87,3.94-3.08a24.09,24.09,0,0,0,5.56-6.42c.64-1.28,1-5.36,1-12.21V249.93q0-9.92-1-12.15a16.66,16.66,0,0,0-3.33-4.72q-2.36-2.48-4.05-2.48t-4.05,2.48a16.87,16.87,0,0,0-3.33,4.72q-1,2.24-1,12.15v17.91q0,9.06.72,12.46L157.27,289a30.62,30.62,0,0,1-3.63-5.8C152.84,281.43,152.43,276.3,152.43,267.84Z" transform="translate(-108.64 -157.92)" style="fill:#fff;stroke:#231f20;stroke-miterlimit:10"/><path d="M210.37,234.21h16v45a6.69,6.69,0,0,0,1.93,4.29c1.29,1.49,2.5,2.24,3.63,2.24s3.47-1.65,7-5V234.21h16v65.2H242.55l-1.46-7.14q-9.06,8.6-12.7,8.59t-10.82-6.72q-7.2-6.7-7.2-13.24Z" transform="translate(-108.64 -157.92)" style="fill:#fff;stroke:#231f20;stroke-miterlimit:10"/><path d="M310.4,266.63V271H281.13q0,7.26,1.82,11.49a9,9,0,0,0,2.17,3,4.71,4.71,0,0,0,3.27,1.51q1.69,0,4.23-2.9a21.1,21.1,0,0,0,4-7l12.46,8.83a29.62,29.62,0,0,1-10,10.52q-6.7,4.49-10.82,4.48t-11.92-6.41q-7.8-6.42-9.49-10t-1.69-17.66q0-14.08,1.69-17.66t9.49-10c5.2-4.27,9-6.41,11.43-6.41s6.23,2.14,11.43,6.41,8.37,7.6,9.5,10S310.4,257.35,310.4,266.63Zm-16.75-15.18a11.66,11.66,0,0,0-2.78-3.21,5.62,5.62,0,0,0-3.51-1.57q-1.64,0-3.69,3.2t-2.54,9.62h13.79Q294.56,253.08,293.65,251.45Z" transform="translate(-108.64 -157.92)" style="fill:#fff;stroke:#231f20;stroke-miterlimit:10"/><path d="M362.05,279.81q0,3.75-9.31,12.4t-13.85,8.65q-4.54,0-11.25-4.48a29.71,29.71,0,0,1-10-10.52l12.46-8.59q6,8.48,8.83,8.47a9.74,9.74,0,0,0,5.08-2.06q3-2.06,3-3.87c0-.32-1-1-2.9-2.12s-4.3-2.45-7.08-4.11a93.61,93.61,0,0,1-8.28-5.56,29.32,29.32,0,0,1-7-7.56,16.55,16.55,0,0,1-2.9-9.07q0-4.6,8.22-11.62t12.64-7q4.42,0,11.13,4.47a29.82,29.82,0,0,1,10,10.53l-12.46,8.58q-6-8.46-8.83-8.46a6.34,6.34,0,0,0-3.57,1.63c-1.41,1.09-2.11,2.08-2.11,3s1.47,2.26,4.41,4.12,6.17,3.77,9.68,5.74a40,40,0,0,1,9.68,7.74Q362,274.86,362.05,279.81Z" transform="translate(-108.64 -157.92)" style="fill:#fff;stroke:#231f20;stroke-miterlimit:10"/><path d="M388.3,246.91v26.73a16.06,16.06,0,0,0,3.87,10.41,26.41,26.41,0,0,0,10.64,7.49l-13.3,9.32a34.65,34.65,0,0,1-12.22-9.38,19.51,19.51,0,0,1-5-12.64V246.91h-6.05v-9.07l6.05-1.45a33.25,33.25,0,0,0-1.45-9.38,17.62,17.62,0,0,0-4.6-6.71L379.59,211q8.71,6.88,8.71,19.59v3.63h13.55v12.7Z" transform="translate(-108.64 -157.92)" style="fill:#fff;stroke:#231f20;stroke-miterlimit:10"/></svg>