<svg id="marker" xmlns="http://www.w3.org/2000/svg" viewBox="0 0 20 20"><rect x="6.31" y="12.28" width="1.21" height="6.94" style="fill:#8f8b70"/><rect x="5.98" y="12.28" width="1.21" height="6.94" style="fill:#cec8a1"/><path d="M6,4.62V15.81c5.48-7.5,8.22,1.88,13.7-5.43C14.2,13.22,11.46,1.6,6,4.62Z" style="fill:#3b3b3b;stroke:#eee;stroke-miterlimit:10;stroke-width:0.10000000149011612px"/><path d="M11.6,7.22a2.56,2.56,0,0,1,.72.72,6.82,6.82,0,0,1,.63,1,1.75,1.75,0,0,1,.07.62,1.28,1.28,0,0,1-.07.57,1.25,1.25,0,0,1-.45.27,2.19,2.19,0,0,0-.43.23.25.25,0,0,0-.07.21V11c-.37-.17-.55-.26-.92-.4v-.31a.7.7,0,0,1,.08-.4,2.32,2.32,0,0,1,.26-.21l.37-.21L12,9.37A.72.72,0,0,0,12.09,9a1,1,0,0,0-.21-.51,1.09,1.09,0,0,0-.31-.36c-.07,0-.17,0-.3.16a1.16,1.16,0,0,0-.25.56c-.32-.34-.48-.51-.8-.82a1.17,1.17,0,0,1,.55-.71A.85.85,0,0,1,11.6,7.22Zm-.06,3.85a2,2,0,0,1,.36.4,1.34,1.34,0,0,1,.28.46c0,.06-.09.12-.28.2s-.31.11-.37.08a1.77,1.77,0,0,1-.36-.39,1.25,1.25,0,0,1-.28-.45c0-.06.09-.13.28-.21S11.49,11.05,11.54,11.07Z" style="fill:#fff"/></svg>