<?xml version="1.0" encoding="utf-8"?>
<!-- Generator: Adobe Illustrator 24.1.0, SVG Export Plug-In . SVG Version: 6.00 Build 0)  -->
<svg version="1.1" id="Layer_1" xmlns="http://www.w3.org/2000/svg" xmlns:xlink="http://www.w3.org/1999/xlink" x="0px" y="0px"
	 viewBox="0 0 59 67.6" style="enable-background:new 0 0 59 67.6;" xml:space="preserve">
<style type="text/css">
	.st0{fill:#EADC16;stroke:#CA9A2C;stroke-width:2;stroke-linecap:round;stroke-miterlimit:10;}
	.st1{fill:#615D27;stroke:#CA9A2C;stroke-width:2;stroke-miterlimit:10;}
</style>
<path class="st0" d="M46.7,21.8C38.3,9.5,21.5,6.3,9.2,14.6l-0.4,0.3l7.7,11.4l0.2-0.1c6-4.2,14.3-2.7,18.4,3.3
	c4.2,6,2.7,14.3-3.3,18.4c-0.1,0.1-0.1,0.1-0.2,0.2l-0.2,0.1l7.7,11.4c0.1-0.1,0.3-0.2,0.4-0.3C51.8,50.9,55,34.1,46.7,21.8
	C46.7,21.8,46.7,21.8,46.7,21.8z"/>
<ellipse transform="matrix(0.8272 -0.5619 0.5619 0.8272 -9.4181 10.6441)" class="st1" cx="12.6" cy="20.6" rx="3.1" ry="6.9"/>
<ellipse transform="matrix(0.8272 -0.5619 0.5619 0.8272 -24.2138 29.1041)" class="st1" cx="35.2" cy="53.9" rx="3.1" ry="6.9"/>
</svg>
