<svg id="Layer_1" data-name="Layer 1" xmlns="http://www.w3.org/2000/svg" viewBox="0 0 172.02 71.99"><path d="M388.23,301l-34.86-34.86v12.93H218.75s-7.16,43.33,12,43.33H353.37V335.9Z" transform="translate(-216.21 -263.91)" style="fill:#222"/><path d="M338.43,283.12c-4.54,0-7.6.38-9.63,1.19l-1.6.64-.7-2h-2.82a30.83,30.83,0,0,0-11,1.63l-1.75.69-1-.34a29.23,29.23,0,0,0-9.48-2H297.7l-.18.45a17.73,17.73,0,0,0-4.75-.65c-3.24,0-7.93,1.17-11.86,6.7-.25.35-.47.72-.7,1.1,2.05-9.48,3.05-15.85,3.05-19.45a9.21,9.21,0,0,0-1.39-5.49l-1.2-1.68h-2.06a32.94,32.94,0,0,0-10.75,2l-3.1,1.07.64,4.71a14.9,14.9,0,0,0-3.57-3.26c-4.06-2.63-9.63-3.9-17-3.9A39.62,39.62,0,0,0,225.67,269c-7.82,4.25-9.46,10-9.46,14.12a12.43,12.43,0,0,0,10.4,12.5l2.54.34c-.13.54-.28,1.1-.43,1.68-2.3,8.89-3.53,14.65-3.77,17.63l-.23,3,2.81,1.06a8.46,8.46,0,0,0,3,.45,34.87,34.87,0,0,0,9.58-1.25l2.64-.76L243,315a102.3,102.3,0,0,1,2.27-13.21,22.89,22.89,0,0,0,2.92.18,20.65,20.65,0,0,0,11.47-3.16c.58-.37,1.12-.76,1.65-1.17-1.9,9-2.18,11.6-2.18,12.84a9.58,9.58,0,0,0,2.6,7,8.92,8.92,0,0,0,6.54,2.69,16.7,16.7,0,0,0,7.09-1.87,36.45,36.45,0,0,0,4.27-2.4c.09.11.17.23.27.34a11.26,11.26,0,0,0,8.62,3.93,12.6,12.6,0,0,0,6.34-1.87,9,9,0,0,0,5.78,1.87,14.27,14.27,0,0,0,6.48-1.77,32.94,32.94,0,0,0,3-1.66A7.71,7.71,0,0,0,312,318.3l-.4.32c-1.95,1.6-3.76,3.42-3.76,5.88,0,3.12,2.52,5.29,4.41,6.65a13.82,13.82,0,0,0,8.15,2.72,26.16,26.16,0,0,0,5.93-.56,15.88,15.88,0,0,0,5.14-2.27,13.94,13.94,0,0,0,4.57-5.26,28.46,28.46,0,0,0,2.45-6.76c.55-2.31,1.41-7.54,2.62-16,1.45-10,2.15-13.65,2.48-14.94l1.27-5Zm-87.68-1a18.06,18.06,0,0,1-.5,4.31,6.48,6.48,0,0,1-1.65,2.84,2.6,2.6,0,0,1-.35.32c1.74-7.31,2-9.47,2-10.58A8.35,8.35,0,0,1,250.75,282.08Zm71.9,36.38,0,.15-.09-.1Zm-94.17-36.15c.07-.49.63-1.31,2-2.33l.92,1.06c.27.3.45.51.55.65s0,.12,0,.19a13.33,13.33,0,0,1-.13,1.64l-2.05-.53A3.53,3.53,0,0,1,228.48,282.31Z" transform="translate(-216.21 -263.91)" style="fill:#eadc16"/><path d="M235.58,281.7a4.19,4.19,0,0,0-.29-1.81,9,9,0,0,0-1.26-1.68l.07-.45a16.62,16.62,0,0,1,8.53-2,10,10,0,0,1,3,.33,7.21,7.21,0,0,1,.32,2.68q0,2-3.1,14.59a8.57,8.57,0,0,0,3.23.58,6.69,6.69,0,0,0,5.11-2.14,10.4,10.4,0,0,0,2.62-4.62,21.93,21.93,0,0,0,.61-5.27c0-3.41-.91-5.88-2.75-7.41s-4.79-2.29-8.89-2.29q-8,0-13.32,3.23t-5.3,6.79a3.59,3.59,0,0,0,1.39,2.94,7.35,7.35,0,0,0,2.87,1.52,12.87,12.87,0,0,1-1.61,4.79,8.45,8.45,0,0,1-6.92-8.54q0-6.58,7.37-10.6a35.39,35.39,0,0,1,17.2-4q9.84,0,14.88,3.26t5,10.12q0,9-7.18,13.59a16.7,16.7,0,0,1-9.31,2.52,15,15,0,0,1-5.88-1,121.47,121.47,0,0,0-3.3,17.72,30.32,30.32,0,0,1-8.47,1.1,4.93,4.93,0,0,1-1.62-.19q.32-4.08,3.65-16.95T235.58,281.7Z" transform="translate(-216.21 -263.91)" style="fill:#fff;stroke:#333;stroke-miterlimit:10"/><path d="M268,316a5,5,0,0,1-3.69-1.49,5.7,5.7,0,0,1-1.45-4.17q0-2.69,3.2-17.14t3.2-20.85l-.39-2.85a29.08,29.08,0,0,1,9.45-1.74,5.7,5.7,0,0,1,.64,3.16q0,5.18-3.26,20t-3.27,17.27c0,1.61.19,2.42.58,2.42l4.53-1.61,1.16,2.26a27.45,27.45,0,0,1-5.33,3.23A13,13,0,0,1,268,316Z" transform="translate(-216.21 -263.91)" style="fill:#fff;stroke:#333;stroke-miterlimit:10"/><path d="M299.41,288.43a9.43,9.43,0,0,0,.71-1.68,25.91,25.91,0,0,1,8.15,1.81,90.1,90.1,0,0,0-2.58,11.22,58.26,58.26,0,0,0-1,8.34q0,2.49.51,2.49a13.33,13.33,0,0,0,2.85-1.23l.78-.38,1.16,2.26c-.39.35-.9.78-1.52,1.29a22.17,22.17,0,0,1-3.52,2.11,10.47,10.47,0,0,1-4.66,1.32c-2.67,0-4.23-1.21-4.66-3.62q-4.14,3.61-7.47,3.62a7.21,7.21,0,0,1-5.62-2.59c-1.53-1.72-2.3-4.44-2.3-8.14q0-8.67,3.56-13.68t8.6-5A14.15,14.15,0,0,1,299.41,288.43ZM292,310.48a6.67,6.67,0,0,0,3.49-1.23,78.82,78.82,0,0,1,3-18,8.59,8.59,0,0,0-3.3-.84q-2.32,0-4,4.56A29.37,29.37,0,0,0,289.65,305Q289.65,310.48,292,310.48Z" transform="translate(-216.21 -263.91)" style="fill:#fff;stroke:#333;stroke-miterlimit:10"/><path d="M316.81,315.46q-5.37,0-5.37-5.95a68.86,68.86,0,0,1,1.3-8.21A62.74,62.74,0,0,0,314,290a6.23,6.23,0,0,0-.26-1.81,27.3,27.3,0,0,1,9.57-1.36,10.26,10.26,0,0,1,.32,3.11,52.57,52.57,0,0,1-1.42,8.79,53.68,53.68,0,0,0-1.42,8.6c0,1.34.34,2,1,2a9,9,0,0,0,5.5-2q.19-2.38,2.59-19.46c1.51-.6,4.22-.91,8.15-.91h1.23q-.78,3-2.56,15.36t-2.55,15.62a24.82,24.82,0,0,1-2.1,5.82,10.13,10.13,0,0,1-3.24,3.79,11.78,11.78,0,0,1-3.85,1.71,22.79,22.79,0,0,1-5,.45,9.84,9.84,0,0,1-5.82-2q-2.74-2-2.75-3.4c0-.6.77-1.53,2.3-2.78a12.09,12.09,0,0,1,3.85-2.33,21.67,21.67,0,0,1,4.85,7.18c1.12,0,2.11-1.33,3-4a50.14,50.14,0,0,0,1.75-11.77,19.5,19.5,0,0,1-4.72,3.2A12.52,12.52,0,0,1,316.81,315.46Z" transform="translate(-216.21 -263.91)" style="fill:#fff;stroke:#333;stroke-miterlimit:10"/></svg>