<?xml version="1.0" encoding="utf-8"?>
<!-- Generator: Adobe Illustrator 24.1.0, SVG Export Plug-In . SVG Version: 6.00 Build 0)  -->
<svg version="1.1" id="Salmon" xmlns="http://www.w3.org/2000/svg" xmlns:xlink="http://www.w3.org/1999/xlink" x="0px" y="0px"
	 viewBox="0 0 20 20" style="enable-background:new 0 0 20 20;" xml:space="preserve">
<style type="text/css">
	.st0{fill:#8BB1D9;stroke:#444545;stroke-width:0.2;stroke-miterlimit:10;}
	.st1{fill:#D27C80;}
	.st2{fill:none;stroke:#444545;stroke-width:0.2;stroke-miterlimit:10;}
	.st3{fill:#444545;}
</style>
<path class="st0" d="M10.9,5.7c-0.3-0.2-0.6-0.3-0.9-0.3c-0.5,0-1,0.2-1.4,0.5C8.3,6.1,8.2,6.3,8,6.5l1.2,1.2l2-1.6L10.9,5.7z"/>
<path class="st0" d="M12,10.6l0.7,1.8c0,0,1.1-0.4,1.2-1.2c0.1-0.5,0-1.1-0.2-1.6L12,10.6z"/>
<path class="st0" d="M9.6,11.7c0,0,0.3,1.1-0.1,1.6c-0.4,0.3-0.8,0.5-1.3,0.6l-0.4-1.7"/>
<path class="st0" d="M7.3,10.1c0,0-0.7-0.4-1.1-0.2c-0.3,0.1-0.5,0.3-0.6,0.5l1.4,0.7L7.3,10.1z"/>
<path class="st0" d="M4.8,13.5c-0.4-0.3-1-0.5-1.6-0.3c-0.9,0.2-1.2,0.3-1.3,0.5c-0.1,0.2,0,0.3,0.1,0.4c0.1,0.1,0.9,0.9,0.9,0.9
	l0.5,1.3c0,0,0.2,0.3,0.4,0.2c0.2-0.2,0.9-0.7,0.9-1.1C4.9,14.9,5,14.4,5,14C5,13.8,4.9,13.6,4.8,13.5z"/>
<path class="st0" d="M17.7,5.2c-0.1,0-0.2-0.1-0.2-0.1c-0.3-0.1-0.5-0.2-0.8-0.2c-0.9,0-1.9,0-2.8,0.2C12.4,5.2,11,5.8,9.8,6.7
	c-1.1,1-2,2.1-2.8,3.4c-0.2,0.5-1.4,1.9-1.5,2.2c-0.3,0.3-0.6,0.7-1,0.9c-0.2,0.2-0.3,0.5-0.1,0.7l0,0c0.2,0.2,0.2,0.3,0.6,0.2
	c0.4-0.2,0.8-0.4,1.2-0.6c0.3-0.2,0.6-0.2,1.1-0.4s2.5-0.8,3.6-1.3c1.1-0.5,2.1-1.1,3.1-1.8c0.8-0.6,1.7-1.3,2.4-2
	C16.9,7.4,18.1,5.7,17.7,5.2z"/>
<path class="st1" d="M17.6,5.2c-0.3-0.1-0.7-0.3-1-0.3c-0.9,0-1.8,0-2.7,0.2C12.5,5.3,11,5.9,9.9,6.8c-1.1,1-2,2.1-2.8,3.4
	c-0.2,0.5-1.4,1.9-1.5,2.2c-0.3,0.3-0.6,0.7-1,0.9c-0.2,0.2-0.3,0.5-0.2,0.7c0.9-0.9,5.6-5.2,7-6.1C13.3,6.8,15.5,5.9,17.6,5.2z"/>
<path class="st2" d="M16.5,7.7c0,0-1.3,0.9-2.2,0c-0.5-0.4-0.7-1.1-0.6-1.7"/>
<path class="st2" d="M14.3,7.7l-1.4,0.9c-0.5,0.3,0.5,0.9,0.9,0.6c0.4-0.3,1.1-1.1,1.1-1.1L14.3,7.7z"/>
<ellipse class="st3" cx="16" cy="6.2" rx="0.3" ry="0.3"/>
</svg>
