<svg id="Layer_32" data-name="Layer 32" xmlns="http://www.w3.org/2000/svg" viewBox="0 0 20 20"><path d="M10.09,6c-2.77,0-5,.56-5,1.25h.45c0-.63,2.05-1.14,4.56-1.14s4.56.51,4.56,1.14h.46C15.11,6.57,12.86,6,10.09,6Z" style="fill:#8fd7ee"/><path d="M10.09,7.87c-2.77,0-5,.56-5,1.25h.45C5.53,8.49,7.58,8,10.09,8s4.56.51,4.56,1.14h.46C15.11,8.43,12.86,7.87,10.09,7.87Z" style="fill:#8fd7ee"/><path d="M10.09,9.82c-2.77,0-5,.56-5,1.26h.45c0-.63,2.05-1.14,4.56-1.14s4.56.51,4.56,1.14h.46C15.11,10.38,12.86,9.82,10.09,9.82Z" style="fill:#8fd7ee"/><path d="M10.09,11.54c-2.77,0-5,.56-5,1.26h.45c0-.63,2.05-1.14,4.56-1.14s4.56.51,4.56,1.14h.46C15.11,12.1,12.86,11.54,10.09,11.54Z" style="fill:#8fd7ee"/><ellipse cx="10.09" cy="6.37" rx="1.29" ry="1.69" style="fill:#888;stroke:#fff;stroke-miterlimit:10;stroke-width:0.10000000149011612px"/><path d="M14.26,10.87,11.12,8A1.92,1.92,0,0,1,10,8.77a2.09,2.09,0,0,1-.92-.71L5.93,10.92l.77.56,2.16-1.29L7.64,16.47H8.93L10.1,13l1.16,3.4h1.29l-1.22-6.28,2.16,1.3Z" style="fill:#888;stroke:#fff;stroke-miterlimit:10;stroke-width:0.10000000149011612px"/><path d="M10.09,8.4c-2.51,0-4.56-.51-4.56-1.14H5.08c0,.7,2.24,1.26,5,1.26s5-.56,5-1.26h-.46C14.65,7.89,12.61,8.4,10.09,8.4Z" style="fill:#8fd7ee"/><path d="M10.09,10.26c-2.51,0-4.56-.51-4.56-1.14H5.08c0,.7,2.24,1.26,5,1.26s5-.56,5-1.26h-.46C14.65,9.75,12.61,10.26,10.09,10.26Z" style="fill:#8fd7ee"/><path d="M10.09,12.22c-2.51,0-4.56-.51-4.56-1.14H5.08c0,.69,2.24,1.25,5,1.25s5-.56,5-1.25h-.46C14.65,11.71,12.61,12.22,10.09,12.22Z" style="fill:#8fd7ee"/><path d="M10.09,13.94c-2.51,0-4.56-.51-4.56-1.14H5.08c0,.69,2.24,1.25,5,1.25s5-.56,5-1.25h-.46C14.65,13.43,12.61,13.94,10.09,13.94Z" style="fill:#8fd7ee"/></svg>